<svg version="1.1" xmlns="http://www.w3.org/2000/svg" viewBox="-67.58884973683928 -50.97440148368239 142.00170712354668 70.95265651724573" fill="none" stroke="black" stroke-width="0.6%" vector-effect="non-scaling-stroke">
    <path d="M -44.87731 -25.2055 A 10 3.14987 360 0 1 -44.83879 -25.21066" />
    <path d="M -48.04667 -23.89839 C -48.02 -23.89 -47.99 -23.88 -47.96038 -23.86587 C -47.93 -23.86 -47.9 -23.85 -47.87292 -23.83597 C -47.84 -23.83 -47.81 -23.82 -47.78438 -23.80874 C -47.75 -23.8 -47.72 -23.79 -47.69483 -23.7842 C -47.66 -23.77 -47.62 -23.77 -47.58505 -23.7581 C -47.55 -23.75 -47.51 -23.74 -47.47408 -23.73604 C -47.44 -23.73 -47.4 -23.72 -47.36209 -23.71802 C -47.32 -23.71 -47.29 -23.71 -47.24925 -23.70405 C -47.21 -23.7 -47.17 -23.7 -47.13572 -23.6941 C -47.1 -23.69 -47.06 -23.69 -47.02166 -23.68816 C -46.98 -23.69 -46.95 -23.69 -46.90726 -23.68617 C -46.87 -23.69 -46.83 -23.69 -46.79267 -23.68807 C -46.75 -23.69 -46.72 -23.69 -46.67915 -23.69372 C -46.64 -23.7 -46.6 -23.7 -46.56575 -23.70306 C -46.53 -23.71 -46.49 -23.71 -46.4526 -23.71598 C -46.41 -23.72 -46.38 -23.73 -46.33982 -23.73241 C -46.33 -23.73 -46.33 -23.73 -46.32235 -23.73527" />
    <path d="M -49.45316 -23.22319 C -49.42 -23.21 -49.38 -23.2 -49.35023 -23.19237 C -49.32 -23.18 -49.28 -23.17 -49.24627 -23.16499 C -49.23 -23.16 -49.21 -23.16 -49.18615 -23.15084 C -49.17 -23.15 -49.15 -23.14 -49.12576 -23.13785 C -49.11 -23.13 -49.09 -23.13 -49.06512 -23.126 C -49.04 -23.12 -49.02 -23.12 -49.00425 -23.11532 C -48.96 -23.11 -48.92 -23.1 -48.88194 -23.09743 C -48.84 -23.09 -48.8 -23.09 -48.75904 -23.08418 C -48.72 -23.08 -48.68 -23.08 -48.63574 -23.07554 C -48.59 -23.07 -48.55 -23.07 -48.51223 -23.07147 C -48.47 -23.07 -48.43 -23.07 -48.38872 -23.07192 C -48.35 -23.07 -48.31 -23.07 -48.2654 -23.0768 C -48.23 -23.08 -48.19 -23.08 -48.14529 -23.08578 C -48.11 -23.09 -48.07 -23.09 -48.02568 -23.09881 C -47.99 -23.1 -47.95 -23.11 -47.90673 -23.11581 C -47.87 -23.12 -47.83 -23.13 -47.78858 -23.13666 C -47.76 -23.14 -47.73 -23.15 -47.69372 -23.15625 C -47.66 -23.16 -47.63 -23.17 -47.59952 -23.17823 C -47.57 -23.19 -47.54 -23.19 -47.50606 -23.20252 C -47.48 -23.21 -47.44 -23.22 -47.41338 -23.22907 C -47.38 -23.24 -47.35 -23.25 -47.32153 -23.25781 C -47.29 -23.27 -47.26 -23.28 -47.23057 -23.28868 C -47.2 -23.3 -47.17 -23.31 -47.14053 -23.3216 C -47.11 -23.33 -47.08 -23.34 -47.05146 -23.35653 C -47.01 -23.37 -46.97 -23.39 -46.9312 -23.40744 C -46.89 -23.43 -46.84 -23.45 -46.79811 -23.46892 C -46.75 -23.49 -46.71 -23.51 -46.66761 -23.53458 C -46.62 -23.56 -46.58 -23.58 -46.5398 -23.6042 C -46.5 -23.63 -46.46 -23.65 -46.41474 -23.67759 C -46.37 -23.7 -46.33 -23.73 -46.29251 -23.75455 C -46.25 -23.78 -46.21 -23.81 -46.17316 -23.83489 C -46.13 -23.86 -46.1 -23.89 -46.05675 -23.91845 C -46.02 -23.95 -45.98 -23.98 -45.94332 -24.00506 C -45.91 -24.03 -45.88 -24.05 -45.85162 -24.07901 C -45.82 -24.1 -45.79 -24.13 -45.76202 -24.15485 C -45.73 -24.18 -45.7 -24.21 -45.67451 -24.23252 C -45.65 -24.26 -45.62 -24.29 -45.58913 -24.31193 C -45.56 -24.34 -45.53 -24.37 -45.50588 -24.39301 C -45.48 -24.42 -45.45 -24.45 -45.42477 -24.47568 C -45.4 -24.5 -45.37 -24.53 -45.34582 -24.55989 C -45.32 -24.59 -45.29 -24.62 -45.26903 -24.64556 C -45.24 -24.68 -45.22 -24.71 -45.19224 -24.73525 C -45.17 -24.77 -45.14 -24.8 -45.11778 -24.82635 C -45.09 -24.86 -45.07 -24.89 -45.04565 -24.91881 C -45.02 -24.95 -45 -24.98 -44.97586 -25.01257 C -44.95 -25.04 -44.93 -25.08 -44.90841 -25.10758 C -44.89 -25.14 -44.86 -25.17 -44.84333 -25.20378 C -44.82 -25.24 -44.8 -25.27 -44.7806 -25.30113 C -44.76 -25.33 -44.74 -25.37 -44.72024 -25.39957 C -44.68 -25.47 -44.64 -25.53 -44.60668 -25.59955 C -44.57 -25.67 -44.54 -25.73 -44.50271 -25.80336 C -44.47 -25.87 -44.44 -25.94 -44.40839 -26.01063 C -44.38 -26.08 -44.35 -26.15 -44.3238 -26.22105 C -44.11 -26.79 -44 -27.38 -44.00352 -27.98313 C -44 -28.06 -44.01 -28.13 -44.00853 -28.2092 C -44.01 -28.28 -44.02 -28.36 -44.02358 -28.4358 C -44.03 -28.51 -44.04 -28.59 -44.04863 -28.66276 C -44.06 -28.74 -44.07 -28.81 -44.08366 -28.88988 C -44.1 -28.97 -44.11 -29.04 -44.12865 -29.117 C -44.15 -29.19 -44.16 -29.27 -44.18355 -29.34393 C -44.2 -29.42 -44.23 -29.5 -44.24833 -29.5705 C -44.27 -29.65 -44.3 -29.72 -44.32292 -29.79651 C -44.35 -29.87 -44.38 -29.95 -44.40728 -30.0218 C -44.44 -30.1 -44.47 -30.17 -44.50134 -30.24618 C -44.53 -30.32 -44.57 -30.4 -44.60503 -30.46946 C -44.64 -30.54 -44.68 -30.62 -44.71828 -30.69146 C -44.76 -30.77 -44.8 -30.84 -44.84103 -30.912 C -44.88 -30.99 -44.93 -31.06 -44.9732 -31.13088 C -45.02 -31.2 -45.07 -31.28 -45.11474 -31.34791 C -45.16 -31.42 -45.21 -31.49 -45.26559 -31.5629 C -45.29 -31.6 -45.32 -31.63 -45.3423 -31.66666 C -45.37 -31.7 -45.39 -31.74 -45.42117 -31.76983 C -45.45 -31.8 -45.47 -31.84 -45.50221 -31.8724 C -45.53 -31.91 -45.56 -31.94 -45.58539 -31.97431 C -45.61 -32.01 -45.64 -32.04 -45.67071 -32.07555 C -45.7 -32.11 -45.73 -32.14 -45.75814 -32.17607 C -45.79 -32.21 -45.82 -32.24 -45.84769 -32.27582 C -45.88 -32.31 -45.91 -32.34 -45.93932 -32.37477 C -45.98 -32.41 -46.01 -32.45 -46.05269 -32.49308 C -46.09 -32.53 -46.13 -32.57 -46.16903 -32.61006 C -46.25 -32.69 -46.33 -32.76 -46.41049 -32.83964 C -46.58 -32.99 -46.75 -33.14 -46.92677 -33.27807 C -47.35 -33.61 -47.81 -33.91 -48.27573 -34.14763 C -49.46 -34.76 -50.59 -34.89 -51.26412 -34.59659 C -51.29 -34.59 -51.31 -34.58 -51.33444 -34.56674 C -51.36 -34.56 -51.38 -34.55 -51.40248 -34.5345 C -51.42 -34.52 -51.45 -34.51 -51.46829 -34.49993 C -51.49 -34.49 -51.51 -34.48 -51.53191 -34.4631 C -51.55 -34.45 -51.57 -34.44 -51.59338 -34.42408 C -51.61 -34.41 -51.63 -34.4 -51.65274 -34.38291 C -51.67 -34.37 -51.69 -34.35 -51.71005 -34.33966 C -51.73 -34.32 -51.75 -34.31 -51.76536 -34.29438 C -51.78 -34.28 -51.8 -34.27 -51.81548 -34.25009 C -51.83 -34.24 -51.85 -34.22 -51.86391 -34.20409 C -51.88 -34.19 -51.9 -34.17 -51.9107 -34.15643 C -51.93 -34.14 -51.94 -34.12 -51.95588 -34.10715 C -51.97 -34.09 -51.99 -34.07 -51.99948 -34.05628 C -52.01 -34.04 -52.03 -34.02 -52.04156 -34.00385 C -52.06 -33.99 -52.07 -33.97 -52.08214 -33.94991 C -52.1 -33.93 -52.11 -33.91 -52.12126 -33.89447 C -52.13 -33.88 -52.15 -33.86 -52.15913 -33.83732 C -52.17 -33.82 -52.18 -33.8 -52.19559 -33.77873 C -52.21 -33.76 -52.22 -33.74 -52.23068 -33.71872 C -52.24 -33.7 -52.25 -33.68 -52.26445 -33.65733 C -52.29 -33.62 -52.31 -33.57 -52.32812 -33.53048 C -52.35 -33.49 -52.37 -33.44 -52.38687 -33.39835 C -52.41 -33.35 -52.42 -33.31 -52.44093 -33.26112 C -52.46 -33.21 -52.47 -33.17 -52.49052 -33.11896 C -52.51 -33.07 -52.52 -33.02 -52.53587 -32.97202 C -52.55 -32.92 -52.56 -32.87 -52.57716 -32.82046" />
    <path d="M -44.83377 -25.2183 L -45.01304 -25.16559" />
    <path d="M -28.44294 -17.56418 A 12.5 3.93734 360 0 1 -53.44294 -17.56418" />
    <path d="M -49.47272 -48.91524 A 12.5 3.93734 360 0 1 -28.44294 -46.03706 A 12.5 3.93734 360 0 1 -53.44294 -46.03706 L -53.44294 -32.40644" />
    <path d="M -53.44294 -46.03706 A 12.5 3.93734 360 0 1 -49.47272 -48.91524" />
    <path d="M -28.44294 -20.17592 A 15 4.72481 360 0 1 -25.94294 -17.56418 L -25.94294 -12.8187 A 15 4.72481 360 0 1 -44.22949 -8.2087" />
    <path d="M -25.94294 -17.56418 A 15 4.72481 360 0 1 -55.94294 -17.56418 L -55.94294 -15.25863" />
    <path d="M -55.94294 -17.56418 A 15 4.72481 360 0 1 -53.44294 -20.17592" />
    <path d="M -42.75794 18.40655 A 1.815 0.5717 180 0 0 -39.12794 18.40655 L -39.12794 3.81972" />
    <path d="M -53.44294 -20.81741 L -53.44294 -17.56418" />
    <path d="M -28.44294 -46.03706 L -28.44294 -17.56418" />
    <path d="M -39.12794 -6.54634 L -39.12794 -8.12861" />
    <path d="M -42.75794 18.40655 L -42.75794 2.80926" />
    <path d="M -42.75794 -7.68768 L -42.75794 -8.12861" />
    <path d="M 63.41191 -16.8341 C 63.41 -16.83 63.41 -16.82 63.4117 -16.81247 C 63.41 -16.81 63.41 -16.8 63.41119 -16.79082 C 63.41 -16.78 63.41 -16.78 63.41038 -16.7691 C 63.41 -16.76 63.41 -16.75 63.40925 -16.74725 C 63.41 -16.74 63.41 -16.73 63.4078 -16.72522 C 63.41 -16.72 63.41 -16.71 63.406 -16.70298 C 63.41 -16.7 63.4 -16.69 63.40384 -16.68048 C 63.4 -16.67 63.4 -16.67 63.40131 -16.65767 C 63.4 -16.65 63.4 -16.64 63.39839 -16.63452 C 63.4 -16.63 63.4 -16.62 63.39507 -16.61097 C 63.39 -16.6 63.39 -16.6 63.39132 -16.58701 C 63.39 -16.58 63.39 -16.57 63.38712 -16.56258 C 63.39 -16.55 63.38 -16.55 63.38247 -16.53765 C 63.38 -16.53 63.38 -16.52 63.37733 -16.51219 C 63.38 -16.5 63.37 -16.49 63.37168 -16.48618 C 63.37 -16.48 63.37 -16.47 63.36551 -16.45957 C 63.36 -16.45 63.36 -16.44 63.35878 -16.43233 C 63.36 -16.42 63.35 -16.41 63.35148 -16.40445 C 63.35 -16.4 63.35 -16.39 63.34357 -16.3759 C 63.34 -16.37 63.34 -16.36 63.33504 -16.34665 C 63.33 -16.34 63.33 -16.33 63.32585 -16.31668 C 63.32 -16.31 63.32 -16.3 63.31597 -16.28596 C 63.31 -16.28 63.31 -16.27 63.30538 -16.25449 C 63.3 -16.24 63.3 -16.23 63.29405 -16.22224 C 63.29 -16.21 63.29 -16.2 63.28195 -16.18919 C 63.28 -16.18 63.27 -16.17 63.26903 -16.15533 C 63.26 -16.14 63.26 -16.13 63.25528 -16.12065 C 63.25 -16.11 63.25 -16.1 63.24065 -16.08514 C 63.22 -16.04 63.2 -15.99 63.17271 -15.93458 C 63.09 -16.1 63.43 -12.33 46.35627 -6.6645" />
    <path d="M -56.58809 -16.8341 C -56.59 -16.82 -56.59 -16.82 -56.58782 -16.80633 C -56.59 -16.8 -56.59 -16.79 -56.58702 -16.77848 C -56.59 -16.77 -56.59 -16.76 -56.58568 -16.75045 C -56.59 -16.74 -56.58 -16.73 -56.58378 -16.72213 C -56.58 -16.71 -56.58 -16.7 -56.58131 -16.69344 C -56.58 -16.68 -56.58 -16.67 -56.57824 -16.66429 C -56.58 -16.65 -56.58 -16.64 -56.57454 -16.63458 C -56.57 -16.62 -56.57 -16.61 -56.57018 -16.60425 C -56.57 -16.59 -56.57 -16.58 -56.56512 -16.5732 C -56.56 -16.56 -56.56 -16.55 -56.55931 -16.54136 C -56.56 -16.53 -56.56 -16.52 -56.55273 -16.50866 C -56.55 -16.5 -56.55 -16.49 -56.54531 -16.47502 C -56.54 -16.46 -56.54 -16.45 -56.537 -16.44039 C -56.53 -16.43 -56.53 -16.42 -56.52776 -16.4047 C -56.52 -16.39 -56.52 -16.38 -56.51751 -16.36789 C -56.51 -16.36 -56.51 -16.34 -56.50619 -16.3299 C -56.5 -16.32 -56.5 -16.3 -56.49192 -16.28549 C -56.49 -16.27 -56.48 -16.26 -56.47617 -16.23935 C -56.47 -16.22 -56.46 -16.21 -56.45881 -16.19145 C -56.45 -16.18 -56.45 -16.16 -56.43974 -16.14177 C -56.43 -16.12 -56.43 -16.11 -56.41887 -16.09031 C -56.41 -16.07 -56.4 -16.06 -56.39609 -16.03706 C -56.39 -16.02 -56.38 -16 -56.3713 -15.982 C -56.36 -15.96 -56.35 -15.94 -56.34443 -15.92514 C -56.34 -15.91 -56.33 -15.89 -56.31537 -15.86647 C -56.31 -15.85 -56.29 -15.83 -56.28406 -15.806 C -56.26 -15.77 -56.24 -15.72 -56.21431 -15.67968 C -56.16 -15.59 -56.11 -15.5 -56.04434 -15.40592 C -55.79 -15.02 -55.41 -14.56 -54.89665 -14.06835 C -60.04 -7.78 10.83 6.07 46.35627 -6.6645" />
    <path d="M 73.41191 -16.8341 C 73.41 -16.9 73.41 -16.97 73.41027 -17.03325 C 73.41 -17.1 73.41 -17.17 73.40511 -17.23237 C 73.4 -17.3 73.4 -17.37 73.39645 -17.43137 C 73.39 -17.5 73.39 -17.56 73.38432 -17.63017 C 73.38 -17.7 73.37 -17.76 73.36874 -17.82871 C 73.36 -17.89 73.36 -17.96 73.34972 -18.02692 C 73.34 -18.09 73.34 -18.16 73.32729 -18.22472 C 73.32 -18.29 73.31 -18.36 73.30148 -18.42205 C 73.29 -18.49 73.28 -18.55 73.27231 -18.61885 C 73.26 -18.68 73.25 -18.75 73.23981 -18.81507 C 73.23 -18.88 73.22 -18.95 73.20401 -19.01063 C 73.19 -19.08 73.18 -19.14 73.16494 -19.2055 C 73.15 -19.27 73.14 -19.34 73.12262 -19.39961 C 73.11 -19.46 73.09 -19.53 73.07709 -19.59291 C 73.06 -19.66 73.05 -19.72 73.02838 -19.78537 C 73.01 -19.85 72.99 -19.91 72.97654 -19.97693 C 72.96 -20.04 72.94 -20.1 72.92158 -20.16756 C 72.9 -20.23 72.88 -20.29 72.86356 -20.3572 C 72.84 -20.42 72.82 -20.48 72.8025 -20.54584 C 72.78 -20.61 72.76 -20.67 72.73846 -20.73342 C 72.72 -20.8 72.69 -20.86 72.67146 -20.91993 C 72.65 -20.98 72.63 -21.04 72.60155 -21.10532 C 72.58 -21.17 72.55 -21.23 72.52877 -21.28958 C 72.5 -21.35 72.48 -21.41 72.45318 -21.47268 C 72.43 -21.53 72.4 -21.59 72.3748 -21.65459 C 72.35 -21.72 72.32 -21.78 72.2937 -21.8353 C 72.24 -21.96 72.18 -22.07 72.1235 -22.19305 C 72.01 -22.43 71.88 -22.66 71.75252 -22.89355 C 70.14 -25.72 67.63 -28.01 64.49153 -30.04478 C 48.68 -41.09 4.16 -45.52 -28.44294 -39.75683" />
    <path d="M -48.84507 -34.40674 C -49.07 -34.32 -49.28 -34.24 -49.50085 -34.14864 C -49.72 -34.06 -49.93 -33.97 -50.1461 -33.8867 C -50.36 -33.8 -50.57 -33.71 -50.78073 -33.62092 C -50.99 -33.53 -51.2 -33.44 -51.40467 -33.35129 C -51.61 -33.26 -51.82 -33.17 -52.01784 -33.07777 C -52.22 -32.99 -52.42 -32.89 -52.62018 -32.80035 C -52.82 -32.71 -53.02 -32.61 -53.21162 -32.51901 C -53.41 -32.42 -53.6 -32.33 -53.7921 -32.23371 C -53.98 -32.14 -54.17 -32.04 -54.36158 -31.94443 C -54.55 -31.85 -54.74 -31.75 -54.91999 -31.65112 C -55.1 -31.55 -55.29 -31.45 -55.46729 -31.35376 C -55.65 -31.25 -55.83 -31.15 -56.00344 -31.05231 C -56.18 -30.95 -56.36 -30.85 -56.5284 -30.74671 C -56.7 -30.64 -56.87 -30.54 -57.04214 -30.43694 C -57.21 -30.33 -57.38 -30.23 -57.54462 -30.12294 C -57.71 -30.02 -57.87 -29.91 -58.03583 -29.80466 C -58.13 -29.74 -58.22 -29.68 -58.3129 -29.61927 C -58.4 -29.56 -58.5 -29.49 -58.58614 -29.43238 C -58.68 -29.37 -58.77 -29.31 -58.85556 -29.24393 C -58.94 -29.18 -59.03 -29.12 -59.12116 -29.05387 C -59.21 -28.99 -59.3 -28.93 -59.38296 -28.86217 C -59.47 -28.8 -59.56 -28.73 -59.64095 -28.66878 C -59.73 -28.6 -59.81 -28.54 -59.89512 -28.47365 C -59.98 -28.41 -60.06 -28.34 -60.14548 -28.27673 C -60.23 -28.21 -60.31 -28.14 -60.39201 -28.07799 C -60.47 -28.01 -60.55 -27.94 -60.6347 -27.87738 C -60.8 -27.74 -60.95 -27.61 -61.10847 -27.47036 C -61.42 -27.2 -61.72 -26.92 -62.00884 -26.6319 C -63.17 -25.49 -64.15 -24.26 -64.92486 -22.90032 C -65.97 -21.07 -66.59 -18.97 -66.58809 -16.8341 C -66.59 -16.77 -66.59 -16.7 -66.58644 -16.63494 C -66.59 -16.57 -66.58 -16.5 -66.58128 -16.43582 C -66.58 -16.37 -66.58 -16.3 -66.57263 -16.23682 C -66.57 -16.17 -66.57 -16.1 -66.5605 -16.03802 C -66.56 -15.97 -66.55 -15.91 -66.54491 -15.83948 C -66.54 -15.77 -66.53 -15.71 -66.5259 -15.64128 C -66.52 -15.58 -66.51 -15.51 -66.50347 -15.44348 C -66.5 -15.38 -66.49 -15.31 -66.47766 -15.24614 C -66.47 -15.18 -66.46 -15.11 -66.44849 -15.04934 C -66.44 -14.98 -66.43 -14.92 -66.41599 -14.85313 C -66.4 -14.79 -66.39 -14.72 -66.38019 -14.65756 C -66.37 -14.59 -66.35 -14.53 -66.34111 -14.4627 C -66.33 -14.4 -66.31 -14.33 -66.29879 -14.26859 C -66.28 -14.2 -66.27 -14.14 -66.25327 -14.07528 C -66.24 -14.01 -66.22 -13.95 -66.20456 -13.88282 C -66.19 -13.82 -66.17 -13.75 -66.15271 -13.69126 C -66.13 -13.63 -66.12 -13.56 -66.09776 -13.50064 C -66.08 -13.44 -66.06 -13.37 -66.03974 -13.31099 C -66.02 -13.25 -66 -13.19 -65.97868 -13.12236 C -65.96 -13.06 -65.94 -13 -65.91463 -12.93477 C -65.89 -12.87 -65.87 -12.81 -65.84763 -12.74827 C -65.82 -12.69 -65.8 -12.62 -65.77773 -12.56287 C -65.75 -12.5 -65.73 -12.44 -65.70495 -12.37861 C -65.68 -12.32 -65.66 -12.26 -65.62935 -12.19552 C -65.6 -12.13 -65.58 -12.07 -65.55098 -12.0136 C -65.52 -11.95 -65.5 -11.89 -65.46988 -11.83289 C -65.41 -11.71 -65.36 -11.59 -65.29967 -11.47514 C -65.18 -11.24 -65.06 -11 -64.9287 -10.77465 C -63.31 -7.95 -60.81 -5.65 -57.6677 -3.62341 C -46.64 6.34 6.45 14.29 49.17725 2.92936" />
    <path d="M 73.41191 -16.8341 C 73.41 -16.77 73.41 -16.7 73.41027 -16.63494 C 73.41 -16.57 73.41 -16.5 73.40511 -16.43582 C 73.4 -16.37 73.4 -16.3 73.39645 -16.23682 C 73.39 -16.17 73.39 -16.1 73.38432 -16.03802 C 73.38 -15.97 73.37 -15.91 73.36874 -15.83948 C 73.36 -15.77 73.36 -15.71 73.34972 -15.64128 C 73.34 -15.58 73.34 -15.51 73.32729 -15.44348 C 73.32 -15.38 73.31 -15.31 73.30148 -15.24614 C 73.29 -15.18 73.28 -15.11 73.27231 -15.04934 C 73.26 -14.98 73.25 -14.92 73.23981 -14.85313 C 73.23 -14.79 73.22 -14.72 73.20401 -14.65756 C 73.19 -14.59 73.18 -14.53 73.16494 -14.4627 C 73.15 -14.4 73.14 -14.33 73.12262 -14.26859 C 73.11 -14.2 73.09 -14.14 73.07709 -14.07528 C 73.06 -14.01 73.05 -13.95 73.02838 -13.88282 C 73.01 -13.82 72.99 -13.75 72.97654 -13.69126 C 72.96 -13.63 72.94 -13.56 72.92158 -13.50064 C 72.9 -13.44 72.88 -13.37 72.86356 -13.31099 C 72.84 -13.25 72.82 -13.19 72.8025 -13.12236 C 72.78 -13.06 72.76 -13 72.73846 -12.93477 C 72.72 -12.87 72.69 -12.81 72.67146 -12.74827 C 72.65 -12.69 72.63 -12.62 72.60155 -12.56287 C 72.58 -12.5 72.55 -12.44 72.52877 -12.37861 C 72.5 -12.32 72.48 -12.26 72.45318 -12.19552 C 72.43 -12.13 72.4 -12.07 72.3748 -12.0136 C 72.35 -11.95 72.32 -11.89 72.2937 -11.83289 C 72.27 -11.77 72.24 -11.71 72.20991 -11.6534 C 72.18 -11.59 72.15 -11.53 72.1235 -11.47514 C 72.01 -11.24 71.88 -11 71.75252 -10.77465 C 68.83 -5.53 62.07 -1.01 49.17725 2.92936" />
    <path d="M 63.41191 -16.8341 C 63.41 -16.84 63.41 -16.85 63.41164 -16.86186 C 63.41 -16.87 63.41 -16.88 63.41084 -16.88971 C 63.41 -16.9 63.41 -16.91 63.4095 -16.91775 C 63.41 -16.93 63.41 -16.94 63.40761 -16.94606 C 63.41 -16.96 63.41 -16.97 63.40514 -16.97475 C 63.4 -16.98 63.4 -16.99 63.40206 -17.00391 C 63.4 -17.01 63.4 -17.02 63.39836 -17.03361 C 63.4 -17.04 63.4 -17.05 63.394 -17.06395 C 63.39 -17.07 63.39 -17.08 63.38894 -17.095 C 63.39 -17.11 63.39 -17.12 63.38314 -17.12683 C 63.38 -17.14 63.38 -17.15 63.37655 -17.15954 C 63.37 -17.17 63.37 -17.18 63.36913 -17.19317 C 63.37 -17.2 63.36 -17.22 63.36083 -17.2278 C 63.36 -17.24 63.35 -17.25 63.35158 -17.26349 C 63.35 -17.28 63.34 -17.29 63.34133 -17.3003 C 63.34 -17.31 63.33 -17.33 63.33001 -17.33829 C 63.33 -17.35 63.32 -17.37 63.31575 -17.3827 C 63.31 -17.4 63.31 -17.41 63.29999 -17.42884 C 63.29 -17.44 63.29 -17.46 63.28263 -17.47675 C 63.28 -17.49 63.27 -17.51 63.26356 -17.52642 C 63.26 -17.54 63.25 -17.56 63.24269 -17.57788 C 63.24 -17.6 63.23 -17.61 63.21991 -17.63113 C 63.21 -17.65 63.2 -17.67 63.19513 -17.68619 C 63.19 -17.7 63.18 -17.72 63.16825 -17.74305 C 63.16 -17.76 63.15 -17.78 63.1392 -17.80172 C 63.13 -17.82 63.12 -17.84 63.10788 -17.86219 C 63.09 -17.9 63.06 -17.95 63.03813 -17.98851 C 62.99 -18.08 62.93 -18.17 62.86816 -18.26227 C 62.61 -18.64 62.24 -19.1 61.72047 -19.59984 C 64.82 -24.36 13.42 -38.13 -28.44294 -29.60012" />
    <path d="M -44.8203 -25.23896 C -44.97 -25.18 -45.13 -25.12 -45.27574 -25.06436 C -45.43 -25.01 -45.58 -24.95 -45.72335 -24.8885 C -45.87 -24.83 -46.02 -24.77 -46.16302 -24.71144 C -46.31 -24.65 -46.45 -24.59 -46.59464 -24.53322 C -46.74 -24.47 -46.88 -24.41 -47.01809 -24.35391 C -47.16 -24.29 -47.3 -24.23 -47.43328 -24.17357 C -47.57 -24.11 -47.71 -24.05 -47.84009 -23.99227 C -47.97 -23.93 -48.11 -23.87 -48.23844 -23.8101 C -48.37 -23.75 -48.5 -23.69 -48.6282 -23.62713 C -48.76 -23.57 -48.88 -23.5 -49.00929 -23.44346 C -49.13 -23.38 -49.26 -23.32 -49.38161 -23.25918 C -49.5 -23.2 -49.63 -23.14 -49.74507 -23.07439 C -49.86 -23.01 -49.98 -22.95 -50.09956 -22.8892 C -50.22 -22.83 -50.33 -22.77 -50.445 -22.70373 C -50.56 -22.64 -50.67 -22.58 -50.78129 -22.51808 C -50.89 -22.46 -51 -22.39 -51.10835 -22.33239 C -51.22 -22.27 -51.32 -22.21 -51.4261 -22.14678 C -51.53 -22.08 -51.63 -22.02 -51.73443 -21.9614 C -51.84 -21.9 -51.94 -21.84 -52.03328 -21.77638 C -52.13 -21.71 -52.23 -21.65 -52.32256 -21.59187 C -52.42 -21.53 -52.51 -21.47 -52.60218 -21.40802 C -52.69 -21.35 -52.78 -21.29 -52.87208 -21.225 C -52.96 -21.16 -53.05 -21.1 -53.13217 -21.04297 C -53.22 -20.98 -53.3 -20.92 -53.38238 -20.8621 C -53.46 -20.8 -53.54 -20.74 -53.62264 -20.68256 C -53.7 -20.62 -53.78 -20.56 -53.85287 -20.50455 C -54 -20.39 -54.15 -20.27 -54.28298 -20.15384 C -54.56 -19.92 -54.8 -19.7 -55.01995 -19.47935 C -55.92 -18.58 -56.33 -17.86 -56.48144 -17.41417 C -56.56 -17.17 -56.59 -17 -56.58809 -16.8341" />
</svg>