<svg viewBox="0 0 1000 1000" xmlns="http://www.w3.org/2000/svg"><path d="M6486.008107341579,-2586.3786557119292 L6515.0799185297055,-2574.576903683138 M6515.0799185297055,-2574.576903683138 L6539.808857162078,-2560.9529166739676 M6539.808857162078,-2560.9529166739676 L6559.454827428759,-2545.729059643619 M6559.454827428759,-2545.729059643619 L6573.311683784458,-2529.1839299490716 M6573.311683784458,-2529.1839299490716 L6580.736722774004,-2511.6575555212776 M6580.736722774004,-2511.6575555212776 L6581.188526880841,-2493.553874135839 M6581.188526880841,-2493.553874135839 L6574.2721154944,-2475.3390436250447 M6574.2721154944,-2475.3390436250447 L6559.788364503216,-2457.5340004861473 M6559.788364503216,-2457.5340004861473 L6537.783228872962,-2440.6999588390086 M6537.783228872962,-2440.6999588390086 L6508.590176830527,-2425.4163156770883 M6508.590176830527,-2425.4163156770883 L6472.858239404087,-2412.251333848828 M6472.858239404087,-2412.251333848828 L6431.558037855744,-2401.7275459134225 M6431.558037855744,-2401.7275459134225 L6385.959845038803,-2394.2851152585786 M6385.959845038803,-2394.2851152585786 L6337.581525614723,-2390.2475613536253 M6337.581525614723,-2390.2475613536253 L6288.108586774045,-2389.7946979722356 M6288.108586774045,-2389.7946979722356 L6239.294127912852,-2392.9468697324182 M6239.294127912852,-2392.9468697324182 L6192.850505991905,-2399.5631934528374 M6192.850505991905,-2399.5631934528374 L6150.345916405334,-2409.353893343941 M6150.345916405334,-2409.353893343941 L6113.118602189979,-2421.9049695570575 M6113.118602189979,-2421.9049695570575 L6082.217331679853,-2436.7110607120776 M6082.217331679853,-2436.7110607120776 L6058.37197214907,-2453.2119386303216 M6058.37197214907,-2453.2119386303216 L6041.992982052284,-2470.8279916032407 M6041.992982052284,-2470.8279916032407 L6033.19462095522,-2488.9910889001903 M6033.19462095522,-2488.9910889001903 L6031.834622168859,-2507.16858077311 M6031.834622168859,-2507.16858077311 L6037.562196550415,-2524.8796490525015 M6037.562196550415,-2524.8796490525015 L6049.86811168286,-2541.7044468036293 M6049.86811168286,-2541.7044468036293 L6068.131099202732,-2557.2870674852584 M6068.131099202732,-2557.2870674852584 L6091.65777762946,-2571.3339563484296 M6091.65777762946,-2571.3339563484296 L6119.714240444333,-2583.60927869305 M6119.714240444333,-2583.60927869305 L6151.549225509652,-2593.9285979078604 M6151.549225509652,-2593.9285979078604 L6186.409410246065,-2602.152081198379 M6186.409410246065,-2602.152081198379 L6223.547946778658,-2608.1780111785206 M6223.547946778658,-2608.1780111785206 L6262.227706346345,-2611.937217824998 M6262.227706346345,-2611.937217824998 L6301.720436979531,-2613.3888165153326 M6301.720436979531,-2613.3888165153326 L6341.303365816275,-2612.517475508267 M6341.303365816275,-2612.517475508267 L6380.254357332555,-2609.332370524345 M6380.254357332555,-2609.332370524345 L6417.846917081968,-2603.8678019732347 M6417.846917081968,-2603.8678019732347 L6453.346345166685,-2596.1855279009314 M6453.346345166685,-2596.1855279009314 L6486.008107341579,-2586.3786557119292 M6329.858978085747,-2523.2591112736923 L6323.604397238818,-2525.20691205741 M6323.604397238818,-2525.20691205741 L6316.399094602406,-2526.4988773646937 M6316.399094602406,-2526.4988773646937 L6308.649903328961,-2527.0652441749194 M6308.649903328961,-2527.0652441749194 L6300.790581972846,-2526.87560647424 M6300.790581972846,-2526.87560647424 L6293.260297150899,-2525.9401316106687 M6293.260297150899,-2525.9401316106687 L6286.482013370374,-2524.3091607423225 M6286.482013370374,-2524.3091607423225 L6280.8411881642205,-2522.0711607028934 M6280.8411881642205,-2522.0711607028934 L6276.665321516396,-2519.348983244103 M6276.665321516396,-2519.348983244103 L6274.205078878684,-2516.294339081596 M6274.205078878684,-2516.294339081596 L6273.618029800742,-2513.0804656156033 M6273.618029800742,-2513.0804656156033 L6274.956237586808,-2509.8930689717795 M6274.956237586808,-2509.8930689717795 L6278.159162093666,-2506.9198300482494 M6278.159162093666,-2506.9198300482494 L6283.053163454172,-2504.3389820953525 M6283.053163454172,-2504.3389820953525 L6289.358607897094,-2502.3077266110495 M6289.358607897094,-2502.3077266110495 L6296.704892339441,-2500.9514202999208 M6296.704892339441,-2500.9514202999208 L6304.652887855656,-2500.354570653118 M6304.652887855656,-2500.354570653118 L6312.723283404647,-2500.554570090762 M6312.723283404647,-2500.554570090762 L6320.428546373768,-2501.5388764567347 M6320.428546373768,-2501.5388764567347 L6327.305622657927,-2503.245957335137 M6327.305622657927,-2503.245957335137 L6332.946429270682,-2505.569906116632 M6332.946429270682,-2505.569906116632 L6337.02348229036,-2508.368181217368 M6337.02348229036,-2508.368181217368 L6339.308759967518,-2511.4716428058177 M6339.308759967518,-2511.4716428058177 L6339.684770958803,-2514.6958744490403 M6339.684770958803,-2514.6958744490403 L6338.147786764683,-2517.8527982364785 M6338.147786764683,-2517.8527982364785 L6334.803875969519,-2520.7617110700025 M6334.803875969519,-2520.7617110700025 L6329.858978085747,-2523.2591112736923 M6486.008107341579,-2586.3786557119292 L6488.767029470584,-2666.0059471671466 M6488.767029470584,-2666.0059471671466 L6518.327677246862,-2655.0528869119835 M6518.327677246862,-2655.0528869119835 L6543.495710617477,-2642.4032792335756 M6543.495710617477,-2642.4032792335756 L6563.517486027537,-2628.2614311702373 M6563.517486027537,-2628.2614311702373 L6577.67173466613,-2612.8840823860996 M6577.67173466613,-2612.8840823860996 L6585.299551169357,-2596.585496796519 M6585.299551169357,-2596.585496796519 L6585.843107571438,-2579.740046505863 M6585.843107571438,-2579.740046505863 L6578.89208403082,-2562.780906806904 M6578.89208403082,-2562.780906806904 L6564.2347481229335,-2546.1933437954876 M6564.2347481229335,-2546.1933437954876 L6541.9091049113595,-2530.501322170828 M6541.9091049113595,-2530.501322170828 L6512.2472997064615,-2516.2468830643265 M6512.2472997064615,-2516.2468830643265 L6475.905352943732,-2503.9626028569214 M6475.905352943732,-2503.9626028569214 L6433.8702076093,-2494.1389438159126 M6433.8702076093,-2494.1389438159126 L6387.437792968604,-2487.1895605229533 M6387.437792968604,-2487.1895605229533 L6338.159740358922,-2483.4187643611863 M6338.159740358922,-2483.4187643611863 L6287.760999047069,-2482.99578956024 M6287.760999047069,-2482.99578956024 L6238.036438571796,-2485.939788075624 M6238.036438571796,-2485.939788075624 L6190.738779691923,-2492.1181538402952 M6190.738779691923,-2492.1181538402952 L6147.4716737840945,-2501.258268276091 M6147.4716737840945,-2501.258268276091 L6109.601212769044,-2512.9709644269187 M6109.601212769044,-2512.9709644269187 L6078.194866105902,-2526.7817385530657 M6078.194866105902,-2526.7817385530657 L6053.991762148619,-2542.1653312169265 M6053.991762148619,-2542.1653312169265 L6037.402975718025,-2558.579245014349 M6037.402975718025,-2558.579245014349 L6028.53629314489,-2575.4927767279296 M6028.53629314489,-2575.4927767279296 L6027.237818096065,-2592.409459910039 M6027.237818096065,-2592.409459910039 L6033.141935151856,-2608.882214517709 M6033.141935151856,-2608.882214517709 L6045.723134027491,-2624.521661899038 M6045.723134027491,-2624.521661899038 L6064.343794626619,-2638.998629317471 M6064.343794626619,-2638.998629317471 L6088.295082369567,-2652.042393643281 M6088.295082369567,-2652.042393643281 L6116.829120664633,-2663.4361090189395 M6116.829120664633,-2663.4361090189395 L6149.182419389278,-2673.0106984273825 M6149.182419389278,-2673.0106984273825 L6184.591176576914,-2680.638350820696 M6184.591176576914,-2680.638350820696 L6222.299638154182,-2686.2263479548583 M6222.299638154182,-2686.2263479548583 L6261.563046741109,-2689.7117877085525 M6261.563046741109,-2689.7117877085525 L6301.646426452557,-2691.0575560082216 M6301.646426452557,-2691.0575560082216 L6341.8207707381625,-2690.2497488696595 M6341.8207707381625,-2690.2497488696595 L6381.357765240374,-2687.2966866511497 M6381.357765240374,-2687.2966866511497 L6419.524354040567,-2682.2294961650723 M6419.524354040567,-2682.2294961650723 L6455.5784719767125,-2675.1043108690938 M6455.5784719767125,-2675.1043108690938 L6488.767029470584,-2666.0059471671466 M6330.286972866017,-2617.6557039187605 L6323.916283803592,-2619.4497453689896 M6323.916283803592,-2619.4497453689896 L6316.5779754451205,-2620.639650887735 M6316.5779754451205,-2620.639650887735 L6308.686165183334,-2621.1612589929423 M6308.686165183334,-2621.1612589929423 L6300.682283032899,-2620.9866091668005 M6300.682283032899,-2620.9866091668005 L6293.0132437190205,-2620.125050737687 M6293.0132437190205,-2620.125050737687 L6286.109529089841,-2618.6228787508257 M6286.109529089841,-2618.6228787508257 L6280.363567069324,-2616.561465968395 M6280.363567069324,-2616.561465968395 L6276.108949447555,-2614.0538467383253 M6276.108949447555,-2614.0538467383253 L6273.601209817416,-2611.239661359248 M6273.601209817416,-2611.239661359248 L6273.0012197988835,-2608.278433924504 M6273.0012197988835,-2608.278433924504 L6274.362468330143,-2605.341250310537 M6274.362468330143,-2605.341250310537 L6277.623729207496,-2602.601097145467 M6277.623729207496,-2602.601097145467 L6282.60845149651,-2600.222326514451 M6282.60845149651,-2600.222326514451 L6289.031917745857,-2598.3499543850094 M6289.031917745857,-2598.3499543850094 L6296.516513624367,-2597.0996581565946 M6296.516513624367,-2597.0996581565946 L6304.614610601648,-2596.5494386944174 M6304.614610601648,-2596.5494386944174 L6312.837511354579,-2596.733814107185 M6312.837511354579,-2596.733814107185 L6320.688114315378,-2597.6412060174634 M6320.688114315378,-2597.6412060174634 L6327.694339057475,-2599.214815054451 M6327.694339057475,-2599.214815054451 L6333.4402810587435,-2601.356899299247 M6333.4402810587435,-2601.356899299247 L6337.592365823139,-2603.9359435337074 M6337.592365823139,-2603.9359435337074 L6339.9185560042015,-2606.795948685266 M6339.9185560042015,-2606.795948685266 L6340.299566295285,-2609.7668982383866 M6340.299566295285,-2609.7668982383866 L6338.732061017771,-2612.675480214927 M6338.732061017771,-2612.675480214927 L6335.324507794277,-2615.3552571956125 M6335.324507794277,-2615.3552571956125 L6330.286972866017,-2617.6557039187605 M6330.286972866017,-2617.6557039187605 L6329.858978085747,-2523.2591112736923 M6460.309736108782,-2655.481111580943 L6486.772515025332,-2645.299916135519 M6486.772515025332,-2645.299916135519 L6508.6526304100125,-2633.493973586088 M6508.6526304100125,-2633.493973586088 L6525.173344608675,-2620.313883531907 M6525.173344608675,-2620.313883531907 L6535.62567882526,-2606.0691301968623 M6535.62567882526,-2606.0691301968623 L6539.406724074323,-2591.130496856261 M6539.406724074323,-2591.130496856261 L6536.0661422530975,-2575.9286107552844 M6536.0661422530975,-2575.9286107552844 L6525.357839092599,-2560.9469788968395 M6525.357839092599,-2560.9469788968395 L6507.291777095795,-2546.7081940688076 M6507.291777095795,-2546.7081940688076 L6482.178998336908,-2533.7525861177337 M6482.178998336908,-2533.7525861177337 L6450.661184060841,-2522.6097597253593 M6450.661184060841,-2522.6097597253593 L6413.716376040169,-2513.7648317130597 M6413.716376040169,-2513.7648317130597 L6372.634190401187,-2507.622769880343 M6372.634190401187,-2507.622769880343 L6328.958157222378,-2504.4752993089323 M6328.958157222378,-2504.4752993089323 L6284.39818069001,-2504.4752993089323 M6284.39818069001,-2504.4752993089323 L6240.7221475112,-2507.622769880343 M6240.7221475112,-2507.622769880343 L6199.639961872218,-2513.7648317130597 M6199.639961872218,-2513.7648317130597 L6162.695153851546,-2522.6097597253593 M6162.695153851546,-2522.6097597253593 L6131.177339575479,-2533.7525861177337 M6131.177339575479,-2533.7525861177337 L6106.064560816593,-2546.7081940688076 M6106.064560816593,-2546.7081940688076 L6087.998498819788,-2560.9469788968395 M6087.998498819788,-2560.9469788968395 L6077.2901956592905,-2575.9286107552844 M6077.2901956592905,-2575.9286107552844 L6073.949613838064,-2591.130496856261 M6073.949613838064,-2591.130496856261 L6077.730659087127,-2606.0691301968623 M6077.730659087127,-2606.0691301968623 L6088.1829933037125,-2620.313883531907 M6088.1829933037125,-2620.313883531907 L6104.7037075023745,-2633.493973586088 M6104.7037075023745,-2633.493973586088 L6126.583822887055,-2645.299916135519 M6126.583822887055,-2645.299916135519 L6153.046601803606,-2655.4811115809434 M6153.046601803606,-2655.4811115809434 L6183.276753692706,-2663.841097163611 M6183.276753692706,-2663.841097163611 L6216.440678114833,-2670.231840328292 M6216.440678114833,-2670.231840328292 L6251.698933647255,-2674.5480905486997 M6251.698933647255,-2674.5480905486997 L6288.212395733841,-2676.722585795213 M6288.212395733841,-2676.722585795213 L6325.143942178547,-2676.722585795213 M6325.143942178547,-2676.722585795213 L6361.657404265132,-2674.5480905486997 M6361.657404265132,-2674.5480905486997 L6396.915659797554,-2670.2318403282925 M6396.915659797554,-2670.2318403282925 L6430.079584219681,-2663.841097163611 M6430.079584219681,-2663.841097163611 L6460.309736108782,-2655.481111580943 M6330.286972866017,-2617.6557039187605 L6342.6805931414865,-2647.3201407335673 M6342.6805931414865,-2647.3201407335673 L6345.91904224305,-2655.071451448631 M6392.258510680815,-2692.349237024541 L6386.911311482205,-2682.232818457377 M6386.911311482205,-2682.232818457377 L6380.800076051314,-2672.5411122720784 M6380.800076051314,-2672.5411122720784 L6375.333020586053,-2665.370615521291 M6375.333020586053,-2665.370615521291 L6371.82021099544,-2661.5767330638223 M6371.82021099544,-2661.5767330638223 L6367.534292756122,-2657.921046560994 M6367.534292756122,-2657.921046560994 L6362.920368837264,-2655.251064089635 M6362.920368837264,-2655.251064089635 L6357.8609732191135,-2653.767853088813 M6357.8609732191135,-2653.767853088813 L6352.262225484968,-2653.642815608122 M6352.262225484968,-2653.642815608122 L6349.140577726529,-2654.1566580725503 M6349.140577726529,-2654.1566580725503 L6345.91904224305,-2655.071451448631 M6324.2996318460055,-2714.1450177927136 L6303.63400168753,-2714.7224385865543 M6303.63400168753,-2714.7224385865543 L6283.130728855509,-2713.668800419701 M6283.130728855509,-2713.668800419701 L6263.888356014452,-2711.0341525243866 M6263.888356014452,-2711.0341525243866 L6246.960186190185,-2706.9455766948463 M6246.960186190185,-2706.9455766948463 L6233.311658147314,-2701.605781252145 M6233.311658147314,-2701.605781252145 L6223.772976243,-2695.289673369149 M6223.772976243,-2695.289673369149 L6218.987237881526,-2688.337466948141 M6218.987237881526,-2688.337466948141 L6219.356670323482,-2681.142746657419 M6219.356670323482,-2681.142746657419 L6224.992699229288,-2674.1342500971846 M6224.992699229288,-2674.1342500971846 L6235.6779767077105,-2667.750876780635 M6235.6779767077105,-2667.750876780635 L6250.849973649079,-2662.4109148662787 M6250.849973649079,-2662.4109148662787 L6269.614900603436,-2658.478029436467 M6269.614900603436,-2658.478029436467 L6290.797077171198,-2656.2281590633957 M6290.797077171198,-2656.2281590633957 L6313.022890134171,-2655.8222700004026 M6313.022890134171,-2655.8222700004026 L6334.8311814408735,-2657.289643238692 M6334.8311814408735,-2657.289643238692 L6354.795985721518,-2660.5247717193884 M6354.795985721518,-2660.5247717193884 L6371.644196297096,-2665.2984490499925 M6371.644196297096,-2665.2984490499925 L6384.352346615976,-2671.2809912146013 M6384.352346615976,-2671.2809912146013 L6392.211414799292,-2678.073425606473 M6392.211414799292,-2678.073425606473 L6394.85569032737,-2685.2416929869596 M6394.85569032737,-2685.2416929869596 L6392.258510680815,-2692.349237024541 M6345.91904224305,-2655.071451448631 L6339.301431737364,-2658.0879778481294 M6339.301431737364,-2658.0879778481294 L6333.033346677318,-2662.4191028159717 M6333.033346677318,-2662.4191028159717 L6327.59815109641,-2667.733671379867 M6327.59815109641,-2667.733671379867 L6323.329142507775,-2673.7443440141788 M6323.329142507775,-2673.7443440141788 L6320.452126298422,-2680.0827706084947 M6320.452126298422,-2680.0827706084947 L6318.928279489793,-2686.5016896560887 M6318.928279489793,-2686.5016896560887 L6318.593094152084,-2692.9223441258464 M6318.593094152084,-2692.9223441258464 L6319.27237456527,-2699.228043325072 M6319.27237456527,-2699.228043325072 L6321.272323665039,-2706.8394625009137 M6321.272323665039,-2706.8394625009137 L6324.2996318460055,-2714.1450177927136 M6460.309736108782,-2655.481111580943 L6461.272943426353,-2688.3643492013707 M6461.272943426353,-2688.3643492013707 L6452.018977520097,-2692.4677234657356 M6452.018977520097,-2692.4677234657356 L6443.351908333579,-2698.5334732095102 M6443.351908333579,-2698.5334732095102 L6437.166014597759,-2704.4055450677447 M6437.166014597759,-2704.4055450677447 L6432.271676776207,-2710.273059898201 M6432.271676776207,-2710.273059898201 L6428.155302731652,-2716.439284928246 M6428.155302731652,-2716.439284928246 L6423.8830479276185,-2724.9399217167424 M6423.8830479276185,-2724.9399217167424 L6420.7262105248465,-2734.6762372978246 M6420.7262105248465,-2734.6762372978246 L6419.301985476718,-2744.4024196233568 M6419.301985476718,-2744.4024196233568 L6419.606741843116,-2753.931575576922 M6419.606741843116,-2753.931575576922 L6421.646333171372,-2763.065696767985 M6421.646333171372,-2763.065696767985 L6425.433931645799,-2771.565487811547 M6425.433931645799,-2771.565487811547 L6430.99037652548,-2779.122384282744 M6430.99037652548,-2779.122384282744 L6438.319412941096,-2785.289126738881 M6438.319412941096,-2785.289126738881 L6446.373799840649,-2789.1168374429844 M6446.373799840649,-2789.1168374429844 L6454.599234316319,-2790.6156702910203 M6454.599234316319,-2790.6156702910203 L6459.404064433668,-2790.4626560529396 M6459.404064433668,-2790.4626560529396 L6464.236421531212,-2789.535460474442 M6464.236421531212,-2789.535460474442 L6467.840695282928,-2912.5828959171267 M6229.3654164079335,-2925.08311953038 L6264.471022117487,-2927.391778192612 M6264.471022117487,-2927.391778192612 L6300.397247604728,-2928.3257665348183 M6300.397247604728,-2928.3257665348183 L6336.444949550648,-2927.87356335645 M6336.444949550648,-2927.87356335645 L6371.915449386371,-2926.04072593401 M6371.915449386371,-2926.04072593401 L6406.108075709045,-2922.8501961429165 M6406.108075709045,-2922.8501961429165 L6438.318749726568,-2918.3435182588755 M6438.318749726568,-2918.3435182588755 L6467.840695282928,-2912.5828959171267 M6229.3654164079335,-2925.08311953038 L6227.442254640483,-2904.7109751248163 M6227.442254640483,-2904.7109751248163 L6221.230528077804,-2884.560808986859 M6221.230528077804,-2884.560808986859 L6211.016978725096,-2865.0083901355583 M6211.016978725096,-2865.0083901355583 L6198.270592835933,-2847.729420899937 M6198.270592835933,-2847.729420899937 L6183.90436914157,-2832.7919257517055 M6183.90436914157,-2832.7919257517055 L6167.455990381708,-2819.471505886138 M6167.455990381708,-2819.471505886138 L6149.639233052684,-2808.7369808665408 M6149.639233052684,-2808.7369808665408 L6133.581479693481,-2802.411875284893 M6133.581479693481,-2802.411875284893 L6120.283983043089,-2800.137923586067 M6120.283983043089,-2800.137923586067 L6108.863346123768,-2801.1948598551844 M6108.863346123768,-2801.1948598551844 L6099.530516483125,-2805.2097077737853 M6099.530516483125,-2805.2097077737853 L6092.116741443641,-2811.6760704608914 M6092.116741443641,-2811.6760704608914 L6086.321851934037,-2820.1531563707017 M6086.321851934037,-2820.1531563707017 L6081.852643596502,-2830.303819264415 M6081.852643596502,-2830.303819264415 L6078.465495610519,-2841.8749908352784 M6078.465495610519,-2841.8749908352784 L6075.976177853811,-2854.6632122012925 M6075.976177853811,-2854.6632122012925 L6074.259169665767,-2868.4790667154853 M6074.259169665767,-2868.4790667154853 L6073.641774667592,-2876.0678565247667 M6073.641774667592,-2876.0678565247667 L6073.211806579785,-2883.8636149045687 M6363.738410609079,-2802.2935248672875 L6319.278480704214,-2800.621570915189 M6319.278480704214,-2800.621570915189 L6274.357348817648,-2801.0952973042567 M6274.357348817648,-2801.0952973042567 L6230.616981951617,-2803.6931498595077 M6230.616981951617,-2803.6931498595077 L6189.626848734267,-2808.2981899643064 M6189.626848734267,-2808.2981899643064 L6152.792084455215,-2814.7081246239286 M6152.792084455215,-2814.7081246239286 L6121.280676264536,-2822.651902376847 M6121.280676264536,-2822.651902376847 L6095.976831442826,-2831.8103465988597 M6095.976831442826,-2831.8103465988597 L6077.462152843426,-2841.8380103682134 M6077.462152843426,-2841.8380103682134 L6066.022319193869,-2852.383699056312 M6066.022319193869,-2852.383699056312 L6061.673685581416,-2863.1077415575373 M6061.673685581416,-2863.1077415575373 L6064.202790480305,-2873.695050966993 M6064.202790480305,-2873.695050966993 L6073.211806579785,-2883.8636149045687 M6543.547797594299,-2848.060452873412 L6541.877837346718,-2824.880023741931 M6541.877837346718,-2824.880023741931 L6538.7230963634975,-2801.055724052217 M6538.7230963634975,-2801.055724052217 L6533.6839802824325,-2777.1147924173365 M6533.6839802824325,-2777.1147924173365 L6526.7344669513195,-2755.3654372251917 M6526.7344669513195,-2755.3654372251917 L6517.65323213882,-2736.2385992160985 M6517.65323213882,-2736.2385992160985 L6505.3007536592395,-2719.107963697858 M6505.3007536592395,-2719.107963697858 L6489.115611178267,-2705.5320865552508 M6489.115611178267,-2705.5320865552508 L6471.4896583773125,-2698.0320097162526 M6471.4896583773125,-2698.0320097162526 L6454.1865191232955,-2696.06058403219 M6454.1865191232955,-2696.06058403219 L6436.867740975038,-2698.59399255192 M6436.867740975038,-2698.59399255192 L6420.596169441049,-2704.935028527954 M6420.596169441049,-2704.935028527954 L6405.987401457464,-2714.2272472935556 M6405.987401457464,-2714.2272472935556 L6393.343524293911,-2725.7438528808934 M6393.343524293911,-2725.7438528808934 L6382.821459308462,-2738.9344699773237 M6382.821459308462,-2738.9344699773237 L6374.520725323208,-2753.3922661420443 M6374.520725323208,-2753.3922661420443 L6368.524380673202,-2768.805099645157 M6368.524380673202,-2768.805099645157 L6364.908843514159,-2784.9105525975115 M6364.908843514159,-2784.9105525975115 L6363.9854242483725,-2793.5510829995305 M6363.9854242483725,-2793.5510829995305 L6363.738410609079,-2802.2935248672875 M6467.840695282928,-2912.5828959171267 L6493.968468957566,-2905.653945186862 M6493.968468957566,-2905.653945186862 L6516.006568853577,-2897.6689086455735 M6516.006568853577,-2897.6689086455735 L6533.283652447007,-2888.7699788207556 M6533.283652447007,-2888.7699788207556 L6545.173233104575,-2879.132271196122 M6545.173233104575,-2879.132271196122 L6551.121249435344,-2868.9658137488977 M6551.121249435344,-2868.9658137488977 L6550.680120346486,-2858.5158165424004 M6550.680120346486,-2858.5158165424004 L6543.547797594299,-2848.060452873412 M6464.236421531212,-2789.535460474442 L6473.28440071088,-2785.50726126515 M6473.28440071088,-2785.50726126515 L6481.066872820727,-2779.0844575442516 M6481.066872820727,-2779.0844575442516 L6486.224017057628,-2772.695976021237 M6486.224017057628,-2772.695976021237 L6490.069292733048,-2766.2536025623 M6490.069292733048,-2766.2536025623 L6493.135021045558,-2759.4765263470986 M6493.135021045558,-2759.4765263470986 L6496.132920294568,-2750.188257902471 M6496.132920294568,-2750.188257902471 L6498.029464883703,-2740.7639347650697 M6498.029464883703,-2740.7639347650697 L6498.849657481458,-2732.4412528902353 M6498.849657481458,-2732.4412528902353 L6498.8817989729005,-2724.3904465591304 M6498.8817989729005,-2724.3904465591304 L6498.144475502043,-2716.7333026338542 M6498.144475502043,-2716.7333026338542 L6496.630330230143,-2709.5893293243516 M6496.630330230143,-2709.5893293243516 L6494.306289175196,-2703.0875467119486 M6494.306289175196,-2703.0875467119486 L6491.110628301246,-2697.372780613852 M6491.110628301246,-2697.372780613852 L6486.956350974419,-2692.6289320454925 M6486.956350974419,-2692.6289320454925 L6481.739460787526,-2689.094551814511 M6481.739460787526,-2689.094551814511 L6475.33497136169,-2687.072357665406 M6475.33497136169,-2687.072357665406 L6468.63244207148,-2686.8621144572744 M6468.63244207148,-2686.8621144572744 L6461.272943426353,-2688.3643492013707 M6392.258510680815,-2692.349237024541 L6463.51010794218,-2716.8443338572406 M6324.2996318460055,-2714.1450177927136 L6395.6904418993,-2737.3710975425147 M6463.51010794218,-2716.8443338572406 L6480.786835268979,-2706.1475595229103 M6480.786835268979,-2706.1475595229103 L6491.75606913006,-2694.373079205439 M6491.75606913006,-2694.373079205439 L6495.720634367747,-2681.9239878045514 M6495.720634367747,-2681.9239878045514 L6492.200617934524,-2669.2679667956118 M6492.200617934524,-2669.2679667956118 L6481.000052760629,-2656.9254136625896 M6481.000052760629,-2656.9254136625896 L6462.2696058364145,-2645.448725993236 M6462.2696058364145,-2645.448725993236 L6436.554103735562,-2635.3923540266214 M6436.554103735562,-2635.3923540266214 L6404.81179189826,-2627.27522606027 M6404.81179189826,-2627.27522606027 L6368.394451598247,-2621.5392059166575 M6368.394451598247,-2621.5392059166575 L6328.982628220903,-2618.5091310392995 M6328.982628220903,-2618.5091310392995 L6288.47814293459,-2618.3608406124504 M6288.47814293459,-2618.3608406124504 L6248.865661205862,-2621.1030268432905 M6248.865661205862,-2621.1030268432905 L6212.062148282329,-2626.5762819842084 M6212.062148282329,-2626.5762819842084 L6179.776208548831,-2634.4696704298667 M6179.776208548831,-2634.4696704298667 L6153.396802366006,-2644.351487644644 M6153.396802366006,-2644.351487644644 L6133.923847178776,-2655.7087223390404 M6133.923847178776,-2655.7087223390404 L6121.9439361141685,-2667.9887199584446 M6121.9439361141685,-2667.9887199584446 L6117.646052469643,-2680.6373621463927 M6117.646052469643,-2680.6373621463927 L6120.866790096277,-2693.1298848264146 M6120.866790096277,-2693.1298848264146 L6131.15204778549,-2704.9925667362468 M6131.15204778549,-2704.9925667362468 L6147.8238135767515,-2715.8154269690594 M6147.8238135767515,-2715.8154269690594 L6170.042690715181,-2725.2573559701164 M6170.042690715181,-2725.2573559701164 L6196.8609436914,-2733.0457856027424 M6196.8609436914,-2733.0457856027424 L6227.263482057546,-2738.9730073350293 M6227.263482057546,-2738.9730073350293 L6260.196880994052,-2742.891123128724 M6260.196880994052,-2742.891123128724 L6294.588118866244,-2744.7071317368777 M6294.588118866244,-2744.7071317368777 L6329.355742825732,-2744.379186162237 M6329.355742825732,-2744.379186162237 L6363.416420826054,-2741.9147859323075 M6363.416420826054,-2741.9147859323075 L6395.6904418993,-2737.3710975425147 M6461.272943426353,-2688.3643492013707 L6431.924475130113,-2677.9229567726898 M6434.356442240288,-2780.200980960066 L6443.994804190565,-2775.9561735553093 M6443.994804190565,-2775.9561735553093 L6453.050845398412,-2768.8875625762066 M6453.050845398412,-2768.8875625762066 L6460.968965063533,-2759.4028407156147 M6460.968965063533,-2759.4028407156147 L6467.259088822449,-2748.06941090248 M6467.259088822449,-2748.06941090248 L6471.532276213509,-2735.57767848951 M6471.532276213509,-2735.57767848951 L6473.528955013439,-2722.6933732326283 M6473.528955013439,-2722.6933732326283 L6473.136655618551,-2710.2035958873544 M6473.136655618551,-2710.2035958873544 L6470.395606863045,-2698.861980805334 M6470.395606863045,-2698.861980805334 L6465.492130753274,-2689.338421392246 M6465.492130753274,-2689.338421392246 L6458.741342786544,-2682.177872219714 M6458.741342786544,-2682.177872219714 L6450.561807300763,-2677.7710340039403 M6450.561807300763,-2677.7710340039403 L6441.445249317647,-2676.3378138233265 M6441.445249317647,-2676.3378138233265 L6431.924475130113,-2677.9229567726898 M6431.924475130113,-2677.9229567726898 L6422.541996361947,-2682.4021849107608 M6422.541996361947,-2682.4021849107608 L6413.8211652341515,-2689.496481824063 M6413.8211652341515,-2689.496481824063 L6406.240789287126,-2698.792224947623 M6406.240789287126,-2698.792224947623 L6400.213540967389,-2709.7652872087324 M6400.213540967389,-2709.7652872087324 L6396.068106218115,-2721.8078444145567 M6396.068106218115,-2721.8078444145567 L6394.034782691301,-2734.2571129323483 M6394.034782691301,-2734.2571129323483 L6394.234458560345,-2746.4256812223466 M6394.234458560345,-2746.4256812223466 L6396.671067865448,-2757.6334852939103 M6396.671067865448,-2757.6334852939103 L6401.228047824783,-2767.2412412491394 M6401.228047824783,-2767.2412412491394 L6407.669643831286,-2774.6846706705414 M6407.669643831286,-2774.6846706705414 L6415.6480890294315,-2779.508272828872 M6415.6480890294315,-2779.508272828872 L6424.717702861815,-2781.3967053450046 M6424.717702861815,-2781.3967053450046 L6434.356442240288,-2780.200980960066 M6272.089783760135,-2916.8721677142553 L6257.860053130944,-2919.677169567785 M6257.860053130944,-2919.677169567785 L6243.618850822565,-2922.4137803888225 M6243.618850822565,-2922.4137803888225 L6229.3654164079335,-2925.08311953038 M6272.089783760135,-2916.8721677142553 L6307.271093030574,-2917.673924447199 M6307.271093030574,-2917.673924447199 L6342.434730724185,-2916.8166083845367 M6342.434730724185,-2916.8166083845367 L6376.527407116031,-2914.318765275585 M6376.527407116031,-2914.318765275585 L6408.500184526327,-2910.235683036158 M6408.500184526327,-2910.235683036158 L6437.315872415746,-2904.6618216516586 M6437.315872415746,-2904.6618216516586 L6461.9628028730995,-2897.734427683903 M6461.9628028730995,-2897.734427683903 L6481.477476069364,-2889.6376681056972 M6481.477476069364,-2889.6376681056972 L6494.978375656653,-2880.606342725756 M6494.978375656653,-2880.606342725756 L6501.7117628308515,-2870.9278308997045 M6501.7117628308515,-2870.9278308997045 L6501.108475694137,-2860.9407899844336 M6543.547797594299,-2848.060452873412 L6529.399914210004,-2852.451891465143 M6529.399914210004,-2852.451891465143 L6515.253660149931,-2856.7446428607077 M6515.253660149931,-2856.7446428607077 L6501.108475694137,-2860.9407899844336 M6272.089783760135,-2916.8721677142553 L6269.899143562707,-2897.248845537966 M6269.899143562707,-2897.248845537966 L6263.2879900934695,-2878.015655708686 M6263.2879900934695,-2878.015655708686 L6254.964120211674,-2862.876185899167 M6254.964120211674,-2862.876185899167 L6245.228431456223,-2849.461975138034 M6245.228431456223,-2849.461975138034 L6233.722722968594,-2836.6569527780816 M6233.722722968594,-2836.6569527780816 L6220.6463341922345,-2824.6159693380523 M6220.6463341922345,-2824.6159693380523 L6206.244715330888,-2813.6203734009714 M6206.244715330888,-2813.6203734009714 L6190.933427648706,-2804.166534084552 M6190.933427648706,-2804.166534084552 L6175.478958278934,-2797.006308962599 M6175.478958278934,-2797.006308962599 L6161.020929826485,-2792.943394746755 M6161.020929826485,-2792.943394746755 L6148.620631444164,-2792.3615945047213 M6148.620631444164,-2792.3615945047213 L6138.712791323793,-2795.03162130661 M6138.712791323793,-2795.03162130661 L6131.138241865674,-2800.4291720396036 M6131.138241865674,-2800.4291720396036 L6125.496121128311,-2808.06217644946 M6125.496121128311,-2808.06217644946 L6121.371596475788,-2817.5693274561863 M6121.371596475788,-2817.5693274561863 L6118.407147765516,-2828.702872801681 M6118.407147765516,-2828.702872801681 L6116.425445028064,-2840.448914647526 M6116.425445028064,-2840.448914647526 L6114.723750431675,-2857.098548037944 M6114.723750431675,-2857.098548037944 L6113.740195569829,-2875.2580562921903 M6113.740195569829,-2875.2580562921903 L6100.272587779946,-2878.2018315812084 M6100.272587779946,-2878.2018315812084 L6086.7631984955915,-2881.069954968901 M6086.7631984955915,-2881.069954968901 L6073.211806579785,-2883.8636149045687 M6363.738410609079,-2802.2935248672875 L6351.07675870721,-2806.9786018970717 M6351.07675870721,-2806.9786018970717 L6338.370478886647,-2811.5559756936686 M6338.370478886647,-2811.5559756936686 L6325.620121747192,-2816.027852761715 M6325.620121747192,-2816.027852761715 L6284.512683107568,-2816.1164786137024 M6284.512683107568,-2816.1164786137024 L6244.451217676873,-2818.4326047214236 M6244.451217676873,-2818.4326047214236 L6207.298662465552,-2822.8460722970763 M6207.298662465552,-2822.8460722970763 L6174.708491060158,-2829.114739286246 M6174.708491060158,-2829.114739286246 L6148.021236048035,-2836.907814625216 M6148.021236048035,-2836.907814625216 L6128.200882793599,-2845.835230062118 M6128.200882793599,-2845.835230062118 L6115.813702163867,-2855.4784004520575 M6115.813702163867,-2855.4784004520575 L6111.044494883428,-2865.41829494505 M6111.044494883428,-2865.41829494505 L6113.740195569829,-2875.2580562921903 M6501.108475694137,-2860.9407899844336 L6500.044686694134,-2839.1322891486407 M6500.044686694134,-2839.1322891486407 L6498.2120112165885,-2816.6652952985123 M6498.2120112165885,-2816.6652952985123 L6495.834251317782,-2798.2455275846287 M6495.834251317782,-2798.2455275846287 L6492.595062487555,-2781.439302297353 M6492.595062487555,-2781.439302297353 L6487.9665632722845,-2765.04639763795 M6487.9665632722845,-2765.04639763795 L6481.500030217357,-2749.4201005380205 M6481.500030217357,-2749.4201005380205 L6472.686983857259,-2735.107266649856 M6472.686983857259,-2735.107266649856 L6461.0551994047755,-2722.963921386541 M6461.0551994047755,-2722.963921386541 L6446.456974100921,-2714.1759538917577 M6446.456974100921,-2714.1759538917577 L6429.496286307454,-2709.896494003059 M6429.496286307454,-2709.896494003059 L6411.532855057271,-2710.5322473366527 M6411.532855057271,-2710.5322473366527 L6393.979274986466,-2715.5359908262935 M6393.979274986466,-2715.5359908262935 L6377.756238941907,-2723.9540810507515 M6377.756238941907,-2723.9540810507515 L6363.337600551262,-2734.921141961584 M6363.337600551262,-2734.921141961584 L6350.979302588457,-2747.789856183254 M6350.979302588457,-2747.789856183254 L6340.864994601981,-2762.0957750404345 M6340.864994601981,-2762.0957750404345 L6333.581843869182,-2776.4934592159416 M6333.581843869182,-2776.4934592159416 L6327.604465855585,-2795.9141896255355 M6327.604465855585,-2795.9141896255355 L6325.620121747192,-2816.027852761715 M6437.315872415746,-2904.6618216516586 L6434.356442240288,-2780.200980960066 M6434.356442240288,-2780.200980960066 L6434.170773477447,-2772.39255537032 M6434.170773477447,-2772.39255537032 L6440.55708764121,-2769.6663790111247 M6440.55708764121,-2769.6663790111247 L6446.239590469575,-2765.474833329292 M6446.239590469575,-2765.474833329292 L6451.057569546663,-2760.18457235909 M6451.057569546663,-2760.18457235909 L6454.940676121579,-2754.2357689258256 M6454.940676121579,-2754.2357689258256 L6457.990349487076,-2747.8866583235094 M6457.990349487076,-2747.8866583235094 L6460.304759722045,-2741.3145759901076 M6460.304759722045,-2741.3145759901076 L6461.948533754466,-2734.713807122856 M6461.948533754466,-2734.713807122856 L6462.9925332243365,-2728.194903223185 M6462.9925332243365,-2728.194903223185 L6463.463587071212,-2722.438585671425 M6463.463587071212,-2722.438585671425 L6463.51010794218,-2716.8443338572406 M6395.6904418993,-2737.3710975425147 L6396.610112366453,-2745.58913465848 M6396.610112366453,-2745.58913465848 L6399.091627742431,-2753.351678874543 M6399.091627742431,-2753.351678874543 L6403.141286180949,-2760.4160071843626 M6403.141286180949,-2760.4160071843626 L6408.758901661983,-2766.4470923210465 M6408.758901661983,-2766.4470923210465 L6416.022919404442,-2771.013181705327 M6416.022919404442,-2771.013181705327 L6423.696447164722,-2773.180920091646 M6423.696447164722,-2773.180920091646 L6428.881975333514,-2773.327982154521 M6428.881975333514,-2773.327982154521 L6434.170773477447,-2772.39255537032 M6434.170773477447,-2772.39255537032 L6442.34666146507,-2768.76875275533 M6442.34666146507,-2768.76875275533 L6450.0222088585815,-2762.758354522284 M6450.0222088585815,-2762.758354522284 L6456.730248508891,-2754.708537093498 M6456.730248508891,-2754.708537093498 L6462.059440829209,-2745.098782954877 M6462.059440829209,-2745.098782954877 L6465.683281664598,-2734.5104153848024 M6465.683281664598,-2734.5104153848024 L6467.383089420986,-2723.587380816648 M6467.383089420986,-2723.587380816648 L6467.0626063426325,-2712.992054697854 M6467.0626063426325,-2712.992054697854 L6464.752941160223,-2703.360189874524 M6464.752941160223,-2703.360189874524 L6460.607737304998,-2695.259418463847 M6460.607737304998,-2695.259418463847 L6454.889619192994,-2689.1545361186277 M6454.889619192994,-2689.1545361186277 L6447.949879429805,-2685.3820959063064 M6447.949879429805,-2685.3820959063064 L6440.203743566123,-2684.1352065430037 M6440.203743566123,-2684.1352065430037 L6432.103654318971,-2685.45845893274 M6432.103654318971,-2685.45845893274 L6424.112632857552,-2689.251607174796 M6424.112632857552,-2689.251607174796 L6416.6792539300395,-2695.280543515202 M6416.6792539300395,-2695.280543515202 L6410.2152067437455,-2703.193821661151 M6410.2152067437455,-2703.193821661151 L6405.0759197022935,-2712.543228450757 M6405.0759197022935,-2712.543228450757 L6401.544374734669,-2722.8070965846596 M6401.544374734669,-2722.8070965846596 L6399.818105680722,-2733.4158428788014 M6399.818105680722,-2733.4158428788014 L6399.999444760544,-2743.7791060142886 M6399.999444760544,-2743.7791060142886 L6402.089177291889,-2753.3142874259784 M6402.089177291889,-2753.3142874259784 L6405.984052253472,-2761.4758810309886 M6405.984052253472,-2761.4758810309886 L6411.478783707294,-2767.785139130768 M6411.478783707294,-2767.785139130768 L6418.273236139616,-2771.858690559923 M6418.273236139616,-2771.858690559923 L6425.985455423687,-2773.4344671049976 M6425.985455423687,-2773.4344671049976 L6434.170773477447,-2772.39255537032" stroke="black"  stroke-width="4"  fill="red"/>
<path d="M6434.170773477447,-2772.39255537032 L6440.55708764121,-2769.6663790111247 M6440.55708764121,-2769.6663790111247 L6446.239590469575,-2765.474833329292 M6446.239590469575,-2765.474833329292 L6451.057569546663,-2760.18457235909 M6451.057569546663,-2760.18457235909 L6454.940676121579,-2754.2357689258256 M6454.940676121579,-2754.2357689258256 L6457.990349487076,-2747.8866583235094 M6457.990349487076,-2747.8866583235094 L6460.304759722045,-2741.3145759901076 M6460.304759722045,-2741.3145759901076 L6461.948533754466,-2734.713807122856 M6461.948533754466,-2734.713807122856 L6462.9925332243365,-2728.194903223185 M6462.9925332243365,-2728.194903223185 L6463.463587071212,-2722.438585671425 M6463.463587071212,-2722.438585671425 L6463.51010794218,-2716.8443338572406 M6392.258510680815,-2692.349237024541 L6463.51010794218,-2716.8443338572406 M6392.258510680815,-2692.349237024541 L6386.911311482205,-2682.232818457377 M6386.911311482205,-2682.232818457377 L6380.800076051314,-2672.5411122720784 M6380.800076051314,-2672.5411122720784 L6375.333020586053,-2665.370615521291 M6375.333020586053,-2665.370615521291 L6371.82021099544,-2661.5767330638223 M6371.82021099544,-2661.5767330638223 L6367.534292756122,-2657.921046560994 M6367.534292756122,-2657.921046560994 L6362.920368837264,-2655.251064089635 M6362.920368837264,-2655.251064089635 L6357.8609732191135,-2653.767853088813 M6357.8609732191135,-2653.767853088813 L6352.262225484968,-2653.642815608122 M6352.262225484968,-2653.642815608122 L6349.140577726529,-2654.1566580725503 M6349.140577726529,-2654.1566580725503 L6345.91904224305,-2655.071451448631 M6345.91904224305,-2655.071451448631 L6339.301431737364,-2658.0879778481294 M6339.301431737364,-2658.0879778481294 L6333.033346677318,-2662.4191028159717 M6333.033346677318,-2662.4191028159717 L6327.59815109641,-2667.733671379867 M6327.59815109641,-2667.733671379867 L6323.329142507775,-2673.7443440141788 M6323.329142507775,-2673.7443440141788 L6320.452126298422,-2680.0827706084947 M6320.452126298422,-2680.0827706084947 L6318.928279489793,-2686.5016896560887 M6318.928279489793,-2686.5016896560887 L6318.593094152084,-2692.9223441258464 M6318.593094152084,-2692.9223441258464 L6319.27237456527,-2699.228043325072 M6319.27237456527,-2699.228043325072 L6321.272323665039,-2706.8394625009137 M6321.272323665039,-2706.8394625009137 L6324.2996318460055,-2714.1450177927136 M6324.2996318460055,-2714.1450177927136 L6395.6904418993,-2737.3710975425147 M6395.6904418993,-2737.3710975425147 L6396.610112366453,-2745.58913465848 M6396.610112366453,-2745.58913465848 L6399.091627742431,-2753.351678874543 M6399.091627742431,-2753.351678874543 L6403.141286180949,-2760.4160071843626 M6403.141286180949,-2760.4160071843626 L6408.758901661983,-2766.4470923210465 M6408.758901661983,-2766.4470923210465 L6416.022919404442,-2771.013181705327 M6416.022919404442,-2771.013181705327 L6423.696447164722,-2773.180920091646 M6423.696447164722,-2773.180920091646 L6428.881975333514,-2773.327982154521 M6428.881975333514,-2773.327982154521 L6434.170773477447,-2772.39255537032 M6434.170773477447,-2772.39255537032 L6442.34666146507,-2768.76875275533 M6442.34666146507,-2768.76875275533 L6450.0222088585815,-2762.758354522284 M6450.0222088585815,-2762.758354522284 L6456.730248508891,-2754.708537093498 M6456.730248508891,-2754.708537093498 L6462.059440829209,-2745.098782954877 M6462.059440829209,-2745.098782954877 L6465.683281664598,-2734.5104153848024 M6465.683281664598,-2734.5104153848024 L6467.383089420986,-2723.587380816648 M6467.383089420986,-2723.587380816648 L6467.0626063426325,-2712.992054697854 M6467.0626063426325,-2712.992054697854 L6464.752941160223,-2703.360189874524 M6464.752941160223,-2703.360189874524 L6460.607737304998,-2695.259418463847 M6460.607737304998,-2695.259418463847 L6454.889619192994,-2689.1545361186277 M6454.889619192994,-2689.1545361186277 L6447.949879429805,-2685.3820959063064 M6447.949879429805,-2685.3820959063064 L6440.203743566123,-2684.1352065430037 M6440.203743566123,-2684.1352065430037 L6432.103654318971,-2685.45845893274 M6432.103654318971,-2685.45845893274 L6424.112632857552,-2689.251607174796 M6424.112632857552,-2689.251607174796 L6416.6792539300395,-2695.280543515202 M6416.6792539300395,-2695.280543515202 L6410.2152067437455,-2703.193821661151 M6410.2152067437455,-2703.193821661151 L6405.0759197022935,-2712.543228450757 M6405.0759197022935,-2712.543228450757 L6401.544374734669,-2722.8070965846596 M6401.544374734669,-2722.8070965846596 L6399.818105680722,-2733.4158428788014 M6399.818105680722,-2733.4158428788014 L6399.999444760544,-2743.7791060142886 M6399.999444760544,-2743.7791060142886 L6402.089177291889,-2753.3142874259784 M6402.089177291889,-2753.3142874259784 L6405.984052253472,-2761.4758810309886 M6405.984052253472,-2761.4758810309886 L6411.478783707294,-2767.785139130768 M6411.478783707294,-2767.785139130768 L6418.273236139616,-2771.858690559923 M6418.273236139616,-2771.858690559923 L6425.985455423687,-2773.4344671049976 M6425.985455423687,-2773.4344671049976 L6434.170773477447,-2772.39255537032" stroke="black"  stroke-width="4"  fill="red"/>
<path d="M6467.840695282928,-2912.5828959171267 L6476.148042000801,-3196.19001884467 M6476.148042000801,-3196.19001884467 L6505.583079596864,-3192.0554046636184 M6505.583079596864,-3192.0554046636184 L6530.066873140366,-3187.2482334815586 M6530.066873140366,-3187.2482334815586 L6548.724808067453,-3181.865299202521 M6548.724808067453,-3181.865299202521 L6560.741952798919,-3176.028191313026 M6560.741952798919,-3176.028191313026 L6565.406538654195,-3169.8850454201443 M6565.406538654195,-3169.8850454201443 L6562.164642147103,-3163.610708075103 M6562.164642147103,-3163.610708075103 L6550.682978860257,-3157.4045174567677 M6550.682978860257,-3157.4045174567677 L6530.914053665931,-3151.4849990528573 M6530.914053665931,-3151.4849990528573 L6503.155193083607,-3146.0810173920295 M6503.155193083607,-3146.0810173920295 L6468.090369749853,-3141.419451760958 M6468.090369749853,-3141.419451760958 L6426.8035582602415,-3137.710133262971 M6426.8035582602415,-3137.710133262971 L6380.754203396894,-3135.1295838106225 M6380.754203396894,-3135.1295838106225 L6331.710773993128,-3133.8056850145795 M6331.710773993128,-3133.8056850145795 L6281.645563919259,-3133.8056850145795 M6281.645563919259,-3133.8056850145795 L6232.602134515493,-3135.1295838106225 M6232.602134515493,-3135.1295838106225 L6186.552779652146,-3137.710133262971 M6186.552779652146,-3137.710133262971 L6145.265968162534,-3141.419451760958 M6145.265968162534,-3141.419451760958 L6110.201144828779,-3146.0810173920295 M6110.201144828779,-3146.0810173920295 L6082.442284246457,-3151.4849990528573 M6082.442284246457,-3151.4849990528573 L6062.67335905213,-3157.4045174567677 M6062.67335905213,-3157.4045174567677 L6051.191695765284,-3163.610708075103 M6051.191695765284,-3163.610708075103 L6047.949799258192,-3169.8850454201443 M6047.949799258192,-3169.8850454201443 L6052.614385113469,-3176.028191313026 M6052.614385113469,-3176.028191313026 L6064.631529844935,-3181.865299202521 M6064.631529844935,-3181.865299202521 L6083.289464772021,-3187.2482334815586 M6083.289464772021,-3187.2482334815586 L6107.773258315523,-3192.0554046636184 M6107.773258315523,-3192.0554046636184 L6137.208295911587,-3196.19001884467 M6137.208295911587,-3196.19001884467 L6170.692011702164,-3199.57745312429 M6170.692011702164,-3199.57745312429 L6207.314541542215,-3202.1623611642453 M6207.314541542215,-3202.1623611642453 L6246.170057770224,-3203.9059363795063 M6246.170057770224,-3203.9059363795063 L6286.360736482459,-3204.7836512097074 M6286.360736482459,-3204.7836512097074 L6326.995601429928,-3204.7836512097074 M6326.995601429928,-3204.7836512097074 L6367.186280142163,-3203.9059363795063 M6367.186280142163,-3203.9059363795063 L6406.041796370172,-3202.1623611642453 M6406.041796370172,-3202.1623611642453 L6442.664326210223,-3199.57745312429 M6442.664326210223,-3199.57745312429 L6476.148042000801,-3196.19001884467 M6543.547797594299,-2848.060452873412 L6550.680120346486,-2858.5158165424004 M6550.680120346486,-2858.5158165424004 L6551.121249435344,-2868.9658137488977 M6551.121249435344,-2868.9658137488977 L6545.173233104575,-2879.132271196122 M6545.173233104575,-2879.132271196122 L6533.283652447007,-2888.7699788207556 M6533.283652447007,-2888.7699788207556 L6516.006568853577,-2897.6689086455735 M6516.006568853577,-2897.6689086455735 L6493.968468957566,-2905.653945186862 M6493.968468957566,-2905.653945186862 L6467.840695282928,-2912.5828959171267 M6363.738410609079,-2802.2935248672875 L6367.439639256119,-2830.261271946828 M6367.439639256119,-2830.261271946828 L6377.9163571473855,-2858.1114677782125 M6377.9163571473855,-2858.1114677782125 L6394.046724883712,-2883.772995469135 M6394.046724883712,-2883.772995469135 L6414.727700478562,-2906.5283626785736 M6414.727700478562,-2906.5283626785736 L6437.222094496329,-2924.3858503108895 M6437.222094496329,-2924.3858503108895 L6459.510934458387,-2936.8443722619663 M6459.510934458387,-2936.8443722619663 L6479.524161899711,-2943.7401643732474 M6479.524161899711,-2943.7401643732474 L6495.850764323789,-2945.776006433501 M6495.850764323789,-2945.776006433501 L6509.532314179363,-2943.995486345476 M6509.532314179363,-2943.995486345476 L6520.318565372573,-2939.0267551081847 M6520.318565372573,-2939.0267551081847 L6528.469879216214,-2931.5691039952726 M6528.469879216214,-2931.5691039952726 L6534.42186200098,-2922.1803475385905 M6534.42186200098,-2922.1803475385905 L6538.603304330757,-2911.2558402588083 M6538.603304330757,-2911.2558402588083 L6541.380041367033,-2899.063982006776 M6541.380041367033,-2899.063982006776 L6543.041786080421,-2885.800363494684 M6543.041786080421,-2885.800363494684 L6543.807231768697,-2871.621705934664 M6543.807231768697,-2871.621705934664 L6543.88148643987,-2860.0412374056737 M6543.88148643987,-2860.0412374056737 L6543.547797594299,-2848.060452873412 M6073.211806579785,-2883.8636149045687 L6064.202790480305,-2873.695050966993 M6064.202790480305,-2873.695050966993 L6061.673685581416,-2863.1077415575373 M6061.673685581416,-2863.1077415575373 L6066.022319193869,-2852.383699056312 M6066.022319193869,-2852.383699056312 L6077.462152843426,-2841.8380103682134 M6077.462152843426,-2841.8380103682134 L6095.976831442826,-2831.8103465988597 M6095.976831442826,-2831.8103465988597 L6121.280676264541,-2822.6519023768456 M6121.280676264541,-2822.6519023768456 L6152.792084455215,-2814.7081246239286 M6152.792084455215,-2814.7081246239286 L6189.626848734267,-2808.2981899643064 M6189.626848734267,-2808.2981899643064 L6230.616981951617,-2803.6931498595077 M6230.616981951617,-2803.6931498595077 L6274.357348817648,-2801.0952973042567 M6274.357348817648,-2801.0952973042567 L6319.278480704214,-2800.621570915189 M6319.278480704214,-2800.621570915189 L6363.738410609079,-2802.2935248672875 M6073.211806579785,-2883.8636149045687 L6073.111738519746,-2909.519502782641 M6073.111738519746,-2909.519502782641 L6075.191949755829,-2935.970961834789 M6075.191949755829,-2935.970961834789 L6079.850559837148,-2960.914479831708 M6079.850559837148,-2960.914479831708 L6087.66287774892,-2983.292546313859 M6087.66287774892,-2983.292546313859 L6098.486747751256,-3000.8705574469936 M6098.486747751256,-3000.8705574469936 L6111.9427406045115,-3013.0018881339097 M6111.9427406045115,-3013.0018881339097 L6126.929199033492,-3019.4916663257677 M6126.929199033492,-3019.4916663257677 L6141.889097740483,-3021.082073129184 M6141.889097740483,-3021.082073129184 L6157.113387556056,-3018.8240709071147 M6157.113387556056,-3018.8240709071147 L6171.690445296478,-3013.3989512154067 M6171.690445296478,-3013.3989512154067 L6185.0646163387655,-3005.557830252585 M6185.0646163387655,-3005.557830252585 L6196.937059163474,-2995.9091589987256 M6196.937059163474,-2995.9091589987256 L6207.13236059198,-2984.9008943407507 M6207.13236059198,-2984.9008943407507 L6215.528556467826,-2972.8572009270847 M6215.528556467826,-2972.8572009270847 L6222.018254224369,-2960.0312801690557 M6222.018254224369,-2960.0312801690557 L6226.508351439585,-2946.635037724033 M6226.508351439585,-2946.635037724033 L6228.573669630917,-2935.9326886192375 M6228.573669630917,-2935.9326886192375 L6229.3654164079335,-2925.08311953038 M6467.840695282928,-2912.5828959171267 L6438.318749726568,-2918.3435182588755 M6438.318749726568,-2918.3435182588755 L6406.108075709045,-2922.8501961429165 M6406.108075709045,-2922.8501961429165 L6371.915449386371,-2926.04072593401 M6371.915449386371,-2926.04072593401 L6336.444949550648,-2927.87356335645 M6336.444949550648,-2927.87356335645 L6300.397247604728,-2928.3257665348183 M6300.397247604728,-2928.3257665348183 L6264.471022117487,-2927.391778192612 M6264.471022117487,-2927.391778192612 L6229.3654164079335,-2925.08311953038 M6272.089783760135,-2916.8721677142553 L6257.860053130944,-2919.677169567785 M6257.860053130944,-2919.677169567785 L6243.618850822565,-2922.4137803888225 M6243.618850822565,-2922.4137803888225 L6229.3654164079335,-2925.08311953038 M6501.108475694137,-2860.9407899844336 L6501.7117628308515,-2870.9278308997045 M6501.7117628308515,-2870.9278308997045 L6494.978375656653,-2880.606342725756 M6494.978375656653,-2880.606342725756 L6481.477476069364,-2889.6376681056972 M6481.477476069364,-2889.6376681056972 L6461.9628028730995,-2897.734427683903 M6461.9628028730995,-2897.734427683903 L6437.315872415746,-2904.6618216516586 M6437.315872415746,-2904.6618216516586 L6408.500184526327,-2910.235683036158 M6408.500184526327,-2910.235683036158 L6376.527407116031,-2914.318765275585 M6376.527407116031,-2914.318765275585 L6342.434730724185,-2916.8166083845367 M6342.434730724185,-2916.8166083845367 L6307.271093030574,-2917.673924447199 M6307.271093030574,-2917.673924447199 L6272.089783760135,-2916.8721677142553 M6543.547797594299,-2848.060452873412 L6529.399914210004,-2852.451891465143 M6529.399914210004,-2852.451891465143 L6515.253660149931,-2856.7446428607077 M6515.253660149931,-2856.7446428607077 L6501.108475694137,-2860.9407899844336 M6501.108475694137,-2860.9407899844336 L6424.892153516157,-2881.9683542037633 M6424.892153516157,-2881.9683542037633 L6348.588596499278,-2900.532073362858 M6348.588596499278,-2900.532073362858 L6272.089783760135,-2916.8721677142553 M6113.740195569829,-2875.2580562921903 L6100.272587779946,-2878.2018315812084 M6100.272587779946,-2878.2018315812084 L6086.7631984955915,-2881.069954968901 M6086.7631984955915,-2881.069954968901 L6073.211806579785,-2883.8636149045687 M6325.620121747192,-2816.027852761715 L6256.202131389694,-2838.387890125181 M6256.202131389694,-2838.387890125181 L6185.569570350066,-2858.0465451956284 M6185.569570350066,-2858.0465451956284 L6113.740195569829,-2875.2580562921903 M6363.738410609079,-2802.2935248672875 L6351.07675870721,-2806.9786018970717 M6351.07675870721,-2806.9786018970717 L6338.370478886647,-2811.5559756936686 M6338.370478886647,-2811.5559756936686 L6325.620121747192,-2816.027852761715 M6113.740195569829,-2875.2580562921903 L6111.044494883428,-2865.41829494505 M6111.044494883428,-2865.41829494505 L6115.813702163867,-2855.4784004520575 M6115.813702163867,-2855.4784004520575 L6128.200882793599,-2845.835230062118 M6128.200882793599,-2845.835230062118 L6148.021236048035,-2836.907814625216 M6148.021236048035,-2836.907814625216 L6174.708491060158,-2829.114739286246 M6174.708491060158,-2829.114739286246 L6207.298662465552,-2822.8460722970763 M6207.298662465552,-2822.8460722970763 L6244.451217676873,-2818.4326047214236 M6244.451217676873,-2818.4326047214236 L6284.512683107568,-2816.1164786137024 M6284.512683107568,-2816.1164786137024 L6325.620121747192,-2816.027852761715 M6272.089783760135,-2916.8721677142553 L6270.777522961011,-2901.570454729043 M6270.777522961011,-2901.570454729043 L6266.731273919472,-2886.4522611834045 M6266.731273919472,-2886.4522611834045 L6260.15015099976,-2871.6957431171563 M6260.15015099976,-2871.6957431171563 L6260.959132411381,-2776.743898484742 M6411.422284614463,-2768.457012989251 L6383.691391710475,-2773.311243273018 M6383.691391710475,-2773.311243273018 L6354.008044937381,-2776.6136734882325 M6354.008044937381,-2776.6136734882325 L6323.141617860458,-2778.3021810918976 M6323.141617860458,-2778.3021810918976 L6291.866635785786,-2778.3458515877564 M6291.866635785786,-2778.3458515877564 L6260.959132411381,-2776.743898484742 M6411.422284614463,-2768.457012989251 L6418.230898825018,-2771.887166240408 M6418.230898825018,-2771.887166240408 L6425.999352734068,-2773.3742270948806 M6425.999352734068,-2773.3742270948806 L6434.170773477447,-2772.39255537032 M6434.170773477447,-2772.39255537032 L6441.907398074127,-2768.837393971145 M6441.907398074127,-2768.837393971145 L6448.520837333801,-2763.2052073813566 M6448.520837333801,-2763.2052073813566 L6453.7712963143495,-2756.2299511982715 M6493.714210732275,-2706.161440355052 L6497.014741467158,-2717.0537256976195 M6497.014741467158,-2717.0537256976195 L6494.276891889106,-2727.8132736379075 M6494.276891889106,-2727.8132736379075 L6485.8248724366085,-2738.1137026852107 M6485.8248724366085,-2738.1137026852107 L6472.129477183431,-2747.6676487894733 M6472.129477183431,-2747.6676487894733 L6453.7712963143495,-2756.2299511982715 M6497.348229950675,-2809.0515290428593 L6493.714210732275,-2706.161440355052 M6501.108475694137,-2860.9407899844336 L6500.335432321056,-2844.0315171703564 M6500.335432321056,-2844.0315171703564 L6499.141322730439,-2826.6528517176557 M6499.141322730439,-2826.6528517176557 L6497.348229950675,-2809.0515290428593 M6434.356442240286,-2780.200980960066 L6434.170773477447,-2772.39255537032 M6497.348229950675,-2809.0515290428593 L6454.408417759087,-2811.227629217528 M6454.408417759087,-2811.227629217528 L6398.957383902894,-2820.668255408474 M6398.957383902894,-2820.668255408474 L6336.550173778994,-2838.141517441226 M6336.550173778994,-2838.141517441226 L6297.598918225167,-2853.041291057833 M6297.598918225167,-2853.041291057833 L6260.15015099976,-2871.6957431171563 M6124.507022785846,-2809.9329987530987 L6118.608932030858,-2827.7564092605962 M6118.608932030858,-2827.7564092605962 L6115.587951928206,-2847.4558212051097 M6115.587951928206,-2847.4558212051097 L6114.45491023491,-2860.9179766098982 M6114.45491023491,-2860.9179766098982 L6113.740195569829,-2875.2580562921903 M6360.535937364761,-2737.511289976774 L6284.861906564417,-2771.269755078831 M6284.861906564417,-2771.269755078831 L6226.409699451677,-2791.1428256875934 M6226.409699451677,-2791.1428256875934 L6174.1041175963255,-2802.9761286837247 M6174.1041175963255,-2802.9761286837247 L6124.507022785846,-2809.9329987530987 M6360.535937364761,-2737.511289976774 L6341.5877942354355,-2760.9065717793032 M6341.5877942354355,-2760.9065717793032 L6330.516256974269,-2784.795322413436 M6330.516256974269,-2784.795322413436 L6326.828486760607,-2800.228931006119 M6326.828486760607,-2800.228931006119 L6325.620121747192,-2816.027852761715 M6360.535937364761,-2737.511289976774 L6359.7407837019955,-2658.865081592317 M6126.94801886089,-2737.5848830659984 L6118.418536678901,-2726.491452923685 M6118.418536678901,-2726.491452923685 L6116.505856443156,-2714.9156745950963 M6116.505856443156,-2714.9156745950963 L6121.5747903624315,-2703.266108714675 M6121.5747903624315,-2703.266108714675 L6133.736093650464,-2691.9909192697796 M6133.736093650464,-2691.9909192697796 L6152.797002373439,-2681.560161273731 M6152.797002373439,-2681.560161273731 L6178.225675237031,-2672.4412793216075 M6178.225675237031,-2672.4412793216075 L6209.139090434052,-2665.0691695871574 M6209.139090434052,-2665.0691695871574 L6244.322429961117,-2659.8136587621448 M6244.322429961117,-2659.8136587621448 L6282.283840468313,-2656.948504933219 M6282.283840468313,-2656.948504933219 L6321.342434579272,-2656.626537122391 M6321.342434579272,-2656.626537122391 L6359.7407837019955,-2658.865081592317 M6124.507022785846,-2809.9329987530987 L6126.94801886089,-2737.5848830659984 M6493.714210732275,-2706.161440355052 L6393.3897171339295,-2736.5846191740548 M6350.959931743962,-2749.451356915477 L6357.378016806589,-2752.803504151868 M6357.378016806589,-2752.803504151868 L6364.547810128168,-2753.9467847006026 M6364.547810128168,-2753.9467847006026 L6372.116195942008,-2752.8010755744863 M6372.116195942008,-2752.8010755744863 L6379.702523469204,-2749.4028908423907 M6379.702523469204,-2749.4028908423907 L6386.9184749443675,-2743.90762304334 M6386.9184749443675,-2743.90762304334 L6393.3897171339295,-2736.5846191740548 M6350.959931743962,-2749.451356915477 L6260.959132411381,-2776.743898484742 M6350.959931743962,-2749.451356915477 L6411.422284614463,-2768.457012989251 M6393.3897171339295,-2736.5846191740548 L6453.7712963143495,-2756.2299511982715 M6126.94801886089,-2737.5848830659984 L6359.7407837019955,-2658.865081592317" stroke="black"  stroke-width="4"  fill="red"/>
<path d="M6330.286972866017,-2617.6557039187605 L6335.324507794277,-2615.3552571956125 M6335.324507794277,-2615.3552571956125 L6338.732061017771,-2612.675480214927 M6338.732061017771,-2612.675480214927 L6340.299566295285,-2609.7668982383866 M6340.299566295285,-2609.7668982383866 L6339.9185560042015,-2606.795948685266 M6339.9185560042015,-2606.795948685266 L6337.592365823139,-2603.9359435337074 M6337.592365823139,-2603.9359435337074 L6333.4402810587435,-2601.356899299247 M6333.4402810587435,-2601.356899299247 L6327.694339057475,-2599.214815054451 M6327.694339057475,-2599.214815054451 L6320.688114315378,-2597.6412060174634 M6320.688114315378,-2597.6412060174634 L6312.837511354579,-2596.733814107185 M6312.837511354579,-2596.733814107185 L6304.614610601648,-2596.5494386944174 M6304.614610601648,-2596.5494386944174 L6296.516513624367,-2597.0996581565946 M6296.516513624367,-2597.0996581565946 L6289.031917745857,-2598.3499543850094 M6289.031917745857,-2598.3499543850094 L6282.60845149651,-2600.222326514451 M6282.60845149651,-2600.222326514451 L6277.623729207496,-2602.601097145467 M6277.623729207496,-2602.601097145467 L6274.362468330143,-2605.341250310537 M6274.362468330143,-2605.341250310537 L6273.0012197988835,-2608.278433924504 M6273.0012197988835,-2608.278433924504 L6273.601209817416,-2611.239661359248 M6273.601209817416,-2611.239661359248 L6276.108949447555,-2614.0538467383253 M6276.108949447555,-2614.0538467383253 L6280.363567069324,-2616.561465968395 M6280.363567069324,-2616.561465968395 L6286.109529089841,-2618.6228787508257 M6286.109529089841,-2618.6228787508257 L6293.0132437190205,-2620.125050737687 M6293.0132437190205,-2620.125050737687 L6300.682283032899,-2620.9866091668005 M6300.682283032899,-2620.9866091668005 L6308.686165183334,-2621.1612589929423 M6308.686165183334,-2621.1612589929423 L6316.5779754451205,-2620.639650887735 M6316.5779754451205,-2620.639650887735 L6323.916283803592,-2619.4497453689896 M6323.916283803592,-2619.4497453689896 L6330.286972866017,-2617.6557039187605 M6330.286972866017,-2617.6557039187605 L6327.627732541153,-2031.1456872930012 M6327.627732541153,-2031.1456872930012 L6321.978085294565,-2033.7838666751695 M6321.978085294565,-2033.7838666751695 L6315.4661921794395,-2035.5343090687456 M6315.4661921794395,-2035.5343090687456 L6308.4607774391425,-2036.3018003764023 M6308.4607774391425,-2036.3018003764023 L6301.355409181085,-2036.044810327926 M6301.355409181085,-2036.044810327926 L6294.5486507643745,-2034.7772282264832 M6294.5486507643745,-2034.7772282264832 L6288.42410550569,-2032.5677918597776 M6288.42410550569,-2032.5677918597776 L6283.330804666626,-2029.5371712701335 M6283.330804666626,-2029.5371712701335 L6279.564513289666,-2025.8526765313509 M6279.564513289666,-2025.8526765313509 L6277.350655994051,-2021.720511535751 M6277.350655994051,-2021.720511535751 L6276.829818060172,-2017.3756034778985 M6276.829818060172,-2017.3756034778985 L6278.04690678287,-2013.0691755612092 M6278.04690678287,-2013.0691755612092 L6280.945219159675,-2009.0545005810136 M6280.945219159675,-2009.0545005810136 L6285.366472879723,-2005.571542685289 M6285.366472879723,-2005.571542685289 L6291.057589312988,-2002.8315118819132 M6291.057589312988,-2002.8315118819132 L6297.684418627129,-2001.0025462549338 M6297.684418627129,-2001.0025462549338 L6304.851907055985,-2000.1978533228748 M6304.851907055985,-2000.1978533228748 L6312.129351494997,-2000.4674889375538 M6312.129351494997,-2000.4674889375538 L6319.078760404156,-2001.7946658140481 M6319.078760404156,-2001.7946658140481 L6325.283848153654,-2004.096989174198 M6325.283848153654,-2004.096989174198 L6330.377136634843,-2007.2325058232273 M6330.377136634843,-2007.2325058232273 L6334.0628714808445,-2011.0098752503936 M6334.0628714808445,-2011.0098752503936 L6336.134087048334,-2015.2016210107804 M6336.134087048334,-2015.2016210107804 L6336.482872798813,-2019.5591711015454 M6336.482872798813,-2019.5591711015454 L6335.103728887558,-2023.828407326423 M6335.103728887558,-2023.828407326423 L6332.090477332586,-2027.764573909908 M6332.090477332586,-2027.764573909908 L6327.627732541153,-2031.1456872930012" stroke="black"  stroke-width="4"  fill="red"/>
<path d="M6392.258510680815,-2692.349237024541 L6386.911311482205,-2682.232818457377 M6386.911311482205,-2682.232818457377 L6380.800076051314,-2672.5411122720784 M6380.800076051314,-2672.5411122720784 L6375.333020586053,-2665.370615521291 M6375.333020586053,-2665.370615521291 L6371.82021099544,-2661.5767330638223 M6371.82021099544,-2661.5767330638223 L6367.534292756122,-2657.921046560994 M6367.534292756122,-2657.921046560994 L6362.920368837264,-2655.251064089635 M6362.920368837264,-2655.251064089635 L6357.8609732191135,-2653.767853088813 M6357.8609732191135,-2653.767853088813 L6352.262225484968,-2653.642815608122 M6352.262225484968,-2653.642815608122 L6349.140577726529,-2654.1566580725503 M6349.140577726529,-2654.1566580725503 L6345.91904224305,-2655.071451448631 M6330.286972866017,-2617.6557039187605 L6342.6805931414865,-2647.3201407335673 M6342.6805931414865,-2647.3201407335673 L6345.91904224305,-2655.071451448631 M6330.286972866017,-2617.6557039187605 L6323.916283803592,-2619.4497453689896 M6323.916283803592,-2619.4497453689896 L6316.5779754451205,-2620.639650887735 M6316.5779754451205,-2620.639650887735 L6308.686165183334,-2621.1612589929423 M6308.686165183334,-2621.1612589929423 L6300.682283032899,-2620.9866091668005 M6300.682283032899,-2620.9866091668005 L6293.0132437190205,-2620.125050737687 M6293.0132437190205,-2620.125050737687 L6286.109529089841,-2618.6228787508257 M6286.109529089841,-2618.6228787508257 L6280.363567069324,-2616.561465968395 M6280.363567069324,-2616.561465968395 L6276.108949447555,-2614.0538467383253 M6276.108949447555,-2614.0538467383253 L6273.601209817416,-2611.239661359248 M6273.601209817416,-2611.239661359248 L6273.0012197988835,-2608.278433924504 M6273.0012197988835,-2608.278433924504 L6274.362468330143,-2605.341250310537 M6274.362468330143,-2605.341250310537 L6277.623729207496,-2602.601097145467 M6277.623729207496,-2602.601097145467 L6282.60845149651,-2600.222326514451 M6282.60845149651,-2600.222326514451 L6289.031917745857,-2598.3499543850094 M6289.031917745857,-2598.3499543850094 L6296.516513624367,-2597.0996581565946 M6296.516513624367,-2597.0996581565946 L6304.614610601648,-2596.5494386944174 M6304.614610601648,-2596.5494386944174 L6312.837511354579,-2596.733814107185 M6312.837511354579,-2596.733814107185 L6320.688114315378,-2597.6412060174634 M6320.688114315378,-2597.6412060174634 L6327.694339057475,-2599.214815054451 M6327.694339057475,-2599.214815054451 L6333.4402810587435,-2601.356899299247 M6333.4402810587435,-2601.356899299247 L6337.592365823139,-2603.9359435337074 M6337.592365823139,-2603.9359435337074 L6339.9185560042015,-2606.795948685266 M6339.9185560042015,-2606.795948685266 L6340.299566295285,-2609.7668982383866 M6340.299566295285,-2609.7668982383866 L6338.732061017771,-2612.675480214927 M6338.732061017771,-2612.675480214927 L6335.324507794277,-2615.3552571956125 M6335.324507794277,-2615.3552571956125 L6330.286972866017,-2617.6557039187605 M6345.91904224305,-2655.071451448631 L6339.301431737364,-2658.0879778481294 M6339.301431737364,-2658.0879778481294 L6333.033346677318,-2662.4191028159717 M6333.033346677318,-2662.4191028159717 L6327.59815109641,-2667.733671379867 M6327.59815109641,-2667.733671379867 L6323.329142507775,-2673.7443440141788 M6323.329142507775,-2673.7443440141788 L6320.452126298422,-2680.0827706084947 M6320.452126298422,-2680.0827706084947 L6318.928279489793,-2686.5016896560887 M6318.928279489793,-2686.5016896560887 L6318.593094152084,-2692.9223441258464 M6318.593094152084,-2692.9223441258464 L6319.27237456527,-2699.228043325072 M6319.27237456527,-2699.228043325072 L6321.272323665039,-2706.8394625009137 M6321.272323665039,-2706.8394625009137 L6324.2996318460055,-2714.1450177927136 M6392.258510680815,-2692.349237024541 L6394.85569032737,-2685.2416929869596 M6394.85569032737,-2685.2416929869596 L6392.211414799292,-2678.073425606473 M6392.211414799292,-2678.073425606473 L6384.352346615976,-2671.2809912146013 M6384.352346615976,-2671.2809912146013 L6371.644196297096,-2665.2984490499925 M6371.644196297096,-2665.2984490499925 L6354.795985721518,-2660.5247717193884 M6354.795985721518,-2660.5247717193884 L6334.8311814408735,-2657.289643238692 M6334.8311814408735,-2657.289643238692 L6313.022890134171,-2655.8222700004026 M6313.022890134171,-2655.8222700004026 L6290.797077171198,-2656.2281590633957 M6290.797077171198,-2656.2281590633957 L6269.614900603436,-2658.478029436467 M6269.614900603436,-2658.478029436467 L6250.849973649079,-2662.4109148662787 M6250.849973649079,-2662.4109148662787 L6235.6779767077105,-2667.750876780635 M6235.6779767077105,-2667.750876780635 L6224.992699229288,-2674.1342500971846 M6224.992699229288,-2674.1342500971846 L6219.356670323482,-2681.142746657419 M6219.356670323482,-2681.142746657419 L6218.987237881526,-2688.337466948141 M6218.987237881526,-2688.337466948141 L6223.772976243,-2695.289673369149 M6223.772976243,-2695.289673369149 L6233.311658147314,-2701.605781252145 M6233.311658147314,-2701.605781252145 L6246.960186190185,-2706.9455766948463 M6246.960186190185,-2706.9455766948463 L6263.888356014452,-2711.0341525243866 M6263.888356014452,-2711.0341525243866 L6283.130728855509,-2713.668800419701 M6283.130728855509,-2713.668800419701 L6303.63400168753,-2714.7224385865543 M6303.63400168753,-2714.7224385865543 L6324.2996318460055,-2714.1450177927136 M6341.141067533428,-2674.775922630729 L6392.258510680815,-2692.349237024541 M6273.1524112987245,-2697.504928927985 L6274.1798589818045,-2686.4501295511072 M6274.1798589818045,-2686.4501295511072 L6277.06341412009,-2675.412960409324 M6277.06341412009,-2675.412960409324 L6281.639257657611,-2665.0047134437714 M6281.639257657611,-2665.0047134437714 L6287.654687764371,-2655.802491539862 M6287.654687764371,-2655.802491539862 L6294.77990153477,-2648.3218123649517 M6294.77990153477,-2648.3218123649517 L6302.6228032651325,-2642.9909549116564 M6302.6228032651325,-2642.9909549116564 L6310.746918015457,-2640.1276243440866 M6310.746918015457,-2640.1276243440866 L6318.692381783449,-2639.9189101694537 M6318.692381783449,-2639.9189101694537 L6325.999781647109,-2642.405930937367 M6325.999781647109,-2642.405930937367 L6332.236138736644,-2647.4749630716638 M6332.236138736644,-2647.4749630716638 L6337.021793835136,-2654.856980400965 M6337.021793835136,-2654.856980400965 L6340.056306101423,-2664.1372595005464 M6340.056306101423,-2664.1372595005464 L6341.141067533428,-2674.775922630729 M6273.1524112987245,-2697.504928927985 L6324.2996318460055,-2714.1450177927136 M6273.1524112987245,-2697.504928927985 L6341.141067533428,-2674.775922630729" stroke="black"  stroke-width="4"  fill="red"/>
<path d="M6467.054536617919,-2690.4212839199663 L6431.924475130113,-2677.9229567726898 M6431.924475130113,-2677.9229567726898 L6422.541996361947,-2682.4021849107608 M6422.541996361947,-2682.4021849107608 L6413.8211652341515,-2689.496481824063 M6413.8211652341515,-2689.496481824063 L6406.240789287126,-2698.792224947623 M6406.240789287126,-2698.792224947623 L6400.213540967389,-2709.7652872087324 M6400.213540967389,-2709.7652872087324 L6396.068106218115,-2721.8078444145567 M6396.068106218115,-2721.8078444145567 L6394.034782691301,-2734.2571129323483 M6394.034782691301,-2734.2571129323483 L6394.234458560345,-2746.4256812223466 M6394.234458560345,-2746.4256812223466 L6396.671067865448,-2757.6334852939103 M6396.671067865448,-2757.6334852939103 L6401.228047824783,-2767.2412412491394 M6401.228047824783,-2767.2412412491394 L6407.669643831286,-2774.6846706705414 M6407.669643831286,-2774.6846706705414 L6415.6480890294315,-2779.508272828872 M6415.6480890294315,-2779.508272828872 L6424.717702861815,-2781.3967053450046 M6424.717702861815,-2781.3967053450046 L6434.356442240286,-2780.200980960066 M6434.356442240286,-2780.200980960066 L6443.994804190565,-2775.9561735553093 M6443.994804190565,-2775.9561735553093 L6453.050845398412,-2768.8875625762066 M6453.050845398412,-2768.8875625762066 L6460.968965063533,-2759.4028407156147 M6460.968965063533,-2759.4028407156147 L6467.259088822449,-2748.06941090248 M6467.259088822449,-2748.06941090248 L6471.532276213509,-2735.57767848951 M6471.532276213509,-2735.57767848951 L6473.528955013439,-2722.6933732326283 M6473.528955013439,-2722.6933732326283 L6473.136655618551,-2710.2035958873544 M6473.136655618551,-2710.2035958873544 L6470.395606863045,-2698.861980805334 M6470.395606863045,-2698.861980805334 L6465.492130753274,-2689.338421392246 M6465.492130753274,-2689.338421392246 L6458.741342786544,-2682.177872219714 M6458.741342786544,-2682.177872219714 L6450.561807300763,-2677.7710340039403 M6450.561807300763,-2677.7710340039403 L6441.445249317647,-2676.3378138233265 M6441.445249317647,-2676.3378138233265 L6431.924475130113,-2677.9229567726898 M6467.054536617919,-2690.4212839199663 L6476.5681447830175,-2688.9085133385634 M6476.5681447830175,-2688.9085133385634 L6485.694946188018,-2690.3730844982283 M6485.694946188018,-2690.3730844982283 L6493.901803989484,-2694.7673403663584 M6493.901803989484,-2694.7673403663584 L6500.695858717079,-2701.8709989588874 M6500.695858717079,-2701.8709989588874 L6505.656576108964,-2711.2958014363703 M6505.656576108964,-2711.2958014363703 L6508.46602513102,-2722.502122362722 M6508.46602513102,-2722.502122362722 L6508.934262670303,-2734.8280859757465 M6508.934262670303,-2734.8280859757465 L6507.016752975786,-2747.530272816384 M6507.016752975786,-2747.530272816384 L6502.821191167643,-2759.8332392060156 M6502.821191167643,-2759.8332392060156 L6496.602222610853,-2770.983418319402 M6496.602222610853,-2770.983418319402 L6488.744094794088,-2780.3020767691683 M6488.744094794088,-2780.3020767691683 L6479.732833062038,-2787.23206712497 M6479.732833062038,-2787.23206712497 L6470.121006362886,-2791.3737996522254 M6470.121006362886,-2791.3737996522254 L6460.488821460661,-2792.5074744472563 M6460.488821460661,-2792.5074744472563 L6451.405482116834,-2790.6006892190285 M6451.405482116834,-2790.6006892190285 L6443.394159825755,-2785.8023677517804 M6443.394159825755,-2785.8023677517804 L6436.902940865696,-2778.4253207152046 M6436.902940865696,-2778.4253207152046 L6432.283016562309,-2768.920432925809 M6432.283016562309,-2768.920432925809 L6429.774263016431,-2757.8457098875847 M6429.774263016431,-2757.8457098875847 L6429.497722789032,-2745.8329222110383 M6429.497722789032,-2745.8329222110383 L6431.453982587199,-2733.5537582519755 M6431.453982587199,-2733.5537582519755 L6435.52644729928,-2721.686726157228 M6435.52644729928,-2721.686726157228 L6441.488678978999,-2710.885482630366 M6441.488678978999,-2710.885482630366 L6449.01527677366,-2701.7488004340057 M6449.01527677366,-2701.7488004340057 L6457.6961925736905,-2694.792154480794 M6457.6961925736905,-2694.792154480794 L6467.054536617919,-2690.4212839199663" stroke="black"  stroke-width="4"  fill="red"/>
<path d="M6432.103654318971,-2685.45845893274 L6306.678168956194,-2641.235887517563 M6434.170773477447,-2772.39255537032 L6306.678168956194,-2732.141394460073 M6432.103654318971,-2685.45845893274 L6424.112632857552,-2689.251607174796 M6424.112632857552,-2689.251607174796 L6416.6792539300395,-2695.280543515202 M6416.6792539300395,-2695.280543515202 L6410.2152067437455,-2703.193821661151 M6410.2152067437455,-2703.193821661151 L6405.0759197022935,-2712.543228450757 M6405.0759197022935,-2712.543228450757 L6401.544374734669,-2722.8070965846596 M6401.544374734669,-2722.8070965846596 L6399.818105680722,-2733.4158428788014 M6399.818105680722,-2733.4158428788014 L6399.999444760544,-2743.7791060142886 M6399.999444760544,-2743.7791060142886 L6402.089177291889,-2753.3142874259784 M6402.089177291889,-2753.3142874259784 L6405.984052253472,-2761.4758810309886 M6405.984052253472,-2761.4758810309886 L6411.478783707294,-2767.785139130768 M6411.478783707294,-2767.785139130768 L6418.273236139616,-2771.858690559923 M6418.273236139616,-2771.858690559923 L6425.985455423687,-2773.4344671049976 M6425.985455423687,-2773.4344671049976 L6434.170773477447,-2772.39255537032 M6306.678168956194,-2641.235887517563 L6298.638112111803,-2645.364958399464 M6298.638112111803,-2645.364958399464 L6291.101812998272,-2651.8178674058254 M6291.101812998272,-2651.8178674058254 L6284.485988383418,-2660.2188689169016 M6284.485988383418,-2660.2188689169016 L6279.15363211526,-2670.093018129045 M6279.15363211526,-2670.093018129045 L6275.397661586967,-2680.890669811958 M6275.397661586967,-2680.890669811958 L6273.427613563874,-2692.0140947110785 M6273.427613563874,-2692.0140947110785 L6273.359420679104,-2702.8456293205422 M6273.359420679104,-2702.8456293205422 L6275.208406589486,-2712.7772355912557 M6275.208406589486,-2712.7772355912557 L6278.885959328929,-2721.2409047563974 M6278.885959328929,-2721.2409047563974 L6284.2005521998335,-2727.7394906773084 M6284.2005521998335,-2727.7394906773084 L6290.863886668372,-2731.876554679424 M6290.863886668372,-2731.876554679424 L6298.502924638718,-2733.38349156801 M6298.502924638718,-2733.38349156801 L6306.678168956194,-2732.141394460073 M6434.170773477447,-2772.39255537032 L6442.34666146507,-2768.76875275533 M6442.34666146507,-2768.76875275533 L6450.0222088585815,-2762.758354522284 M6450.0222088585815,-2762.758354522284 L6456.730248508891,-2754.708537093498 M6456.730248508891,-2754.708537093498 L6462.059440829209,-2745.098782954877 M6462.059440829209,-2745.098782954877 L6465.683281664598,-2734.5104153848024 M6465.683281664598,-2734.5104153848024 L6467.383089420986,-2723.587380816648 M6467.383089420986,-2723.587380816648 L6467.0626063426325,-2712.992054697854 M6467.0626063426325,-2712.992054697854 L6464.752941160223,-2703.360189874524 M6464.752941160223,-2703.360189874524 L6460.607737304998,-2695.259418463847 M6460.607737304998,-2695.259418463847 L6454.889619192994,-2689.1545361186277 M6454.889619192994,-2689.1545361186277 L6447.949879429805,-2685.3820959063064 M6447.949879429805,-2685.3820959063064 L6440.203743566123,-2684.1352065430037 M6440.203743566123,-2684.1352065430037 L6432.103654318971,-2685.45845893274 M6306.678168956194,-2732.141394460073 L6314.907984705764,-2728.195251786927 M6314.907984705764,-2728.195251786927 L6322.697936274333,-2721.7577936691087 M6322.697936274333,-2721.7577936691087 L6329.573198714567,-2713.201197848336 M6329.573198714567,-2713.201197848336 L6335.111326388764,-2703.036041914469 M6335.111326388764,-2703.036041914469 L6338.97224172688,-2691.878654170179 M6338.97224172688,-2691.878654170179 L6340.922361142314,-2680.409204953251 M6340.922361142314,-2680.409204953251 L6340.850331564109,-2669.324645187635 M6340.850331564109,-2669.324645187635 L6338.772973681257,-2659.290967119892 M6338.772973681257,-2659.290967119892 L6334.831227237927,-2650.899534559259 M6334.831227237927,-2650.899534559259 L6329.277132722553,-2644.6309227422803 M6329.277132722553,-2644.6309227422803 L6322.453834437287,-2640.8288888644465 M6322.453834437287,-2640.8288888644465 L6314.7710015212915,-2639.6853132727324 M6314.7710015212915,-2639.6853132727324 L6306.678168956194,-2641.235887517563" stroke="black"  stroke-width="4"  fill="red"/>
<path d="M572.2906043072653,-1382.7102965051529 L279.8239738618704,-1179.2443621064322 M279.8239738618704,-1179.2443621064322 L6.94804412105259,-957.5273281913355 M6.94804412105259,-957.5273281913355 L-229.2828714792049,-720.7862265442909 M-229.2828714792049,-720.7862265442909 L-407.145894190362,-475.16420908073724 M-407.145894190362,-475.16420908073724 L-501.1035752185653,-230.44168403868025 M-501.1035752185653,-230.44168403868025 L-484.3308162909716,-0.28128046965002795 M-484.3308162909716,-0.28128046965002795 L-333.2457976985015,198.48573509211337 M-333.2457976985015,198.48573509211337 L-33.58796493090176,347.924791676925 M-33.58796493090176,347.924791676925 L413.64702386279623,432.3327427672684 M413.64702386279623,432.3327427672684 L989.0835159250228,441.95306119931547 M989.0835159250228,441.95306119931547 L1656.7785435155183,375.6330071011025 M1656.7785435155183,375.6330071011025 L2371.0254856936253,241.15079947257846 M2371.0254856936253,241.15079947257846 L3085.580140783301,53.05724833786644 M3085.580140783301,53.05724833786644 L3761.705683284384,-170.9221259922556 M3761.705683284384,-170.9221259922556 L4372.612313160524,-413.43119041324144 M4372.612313160524,-413.43119041324144 L4903.979468838118,-659.897547342176 M4903.979468838118,-659.897547342176 L5351.834950260057,-899.5672048097645 M5351.834950260057,-899.5672048097645 L5719.381619374409,-1125.4418942800228 M5719.381619374409,-1125.4418942800228 L6013.985900148732,-1333.6450550683132 M6013.985900148732,-1333.6450550683132 L6244.848082352494,-1522.5946338608128 M6244.848082352494,-1522.5946338608128 L6421.468388874276,-1692.2443471510546 M6421.468388874276,-1692.2443471510546 L6552.767064572732,-1843.4803624247902 M6552.767064572732,-1843.4803624247902 L6646.662643014574,-1977.6885500367985 M6646.662643014574,-1977.6885500367985 L6709.939832936944,-2096.467358864179 M6709.939832936944,-2096.467358864179 L6748.277653815623,-2201.449119500189 M6748.277653815623,-2201.449119500189 L6766.355944267923,-2294.1970614770394 M6766.355944267923,-2294.1970614770394 L6767.990618323754,-2376.1519986128424 M6767.990618323754,-2376.1519986128424 L6756.271553335488,-2448.6100782736808 M6756.271553335488,-2448.6100782736808 L6733.687845923874,-2512.7190131932734 M6733.687845923874,-2512.7190131932734 L6702.238076343728,-2569.4840252276254 M6702.238076343728,-2569.4840252276254 L6663.522539487929,-2619.779555669997 M6663.522539487929,-2619.779555669997 L6618.819586050098,-2664.3624773423016 M6618.819586050098,-2664.3624773423016 L6569.147169974331,-2703.886042656322 M6569.147169974331,-2703.886042656322 L6515.313404320035,-2738.9126599888823 M6515.313404320035,-2738.9126599888823 L6457.956313501791,-2769.9258925757003 M6457.956313501791,-2769.9258925757003 L6397.575950501608,-2797.3409641095345 M6397.575950501608,-2797.3409641095345 L6334.5600760214,-2821.5138923420977 M6334.5600760214,-2821.5138923420977 L6269.204332002234,-2842.749414875153 M6269.204332002234,-2842.749414875153 L6201.72848541081,-2861.3077336197002 M6201.72848541081,-2861.3077336197002 L6132.289226358491,-2877.4102090497086 M6132.289226358491,-2877.4102090497086 L6060.990257383086,-2891.2441704638704 M6060.990257383086,-2891.2441704638704 L5987.890309952793,-2902.966924245191 M5987.890309952793,-2902.966924245191 L5913.0093408009525,-2912.7090530682667 M5913.0093408009525,-2912.7090530682667 L5836.333293652376,-2920.5771621410554 M5836.333293652376,-2920.5771621410554 L5757.817838335142,-2926.6560408357705 M5757.817838335142,-2926.6560408357705 L5677.391045738279,-2931.010374804133 M5677.391045738279,-2931.010374804133 L5594.95504529922,-2933.686090674986 M5594.95504529922,-2933.686090674986 L5510.387576679255,-2934.711197745241 M5510.387576679255,-2934.711197745241 L5423.542208437486,-2934.0963970623698 M5423.542208437486,-2934.0963970623698 L5334.248730081299,-2931.8352798748047 M5334.248730081299,-2931.8352798748047 L5242.312344362765,-2927.9042011384554 M5242.312344362765,-2927.9042011384554 L5147.513137928499,-2922.261766774113 M5147.513137928499,-2922.261766774113 L5049.604746375859,-2914.8481021766893 M5049.604746375859,-2914.8481021766893 L4948.312531353767,-2905.583584924015 M4948.312531353767,-2905.583584924015 L4843.331600048441,-2894.3672533265703 M4843.331600048441,-2894.3672533265703 L4734.324443714762,-2881.0747434605 M4734.324443714762,-2881.0747434605 L4620.918283104607,-2865.5557254456085 M4620.918283104607,-2865.5557254456085 L4502.701789016168,-2847.630696214551 M4502.701789016168,-2847.630696214551 L4379.222319672571,-2827.087263055334 M4379.222319672571,-2827.087263055334 L4249.982307953844,-2803.675437664689 M4249.982307953844,-2803.675437664689 L4114.435221493726,-2777.102119277511 M4114.435221493726,-2777.102119277511 L3971.9849113431083,-2747.0249042779124 M3971.9849113431083,-2747.0249042779124 L3821.980538298554,-2713.0441081934578 M3821.980538298554,-2713.0441081934578 L3663.71875429422,-2674.694252293805 M3663.71875429422,-2674.694252293805 L3496.4433293327465,-2631.4336541199177 M3496.4433293327465,-2631.4336541199177 L3319.351833691202,-2582.632973010229 M3319.351833691202,-2582.632973010229 L3131.60670620132,-2527.5624253363117 M3131.60670620132,-2527.5624253363117 L2932.35701303056,-2465.378396501724 M2932.35701303056,-2465.378396501724 L2720.771403748554,-2395.1094852862434 M2720.771403748554,-2395.1094852862434 L2496.092068788159,-2315.6444536753497 M2496.092068788159,-2315.6444536753497 L2257.719509825097,-2225.724429315974 M2257.719509825097,-2225.724429315974 L2005.3349873013967,-2123.9434690984135 M2005.3349873013967,-2123.9434690984135 L1739.084361857943,-2008.7654986486777 M1739.084361857943,-2008.7654986486777 L1459.8384542184522,-1878.5681873602912 M1459.8384542184522,-1878.5681873602912 L1169.5574399327006,-1731.7312788106574 M1169.5574399327006,-1731.7312788106574 L871.7866897178983,-1566.7938279617156 M871.7866897178983,-1566.7938279617156 L572.2906043072653,-1382.7102965051529 M-1302.0349311094133,-896.3300207440475 L-1946.0089364653259,-556.3053669685282 M-1946.0089364653259,-556.3053669685282 L-2644.5784931051057,-156.39829368552637 M-2644.5784931051057,-156.39829368552637 L-3387.912341682704,310.98538890903365 M-3387.912341682704,310.98538890903365 L-4153.385835918223,850.345871681634 M-4153.385835918223,850.345871681634 L-4898.63747356597,1458.9843121873892 M-4898.63747356597,1458.9843121873892 L-5554.163661045655,2120.769556881648 M-5554.163661045655,2120.769556881648 L-6019.627526102624,2798.6200495340127 M-6019.627526102624,2798.6200495340127 L-6171.856378040107,3429.257642021368 M-6171.856378040107,3429.257642021368 L-5893.392127713312,3927.2096382044783 M-5893.392127713312,3927.2096382044783 L-5120.746170990171,4204.783651209686 M-5120.746170990171,4204.783651209686 L-3889.3604525054216,4204.783651209707 M-3889.3604525054216,4204.783651209707 L-2338.776160142429,3927.2096382044783 M-2338.776160142429,3927.2096382044783 L-664.734770063922,3429.257642021368 M-664.734770063922,3429.257642021368 L950.4832748005092,2798.618721888419 M950.4832748005092,2798.618721888419 L2384.7852377285603,2120.769028035538 M2384.7852377285603,2120.769028035538 L3584.000270875308,1458.985135892939 M3584.000270875308,1458.985135892939 L4544.539802647989,850.3477745783453 M4544.539802647989,850.3477745783453 L5290.697499612982,310.985876011403 M5290.697499612982,310.985876011403 L5857.268022750372,-156.3981060642027 M5857.268022750372,-156.3981060642027 L6279.492041669072,-556.3045664432011 M6279.492041669072,-556.3045664432011 L6588.4823578475125,-896.3300207440475 M6588.4823578475125,-896.3300207440475 L6809.864049568731,-1184.8266040838391 M6809.864049568731,-1184.8266040838391 L6963.944658825336,-1429.740418143892 M6963.944658825336,-1429.740418143892 L7066.476242265532,-1638.1201261705319 M7066.476242265532,-1638.1201261705319 L7129.534026207951,-1815.9925231086286 M7129.534026207951,-1815.9925231086286 L7162.325260876721,-1968.4019836896723 M7162.325260876721,-1968.4019836896723 L7171.856378040107,-2099.5239130572472 M7171.856378040107,-2099.5239130572472 L7163.461218114037,-2212.7950296251793 M7163.461218114037,-2212.7950296251793 L7141.207399970661,-2311.03790439999 M7141.207399970661,-2311.03790439999 L7108.203206491281,-2396.5719317398725 M7108.203206491281,-2396.5719317398725 L7066.830438577934,-2471.30587226895 M7066.830438577934,-2471.30587226895 L7018.917385234268,-2536.8150454232427 M7018.917385234268,-2536.8150454232427 L6965.869555308783,-2594.403757866789 M6965.869555308783,-2594.403757866789 L6908.767950400039,-2645.1557400385377 M6908.767950400039,-2645.1557400385377 L6848.4433204103425,-2689.97463647677 M6848.4433204103425,-2689.97463647677 L6785.531884138527,-2729.6167085944953 M6785.531884138527,-2729.6167085944953 L6720.518162243724,-2764.716982365371 M6720.518162243724,-2764.716982365371 L6653.767541032289,-2795.8103122082093 M6653.767541032289,-2795.8103122082093 L6585.551059933389,-2823.3484309066666 M6585.551059933389,-2823.3484309066666 L6516.0645861705625,-2847.7136966848097 M6516.0645861705625,-2847.7136966848097 L6445.443589286735,-2869.2302421965333 M6445.443589286735,-2869.2302421965333 L6373.774404406508,-2888.1730548133364 M6373.774404406508,-2888.1730548133364 L6301.103063807466,-2904.775360845852 M6301.103063807466,-2904.775360845852 L6227.441951319841,-2919.2346466418467 M6227.441951319841,-2919.2346466418467 L6152.774951943951,-2931.717590157735 M6152.774951943951,-2931.717590157735 L6077.061325471924,-2942.3640510785513 M6077.061325471924,-2942.3640510785513 L6000.23853403056,-2951.290346730374 M6000.23853403056,-2951.290346730374 L5922.224303115704,-2958.5918749310454 M5922.224303115704,-2958.5918749310454 L5842.917992126286,-2964.3452133932483 M5842.917992126286,-2964.3452133932483 L5762.201299153329,-2968.6097869167484 M5762.201299153329,-2968.6097869167484 L5679.938599250629,-2971.429119636177 M5679.938599250629,-2971.429119636177 L5595.976810975857,-2972.8317219198743 M5595.976810975857,-2972.8317219198743 L5510.144669655289,-2972.8317170967694 M5510.144669655289,-2972.8317170967694 L5422.25186270194,-2971.4291123637327 M5422.25186270194,-2971.4291123637327 L5332.087618280254,-2968.6097905910956 M5332.087618280254,-2968.6097905910956 L5239.4189098761935,-2964.345208416722 M5239.4189098761935,-2964.345208416722 L5143.98804689396,-2958.591871754856 M5143.98804689396,-2958.591871754856 L5045.510338059227,-2951.290349257467 M5045.510338059227,-2951.290349257467 L4943.670401603889,-2942.36405713676 M4943.670401603889,-2942.36405713676 L4838.118639066483,-2931.717599239446 M4838.118639066483,-2931.717599239446 L4728.466587811395,-2919.2346437256647 M4728.466587811395,-2919.2346437256647 L4614.281309104784,-2904.7753639063767 M4614.281309104784,-2904.7753639063767 L4495.079811797716,-2888.1730548133364 M4495.079811797716,-2888.1730548133364 L4370.320782027871,-2869.2302387663517 M4370.320782027871,-2869.2302387663517 L4239.396818298759,-2847.7136783638944 M4239.396818298759,-2847.7136783638944 L4101.623570658836,-2823.348459460696 M4101.623570658836,-2823.348459460696 L3956.2276062677465,-2795.8103047524587 M3956.2276062677465,-2795.8103047524587 L3802.333758063174,-2764.716968302994 M3802.333758063174,-2764.716968302994 L3638.9468769139035,-2729.6167022369746 M3638.9468769139035,-2729.6167022369746 L3464.933286611316,-2689.974625245913 M3464.933286611316,-2689.974625245913 L3278.9977098097747,-2645.1557494068456 M3278.9977098097747,-2645.1557494068456 L3079.656867819158,-2594.4037508672827 M3079.656867819158,-2594.4037508672827 L2865.2089507286714,-2536.815029609119 M2865.2089507286714,-2536.815029609119 L2633.69768448674,-2471.30587226895 M2633.69768448674,-2471.30587226895 L2382.8730692523413,-2396.5719524369283 M2382.8730692523413,-2396.5719524369283 L2110.1482849738222,-2311.03790439999 M2110.1482849738222,-2311.03790439999 L1812.5553553384634,-2212.794973447661 M1812.5553553384634,-2212.794973447661 L1486.7027392081764,-2099.5238798515 M1486.7027392081764,-2099.5238798515 L1128.747380990524,-1968.4019836896723 M1128.747380990524,-1968.4019836896723 L734.3916050088883,-1815.9927146700638 M734.3916050088883,-1815.9927146700638 L298.93833108176295,-1638.1203600558656 M298.93833108176295,-1638.1203600558656 L-182.54331504309812,-1429.7403459345837 M-182.54331504309812,-1429.7403459345837 L-714.86476118051,-1184.8270100163172 M-714.86476118051,-1184.8270100163172 L-1302.0349311094133,-896.3300207440475 M572.2906043072653,-1382.7102965051529 L468.61495855310295,-1433.0616338885277 M468.61495855310295,-1433.0616338885277 L320.49265028918853,-1470.6720696927468 M320.49265028918853,-1470.6720696927468 L132.10260450957048,-1492.8939097952577 M132.10260450957048,-1492.8939097952577 L-89.85851292609095,-1497.3599970631662 M-89.85851292609095,-1497.3599970631662 L-335.61295490620523,-1482.2767877913893 M-335.61295490620523,-1482.2767877913893 L-591.9815958803338,-1446.8221430555097 M-591.9815958803338,-1446.8221430555097 L-842.5628916922915,-1391.5972935246216 M-842.5628916922915,-1391.5972935246216 L-1068.7345718215274,-1319.012350825287 M-1068.7345718215274,-1319.012350825287 L-1251.5144103107586,-1233.4653142444854 M-1251.5144103107586,-1233.4653142444854 L-1374.2152184834067,-1141.1328695859752 M-1374.2152184834067,-1141.1328695859752 L-1425.194975723205,-1049.3362234168846 M-1425.194975723205,-1049.3362234168846 L-1399.9897767195143,-965.5504258795122 M-1399.9897767195143,-965.5504258795122 L-1302.0349311094133,-896.3300207440475 M-1302.0349311094133,-896.3300207440475 L-1141.7856732995042,-846.4455705184328 M-1141.7856732995042,-846.4455705184328 L-934.5911833425853,-818.4509714239962 M-934.5911833425853,-818.4509714239962 L-698.0515518947732,-812.727374196139 M-698.0515518947732,-812.727374196139 L-449.62734734640344,-827.8786043254427 M-449.62734734640344,-827.8786043254427 L-204.9717020228718,-861.2837439166474 M-204.9717020228718,-861.2837439166474 L22.946808834402873,-909.6457592898741 M22.946808834402873,-909.6457592898741 L224.00061911822377,-969.4132328333249 M224.00061911822377,-969.4132328333249 L390.6776010197682,-1037.0664046619722 M390.6776010197682,-1037.0664046619722 L517.6052546039446,-1109.2506362582346 M517.6052546039446,-1109.2506362582346 L601.0976649785625,-1182.8202132957806 M601.0976649785625,-1182.8202132957806 L638.7636231715878,-1254.8081302691203 M638.7636231715878,-1254.8081302691203 L629.2721275156073,-1322.367981183017 M629.2721275156073,-1322.367981183017 L572.2906043072653,-1382.7102965051529" stroke="black"  stroke-width="4"  fill="red"/></svg>