<svg viewBox="0 0 1000 1000" xmlns="http://www.w3.org/2000/svg"><path d="M526.5329681176538,485.90905353454315 L527.2627377012733,486.5617430011225 M527.2627377012733,486.5617430011225 L527.8459919224756,487.29531976694324 M527.8459919224756,487.29531976694324 L528.2675655337296,488.090870859754 M528.2675655337296,488.090870859754 L528.5164480287001,488.9278599006826 M528.5164480287001,488.9278599006826 L528.5860784526319,489.7846509718227 M528.5860784526319,489.7846509718227 L528.4745259761714,490.6390658551156 M528.4745259761714,490.6390658551156 L528.184554680776,491.4689566047525 M528.184554680776,491.4689566047525 L527.7235634529993,492.252780622348 M527.7235634529993,492.252780622348 L527.1034064433193,492.97016454749905 M527.1034064433193,492.97016454749905 L526.3400948582793,493.6024384148336 M526.3400948582793,493.6024384148336 L525.4533875989521,494.1331295208879 M525.4533875989521,494.1331295208879 L524.4662807802043,494.54839835328397 M524.4662807802043,494.54839835328397 L523.4044076859229,494.83740674517117 M523.4044076859229,494.83740674517117 L522.2953697983078,494.99260772697124 M522.2953697983078,494.99260772697124 L521.1680107910177,495.0099465921892 M521.1680107910177,495.0099465921892 L520.0516563719954,494.8889708003665 M520.0516563719954,494.8889708003665 L518.9753433154353,494.6328401089464 M518.9753433154353,494.6328401089464 L517.9670527928126,494.24824475531153 M517.9670527928126,494.24824475531153 L517.052975803842,493.7452233555583 M517.052975803842,493.7452233555583 L516.2568271406913,493.13689657767253 M516.2568271406913,493.13689657767253 L515.5992264370054,492.43911756995533 M515.5992264370054,492.43911756995533 L515.0971641690593,491.67005126895907 M515.0971641690593,491.67005126895907 L514.7635656462129,490.84969393189266 M514.7635656462129,490.84969393189266 L514.6069665482738,489.9993474004711 M514.6069665482738,489.9993474004711 L514.6312987394467,489.14106250537776 M514.6312987394467,489.14106250537776 L514.8358048343657,488.29706377715274 M514.8358048343657,488.29706377715274 L515.2150683521304,487.4891756789905 M515.2150683521304,487.4891756789905 L515.7591679615208,486.73826042049626 M515.7591679615208,486.73826042049626 L516.4539435168263,486.06368333869216 M516.4539435168263,486.06368333869216 L517.2813705294816,485.48282132680293 M517.2813705294816,485.48282132680293 L518.2200299508274,485.01062148396863 M518.2200299508274,485.01062148396863 L519.245660816463,484.6592240559325 M519.245660816463,484.6592240559325 L520.3317848221011,484.43765723798543 M520.3317848221011,484.43765723798543 L521.4503820846379,484.3516108003429 M521.4503820846379,484.3516108003429 L522.5726067734839,484.4032941718958 M522.5726067734839,484.4032941718958 L523.6695207389839,484.59138010851194 M523.6695207389839,484.59138010851194 L524.712829275481,484.9110391787513 M524.712829275481,484.9110391787513 L525.6756037283894,485.3540596682578 M525.6756037283894,485.3540596682578 L526.5329681176538,485.90905353454315 M522.1895787010636,489.220856916682 L522.0289395793352,489.12491682845746 M522.0289395793352,489.12491682845746 L521.8428638504547,489.0610736448974 M521.8428638504547,489.0610736448974 L521.6421614088335,489.0330341499976 M521.6421614088335,489.0330341499976 L521.4384905681163,489.04242621537406 M521.4384905681163,489.04242621537406 L521.2436817398107,489.088704658791 M521.2436817398107,489.088704658791 L521.0690514515932,489.1691825464059 M521.0690514515932,489.1691825464059 L520.9247456674452,489.27918701912495 M520.9247456674452,489.27918701912495 L520.8191509343762,489.41232972937803 M520.8191509343762,489.41232972937803 L520.7584068663863,489.56087711811034 M520.7584068663863,489.56087711811034 L520.7460489017292,489.7161988005056 M520.7460489017292,489.7161988005056 L520.7828012917596,489.8692686486423 M520.7828012917596,489.8692686486423 L520.8665339293628,490.0111891120283 M520.8665339293628,490.0111891120283 L520.9923847079231,490.13370877850554 M520.9923847079231,490.13370877850554 L521.1530411943222,490.2297025852416 M521.1530411943222,490.2297025852416 L521.3391650391388,490.29358718104993 M521.3391650391388,490.29358718104993 L521.5399353251921,490.3216462948972 M521.5399353251921,490.3216462948972 L521.743678196497,490.31224756070833 M521.743678196497,490.31224756070833 L521.938546740212,490.2659376884101 M521.938546740212,490.2659376884101 L522.1132107485705,490.1854108118797 M522.1132107485705,490.1854108118797 L522.2575165327173,490.07535101295747 M522.2575165327173,490.07535101295747 L522.3630775456442,489.94215931378756 M522.3630775456442,489.94215931378756 L522.4237618982254,489.7935804961888 M522.4237618982254,489.7935804961888 L522.436047832297,489.638252144957 M522.436047832297,489.638252144957 L522.3992275978361,489.48520191575926 M522.3992275978361,489.48520191575926 L522.3154468442967,489.3433228646262 M522.3154468442967,489.3433228646262 L522.1895787010636,489.220856916682 M526.5329681176538,485.90905353454315 L526.5358399857466,484.3987192373794 M526.5358399857466,484.3987192373794 L527.2660342545546,485.05151413327394 M527.2660342545546,485.05151413327394 L527.8496282218507,485.78520955833477 M527.8496282218507,485.78520955833477 L528.2714477722035,486.58088953136877 M528.2714477722035,486.58088953136877 L528.5204759227695,487.418014386083 M528.5204759227695,487.418014386083 L528.5901478124614,488.27494471843255 M528.5901478124614,488.27494471843255 L528.4785313900019,489.12949871272076 M528.4785313900019,489.12949871272076 L528.1883922471657,489.959524806102 M528.1883922471657,489.959524806102 L527.7271334881689,490.74347685876637 M527.7271334881689,490.74347685876637 L527.1066160929997,491.4609781400549 M527.1066160929997,491.4609781400549 L526.3428605429815,492.09335557820305 M526.3428605429815,492.09335557820305 L525.455637225222,492.62413371473895 M525.455637225222,492.62413371473895 L524.4679556558272,493.0394707123956 M524.4679556558272,493.0394707123956 L523.405464083655,493.32852657708764 M523.405464083655,493.32852657708764 L522.2957801249659,493.4837530634832 M522.2957801249659,493.4837530634832 L521.167764326233,493.5010947785265 M521.167764326233,493.5010947785265 L520.0507595550847,493.3800991050805 M520.0507595550847,493.3800991050805 L518.973819573429,493.12392633575615 M518.973819573429,493.12392633575615 L517.9649419125413,492.73926783944097 M517.9649419125413,492.73926783944097 L517.050332868205,492.236163925948 M517.050332868205,492.236163925948 L516.2537210596588,491.6277374695538 M516.2537210596588,491.6277374695538 L515.5957381153464,490.92984427308045 M515.5957381153464,490.92984427308045 L515.0933843635044,490.16065229954313 M515.0933843635044,490.16065229954313 L514.7595925723257,489.34016111898 M514.7595925723257,489.34016111898 L514.602903304836,488.48967608056813 M514.602903304836,488.48967608056813 L514.6272506167584,487.63125162217943 M514.6272506167584,487.63125162217943 L514.8318765827325,486.7871158856069 M514.8318765827325,486.7871158856069 L515.2113614781163,485.9790968564422 M515.2113614781163,485.9790968564422 L515.75577812345,485.22806008923743 M515.75577812345,485.22806008923743 L516.4509580828856,484.55337400654037 M516.4509580828856,484.55337400654037 L517.2788663590267,483.97241825433053 M517.2788663590267,483.97241825433053 L518.2180714513283,483.5001422874939 M518.2180714513283,483.5001422874939 L519.2442983210485,483.1486882568992 M519.2442983210485,483.1486882568992 L520.3310533264066,482.927085769801 M520.3310533264066,482.927085769801 L521.4503003700075,482.84102548416104 M521.4503003700075,482.84102548416104 L522.5731769376877,482.89271717315916 M522.5731769376877,482.89271717315916 L523.6707281437846,483.0808333858709 M523.6707281437846,483.0808333858709 L524.7146429121615,483.40054393766394 M524.7146429121615,483.40054393766394 L525.6779769944791,483.8436358307987 M525.6779769944791,483.8436358307987 L526.5358399857466,484.3987192373794 M522.1899686403269,487.5297652404282 L522.0292248538859,487.4338076952984 M522.0292248538859,487.4338076952984 L521.843027896149,487.36995289691225 M521.843027896149,487.36995289691225 L521.6421947015223,487.341908301325 M521.6421947015223,487.341908301325 L521.4383911749931,487.351302075188 M521.4383911749931,487.351302075188 L521.2434554312358,487.39758893746426 M521.2434554312358,487.39758893746426 L521.068711367172,487.47808146726044 M521.068711367172,487.47808146726044 L520.9243115552442,487.5881059580289 M520.9243115552442,487.5881059580289 L520.8186480070246,487.7212729027624 M520.8186480070246,487.7212729027624 L520.7578643395223,487.86984733748216 M520.7578643395223,487.86984733748216 L520.7454982990939,488.02519730779267 M520.7454982990939,488.02519730779267 L520.7822746143859,488.1782950422649 M520.7822746143859,488.1782950422649 L520.8660617954017,488.32024136835577 M520.8660617954017,488.32024136835577 L520.9919945710365,488.44278336791496 M520.9919945710365,488.44278336791496 L521.1527557447848,488.53879467634914 M521.1527557447848,488.53879467634914 L521.3390008811817,488.60269092151503 M521.3390008811817,488.60269092151503 L521.5399020086825,488.6307551524089 M521.5399020086825,488.6307551524089 L521.7437776596983,488.62135470417263 M521.7437776596983,488.62135470417263 L521.93877319671,488.5750363868084 M521.93877319671,488.5750363868084 L522.1135510248722,488.49449482724754 M522.1135510248722,488.49449482724754 L522.257950836799,488.3844149641425 M522.257950836799,488.3844149641425 L522.3635806209187,488.25119898964317 M522.3635806209187,488.25119898964317 L522.4243044951675,488.1025930998499 M522.4243044951675,488.1025930998499 L522.4365984111114,487.9472364551421 M522.4365984111114,487.9472364551421 L522.399754162947,487.794158355968 M522.399754162947,487.794158355968 L522.315918803271,487.6522534766615 M522.315918803271,487.6522534766615 L522.1899686403269,487.5297652404282 M522.1899686403269,487.5297652404282 L522.1895787010636,489.220856916682 M525.7124280815673,485.02630195627324 L526.3662698528801,485.61906787690594 M526.3662698528801,485.61906787690594 L526.8753243021121,486.28943420250954 M526.8753243021121,486.28943420250954 L527.2240678581912,487.01710674761165 M527.2240678581912,487.01710674761165 L527.4018182638324,487.7800308545654 M527.4018182638324,487.7800308545654 L527.403068338921,488.5550551506451 M527.403068338921,488.5550551506451 L527.22766730594,489.31863099343525 M527.22766730594,489.31863099343525 L526.8808389770413,490.047528401629 M526.8808389770413,490.047528401629 L526.3730346046493,490.71954498143583 M526.3730346046493,490.71954498143583 L525.7196269821402,491.31418750312946 M525.7196269821402,491.31418750312946 L524.9404495990614,491.8133031127871 M524.9404495990614,491.8133031127871 L524.0591970447841,492.2016417035697 M524.0591970447841,492.2016417035697 L523.1027019913645,492.46732907907636 M523.1027019913645,492.46732907907636 L522.1001136773386,492.60223725803627 M522.1001136773386,492.60223725803627 L521.0820013298224,492.60223725803627 M521.0820013298224,492.60223725803627 L520.0794130157965,492.46732907907636 M520.0794130157965,492.46732907907636 L519.1229179623768,492.2016417035697 M519.1229179623768,492.2016417035697 L518.2416654080996,491.8133031127871 M518.2416654080996,491.8133031127871 L517.4624880250208,491.31418750312946 M517.4624880250208,491.31418750312946 L516.8090804025117,490.71954498143583 M516.8090804025117,490.71954498143583 L516.3012760301197,490.047528401629 M516.3012760301197,490.047528401629 L515.9544477012209,489.31863099343525 M515.9544477012209,489.31863099343525 L515.77904666824,488.5550551506451 M515.77904666824,488.5550551506451 L515.7802967433287,487.7800308545654 M515.7802967433287,487.7800308545654 L515.9580471489697,487.01710674761176 M515.9580471489697,487.01710674761176 L516.306790705049,486.28943420250954 M516.306790705049,486.28943420250954 L516.8158451542809,485.61906787690594 M516.8158451542809,485.61906787690594 L517.4696869255938,485.02630195627324 M517.4696869255938,485.02630195627324 L518.2484301633923,484.52906294838766 M518.2484301633923,484.52906294838766 L519.1284326427043,484.14237461440644 M519.1284326427043,484.14237461440644 L520.0830124682925,483.87791210469874 M520.0830124682925,483.87791210469874 L521.083251406786,483.7436556642762 M521.083251406786,483.7436556642762 L522.0988636003749,483.7436556642762 M522.0988636003749,483.7436556642762 L523.0991025388687,483.87791210469874 M523.0991025388687,483.87791210469874 L524.0536823644568,484.14237461440644 M524.0536823644568,484.14237461440644 L524.9336848437687,484.52906294838766 M524.9336848437687,484.52906294838766 L525.7124280815673,485.02630195627324 M522.1899686403269,487.5297652404282 L522.5046433232055,486.84677883283774 M522.5046433232055,486.84677883283774 L522.5868985792869,486.6682476710686 M523.7266197909582,486.3118471944909 L523.5931391589569,486.53880400300625 M523.5931391589569,486.53880400300625 L523.4423833270125,486.72876924070215 M523.4423833270125,486.72876924070215 L523.3087077062976,486.84175846314724 M523.3087077062976,486.84175846314724 L523.2232029854465,486.88544748982264 M523.2232029854465,486.88544748982264 L523.1190190195844,486.9081643390681 M523.1190190195844,486.9081643390681 L523.0066651321847,486.8983049567641 M523.0066651321847,486.8983049567641 L522.8828203724433,486.8548194355043 M522.8828203724433,486.8548194355043 L522.7447189572272,486.7786250326149 M522.7447189572272,486.7786250326149 L522.6672227616145,486.72699139305035 M522.6672227616145,486.72699139305035 L522.5868985792869,486.6682476710686 M522.0426537854569,485.02961325636346 L521.5129868776348,484.9947017829007 M521.5129868776348,484.9947017829007 L520.9879482674176,485.05836830613396 M520.9879482674176,485.05836830613396 L520.4986657268182,485.216843432801 M520.4986657268182,485.216843432801 L520.0741554191076,485.4607428273698 M520.0741554191076,485.4607428273698 L519.7396062899695,485.77561889928296 M519.7396062899695,485.77561889928296 L519.5148870637269,486.14281108403384 M519.5148870637269,486.14281108403384 L519.4133654441687,486.54054619131114 M519.4133654441687,486.54054619131114 L519.4411074636582,486.9452255939823 M519.4411074636582,486.9452255939823 L519.5965086258911,487.3328223527937 M519.5965086258911,487.3328223527937 L519.8703790974739,487.68030931344293 M519.8703790974739,487.68030931344293 L520.2464808230648,487.9670296786765 M520.2464808230648,487.9670296786765 L520.7024870785624,488.17593025248834 M520.7024870785624,488.17593025248834 L521.211307604852,488.2945811861344 M521.211307604852,488.2945811861344 L521.7427018270137,488.3159207966413 M521.7427018270137,488.3159207966413 L522.2650814711224,488.2386789070528 M522.2650814711224,488.2386789070528 L522.7473969766315,488.0674529315657 M522.7473969766315,488.0674529315657 L523.1609887437679,487.8124324682731 M523.1609887437679,487.8124324682731 L523.4812954909967,487.4887880480126 M523.4812954909967,487.4887880480126 L523.6893143740783,487.1157636932578 M523.6893143740783,487.1157636932578 L523.7727261819691,486.71552689194795 M523.7727261819691,486.71552689194795 L523.7266197909582,486.3118471944909 M522.5868985792869,486.6682476710686 L522.420921963451,486.5316845579665 M522.420921963451,486.5316845579665 L522.2627185920896,486.37948365594747 M522.2627185920896,486.37948365594747 L522.124938118367,486.2180794129682 M522.124938118367,486.2180794129682 L522.016427100948,486.0507408537812 M522.016427100948,486.0507408537812 L521.943202387313,485.88289311476757 M521.943202387313,485.88289311476757 L521.9044371763255,485.7175604099679 M521.9044371763255,485.7175604099679 L521.8960218686101,485.5548133420494 M521.8960218686101,485.5548133420494 L521.9135529047085,485.39674251606044 M521.9135529047085,485.39674251606044 L521.9649385446031,485.2080834520257 M521.9649385446031,485.2080834520257 L522.0426537854569,485.02961325636346 M525.7124280815673,485.02630195627324 L525.7133864841201,484.42171710419774 M525.7133864841201,484.42171710419774 L525.4785815403859,484.22820840400834 M525.4785815403859,484.22820840400834 L525.2546855192147,484.0151719491239 M525.2546855192147,484.0151719491239 L525.0926998003995,483.8397055087535 M525.0926998003995,483.8397055087535 L524.9632170107416,483.6811825380975 M524.9632170107416,483.6811825380975 L524.8532823936455,483.5270494586152 M524.8532823936455,483.5270494586152 L524.7377861629823,483.3302041212938 M524.7377861629823,483.3302041212938 L524.6505044595422,483.1224350462275 M524.6505044595422,483.1224350462275 L524.6083226914664,482.9311588440831 M524.6083226914664,482.9311588440831 L524.6112090592795,482.75912557519337 M524.6112090592795,482.75912557519337 L524.6591765664748,482.6101726843037 M524.6591765664748,482.6101726843037 L524.7522556122807,482.4897736300372 M524.7522556122807,482.4897736300372 L524.8905063543618,482.4056307463545 M524.8905063543618,482.4056307463545 L525.0733921955001,482.36884560669995 M525.0733921955001,482.36884560669995 L525.2740621921242,482.38870363696225 M525.2740621921242,482.38870363696225 L525.4782346475797,482.4603314182318 M525.4782346475797,482.4603314182318 L525.5970742814922,482.52460901379106 M525.5970742814922,482.52460901379106 L525.7162643681022,482.6062742547081 M525.7162643681022,482.6062742547081 L525.7196269821402,480.4850512835438 M519.5687992855533,479.4597428438369 L520.48274118921,479.2656369704686 M520.48274118921,479.2656369704686 L521.4258660473347,479.18667842150995 M521.4258660473347,479.18667842150995 L522.3733399424909,479.2249384507414 M522.3733399424909,479.2249384507414 L523.3002164447254,479.37941338080697 M523.3002164447254,479.37941338080697 L524.1820849388154,479.64605020780124 M524.1820849388154,479.64605020780124 L524.9957076747264,480.0178506895408 M524.9957076747264,480.0178506895408 L525.7196269821402,480.4850512835438 M519.5687992855533,479.4597428438369 L519.5118448446194,479.824042238255 M519.5118448446194,479.824042238255 L519.3434506250551,480.21389708567835 M519.3434506250551,480.21389708567835 L519.071310373314,480.627012269744 M519.071310373314,480.627012269744 L518.735296691126,481.03174125288643 M518.735296691126,481.03174125288643 L518.3608934616723,481.4268045391262 M518.3608934616723,481.4268045391262 L517.9387892846491,481.8384005899613 M517.9387892846491,481.8384005899613 L517.4916887071097,482.2542007161103 M517.4916887071097,482.2542007161103 L517.1006864309043,482.60705166635125 M517.1006864309043,482.60705166635125 L516.7884047931051,482.88021085414886 M516.7884047931051,482.88021085414886 L516.5313948627954,483.0926480270388 M516.5313948627954,483.0926480270388 L516.3317555562169,483.2384947654343 M516.3317555562169,483.2384947654343 L516.1822746558609,483.32014488791725 M516.1822746558609,483.32014488791725 L516.073192754651,483.34260653623437 M516.073192754651,483.34260653623437 L515.995574686909,483.31057813922723 M515.995574686909,483.31057813922723 L515.9421834141658,483.22770424177185 M515.9421834141658,483.22770424177185 L515.9075558442385,483.09670110146124 M515.9075558442385,483.09670110146124 L515.8878755193566,482.9198747647155 M515.8878755193566,482.9198747647155 L515.8826990353084,482.8096525973537 M515.8826990353084,482.8096525973537 L515.8808046471684,482.68775387654466 M522.827770057726,487.98088769111286 L521.8635183541035,488.0768052326044 M521.8635183541035,488.0768052326044 L520.8917120023625,488.0496736233046 M520.8917120023625,488.0496736233046 L519.9392952643184,487.90024833853556 M519.9392952643184,487.90024833853556 L519.0326671907998,487.632686554563 M519.0326671907998,487.632686554563 L518.1969459166684,487.25442987955256 M518.1969459166684,487.25442987955256 L517.455263931445,486.77599305940106 M517.455263931445,486.77599305940106 L516.8281256218102,486.21066632223193 M516.8281256218102,486.21066632223193 L516.3328385531518,485.57414010912345 M516.3328385531518,485.57414010912345 L515.9830371904291,484.88406310752856 M515.9830371904291,484.88406310752856 L515.788311546746,484.15954882111185 M515.788311546746,484.15954882111185 L515.7539500829623,483.42063988806746 M515.7539500829623,483.42063988806746 L515.8808046471684,482.68775387654466 M527.0752654218333,485.1695876209498 L527.053091573039,485.5609936698882 M527.053091573039,485.5609936698882 L526.9851470668954,486.0281026412245 M526.9851470668954,486.0281026412245 L526.8626544634,486.55610035564297 M526.8626544634,486.55610035564297 L526.6875949807488,487.08442457958876 M526.6875949807488,487.08442457958876 L526.4580281836149,487.59089192387677 M526.4580281836149,487.59089192387677 L526.1488150846747,488.0897022169159 M526.1488150846747,488.0897022169159 L525.7502027102344,488.54374466833104 M525.7502027102344,488.54374466833104 L525.3237937345991,488.8707633444776 M525.3237937345991,488.8707633444776 L524.9118560163231,489.06889149608844 M524.9118560163231,489.06889149608844 L524.5051853558946,489.16800212823534 M524.5051853558946,489.16800212823534 L524.1275506544331,489.17872334113986 M524.1275506544331,489.17872334113986 L523.7917136501965,489.1186892529584 M523.7917136501965,489.1186892529584 L523.5031809674907,489.0045719705079 M523.5031809674907,489.0045719705079 L523.2643135395145,488.84970648731195 M523.2643135395145,488.84970648731195 L523.0763582524523,488.6642245997985 M523.0763582524523,488.6642245997985 L522.9403439031412,488.45580494026336 M522.9403439031412,488.45580494026336 L522.8572679749784,488.2304312023234 M522.8572679749784,488.2304312023234 L522.8351218869691,488.1071219962023 M522.8351218869691,488.1071219962023 L522.827770057726,487.98088769111286 M525.7196269821402,480.4850512835438 L526.3347272344146,481.0353745943326 M526.3347272344146,481.0353745943326 L526.824738955751,481.6543465107905 M526.824738955751,481.6543465107905 L527.1766701684178,482.3256718828863 M527.1766701684178,482.3256718828863 L527.3811540506165,483.03165823310076 M527.3811540506165,483.03165823310076 L527.4327034574039,483.753678331737 M527.4327034574039,483.753678331737 L527.3298647119955,484.47265987135785 M527.3298647119955,484.47265987135785 L527.0752654218333,485.1695876209498 M525.7162643681022,482.6062742547081 L525.9385968694651,482.8095035411462 M525.9385968694651,482.8095035411462 L526.1292163783219,483.04818420013237 M526.1292163783219,483.04818420013237 L526.255575699885,483.2510434132724 M526.255575699885,483.2510434132724 L526.3501943533096,483.4363705281239 M526.3501943533096,483.4363705281239 L526.4263216405143,483.6164632408227 M526.4263216405143,483.6164632408227 L526.502312589475,483.8435696698255 M526.502312589475,483.8435696698255 L526.5528873161461,484.05368597046277 M526.5528873161461,484.05368597046277 L526.5780292167153,484.22302036828864 M526.5780292167153,484.22302036828864 L526.585084141104,484.37181530367275 M526.585084141104,484.37181530367275 L526.5743581679725,484.498101787279 M526.5743581679725,484.498101787279 L526.5454323386957,484.5998958330979 M526.5454323386957,484.5998958330979 L526.4971533606824,484.6749921896165 M526.4971533606824,484.6749921896165 L526.4275470844534,484.7208283664916 M526.4275470844534,484.7208283664916 L526.3338579709153,484.7341790914311 M526.3338579709153,484.7341790914311 L526.2127150523869,484.7110805501564 M526.2127150523869,484.7110805501564 L526.0600287885317,484.6466373615632 M526.0600287885317,484.6466373615632 L525.8965243391881,484.55109883513165 M525.8965243391881,484.55109883513165 L525.7133864841201,484.42171710419774 M523.7266197909582,486.3118471944909 L525.6237723898323,484.86597932826874 M522.0426537854569,485.02961325636346 L523.9398070254244,483.5847746527851 M525.6237723898323,484.86597932826874 L526.0092791042725,485.5080623084745 M526.0092791042725,485.5080623084745 L526.2207723957617,486.1956320395766 M526.2207723957617,486.1956320395766 L526.2498195835472,486.9016190500338 M526.2498195835472,486.9016190500338 L526.095169133068,487.59819621825267 M526.095169133068,487.59819621825267 L525.7628179347121,488.25787625946657 M525.7628179347121,488.25787625946657 L525.2657882647512,488.85459827118535 M525.2657882647512,488.85459827118535 L524.6236292559464,489.36476457823005 M524.6236292559464,489.36476457823005 L523.861652317385,489.7681821515156 M523.861652317385,489.7681821515156 L523.0099334085623,490.0488711191528 M523.0099334085623,490.0488711191528 L522.1021228663047,490.195706588574 M522.1021228663047,490.195706588574 L521.1741061034922,490.2028673549328 M521.1741061034922,490.2028673549328 L520.262574486914,490.0700689728507 M520.262574486914,490.0700689728507 L519.4035621720988,489.80257711918136 M519.4035621720988,489.80257711918136 L518.6310098596114,489.41099350179536 M518.6310098596114,489.41099350179536 L517.9754145344971,488.91083048718673 M517.9754145344971,488.91083048718673 L517.4626213694506,488.32188698103727 M517.4626213694506,488.32188698103727 L517.1128049443661,487.6674552542321 M517.1128049443661,487.6674552542321 L516.9396792817452,486.9733914779164 M516.9396792817452,486.9733914779164 L516.9499710702062,486.2670873127602 M516.9499710702062,486.2670873127602 L517.1431675831766,485.5763852985535 M517.1431675831766,485.5763852985535 L517.5115559715384,484.92848152295005 M517.5115559715384,484.92848152295005 L518.0405403858191,484.3488592760447 M518.0405403858191,484.3488592760447 L518.7092298397896,483.86029266701485 M518.7092298397896,483.86029266701485 L519.4912674583704,483.48196163032895 M519.4912674583704,483.48196163032895 L520.3558685170593,483.22870794119285 M520.3558685170593,483.22870794119285 L521.2690265717256,483.11046074260685 M521.2690265717256,483.11046074260685 L522.1948430987243,483.13185541460996 M522.1948430987243,483.13185541460996 L523.0969255091285,483.2920532211455 M523.0969255091285,483.2920532211455 L523.9398070254244,483.5847746527851 M525.7133864841201,484.42171710419774 L524.8894959635998,485.049559276088 M524.8917990743597,483.2342379078922 L525.1289162896544,483.441008851521 M525.1289162896544,483.441008851521 L525.3521941477578,483.68855982536445 M525.3521941477578,483.68855982536445 L525.5486402832403,483.96248901823844 M525.5486402832403,483.96248901823844 L525.7068251059469,484.24685724971926 M525.7068251059469,484.24685724971926 L525.8175486456221,484.52511898576904 M525.8175486456221,484.52511898576904 L525.8743772263092,484.7810888329344 M525.8743772263092,484.7810888329344 L525.8740167912534,484.9998843687901 M525.8740167912534,484.9998843687901 L525.8165024545852,485.1687926049792 M525.8165024545852,485.1687926049792 L525.7051932108968,485.27800887310366 M525.7051932108968,485.27800887310366 L525.546572858498,485.3212039128194 M525.546572858498,485.3212039128194 L525.3498700786004,485.29588707371136 M525.3498700786004,485.29588707371136 L525.1265193164404,485.2035464394621 M525.1265193164404,485.2035464394621 L524.8894959635998,485.049559276088 M524.8894959635998,485.049559276088 L524.652563231994,484.842876593026 M524.652563231994,484.842876593026 L524.4294750210322,484.5955023809126 M524.4294750210322,484.5955023809126 L524.2331802501517,484.32179795701177 M524.2331802501517,484.32179795701177 L524.0750738338918,484.0376510096681 M524.0750738338918,484.0376510096681 L523.9643377804762,483.75955637939035 M523.9643377804762,483.75955637939035 L523.9074086324736,483.50366117793703 M523.9074086324736,483.50366117793703 L523.9076034853886,483.2848307271138 M523.9076034853886,483.2848307271138 L523.9649251582284,483.115786013941 M523.9649251582284,483.115786013941 L524.0760587933225,483.0063629722356 M524.0760587933225,483.0063629722356 L524.2345608219036,482.96293823136136 M524.2345608219036,482.96293823136136 L524.4312296694274,482.98805506349225 M524.4312296694274,482.98805506349225 L524.654638664261,483.08027120439897 M524.654638664261,483.08027120439897 L524.8917990743597,483.2342379078922 M520.6986772145644,480.13803126723417 L520.3256526102408,479.9084073737167 M520.3256526102408,479.9084073737167 L519.9490078318719,479.68230022065745 M519.9490078318719,479.68230022065745 L519.5687992855533,479.4597428438369 M520.6986772145644,480.13803126723417 L521.6063753495387,480.0726163709503 M521.6063753495387,480.0726163709503 L522.5134915928793,480.14255786618116 M522.5134915928793,480.14255786618116 L523.3855544524648,480.3452055038972 M523.3855544524648,480.3452055038972 L524.1894138477403,480.6728794754583 M524.1894138477403,480.6728794754583 L524.8944901052232,481.11315631934076 M524.8944901052232,481.11315631934076 L525.4739327169304,481.6493324759976 M525.4739327169304,481.6493324759976 L525.9056393480994,482.26105003295834 M525.9056393480994,482.26105003295834 L526.1731018094574,482.92506019746946 M526.1731018094574,482.92506019746946 L526.2660432700707,483.6161009948073 M526.2660432700707,483.6161009948073 L526.180822160432,484.30785216167743 M527.0752654218333,485.1695876209498 L526.7816893120196,484.879529723236 M526.7816893120196,484.879529723236 L526.4835263189427,484.5922705688196 M526.4835263189427,484.5922705688196 L526.180822160432,484.30785216167743 M520.6986772145644,480.13803126723417 L520.6390834141982,480.4794867317384 M520.6390834141982,480.4794867317384 L520.4649234206368,480.8327975401778 M520.4649234206368,480.8327975401778 L520.2466799895559,481.12892943499094 M520.2466799895559,481.12892943499094 L519.9921174643109,481.41038882647274 M519.9921174643109,481.41038882647274 L519.6923850540345,481.7028506445423 M519.6923850540345,481.7028506445423 L519.3537509713976,482.0087098305101 M519.3537509713976,482.0087098305101 L518.9842666808415,482.3286615579594 M518.9842666808415,482.3286615579594 L518.5969771537822,482.6588083678884 M518.5969771537822,482.6588083678884 L518.2140937571693,482.9862655949486 M518.2140937571693,482.9862655949486 L517.8661575068252,483.28773094215956 M517.8661575068252,483.28773094215956 L517.5790870409713,483.5386000414536 M517.5790870409713,483.5386000414536 L517.3608355094321,483.72562395627267 M517.3608355094321,483.72562395627267 L517.2041223253439,483.84759814609544 M517.2041223253439,483.84759814609544 L517.0963455936333,483.90836352278353 M517.0963455936333,483.90836352278353 L517.0253349687277,483.91191953618835 M517.0253349687277,483.91191953618835 L516.9809017589882,483.86086696263817 M516.9809017589882,483.86086696263817 L516.9561469493052,483.76457772891433 M516.9561469493052,483.76457772891433 L516.940078593319,483.5739592074174 M516.940078593319,483.5739592074174 L516.9351816337496,483.3094948896399 M516.9351816337496,483.3094948896399 L516.5872969449919,483.09869073542586 M516.5872969449919,483.09869073542586 L516.2358176715488,482.8914320254331 M516.2358176715488,482.8914320254331 L515.8808046471684,482.68775387654466 M522.827770057726,487.98088769111286 L522.5596781545237,487.7097111027082 M522.5596781545237,487.7097111027082 L522.2869473458038,487.44129826960256 M522.2869473458038,487.44129826960256 L522.0096258644046,487.175694733679 M522.0096258644046,487.175694733679 L521.1011955835482,487.1703967057693 M521.1011955835482,487.1703967057693 L520.2112803339121,487.0314639007966 M520.2112803339121,487.0314639007966 L519.3735096677536,486.7641618577458 M519.3735096677536,486.7641618577458 L518.6195262857711,486.3786184808639 M518.6195262857711,486.3786184808639 L517.9777828322575,485.88943398587276 M517.9777828322575,485.88943398587276 L517.472464226443,485.31512003524466 M517.472464226443,485.31512003524466 L517.1225762172259,484.67739069363233 M517.1225762172259,484.67739069363233 L516.9412347048053,484.00033378820746 M516.9412347048053,484.00033378820746 L516.9351816337496,483.3094948896399 M526.180822160432,484.30785216167743 L526.1682532829956,484.6855281442248 M526.1682532829956,484.6855281442248 L526.1280238718512,485.1413021026689 M526.1280238718512,485.1413021026689 L526.0678070280112,485.55823040451 M526.0678070280112,485.55823040451 L525.9829487485622,485.96942028704945 M525.9829487485622,485.96942028704945 L525.8615185788786,486.3982499890894 M525.8615185788786,486.3982499890894 L525.6937842464148,486.8349392070442 M525.6937842464148,486.8349392070442 L525.4689742229687,487.2658466510643 M525.4689742229687,487.2658466510643 L525.1777702594311,487.6700196274659 M525.1777702594311,487.6700196274659 L524.8191909857555,488.0168497556527 M524.8191909857555,488.0168497556527 L524.4100420462175,488.27247897279454 M524.4100420462175,488.27247897279454 L523.9836139588926,488.41783028343076 M523.9836139588926,488.41783028343076 L523.5725135676894,488.45839871568916 M523.5725135676894,488.45839871568916 L523.1967286445749,488.4137649908803 M523.1967286445749,488.4137649908803 L522.8656703195996,488.30457176767624 M522.8656703195996,488.30457176767624 L522.5839032271637,488.1475998539395 M522.5839032271637,488.1475998539395 L522.3545605012335,487.9556249579359 M522.3545605012335,487.9556249579359 L522.1900454970257,487.75275186588937 M522.1900454970257,487.75275186588937 L522.0551895351725,487.47142527080985 M522.0551895351725,487.47142527080985 L522.0096258644046,487.175694733679 M524.8944901052232,481.11315631934076 L524.8917990743597,483.2342379078922 M524.8917990743597,483.2342379078922 L524.8916262295677,483.3704748834006 M524.8916262295677,483.3704748834006 L525.0486398053728,483.510109114047 M525.0486398053728,483.510109114047 L525.1879235039929,483.67277190675037 M525.1879235039929,483.67277190675037 L525.305881422359,483.84752916474787 M525.305881422359,483.84752916474787 L525.4011244155083,484.0229932514057 M525.4011244155083,484.0229932514057 L525.4763886319785,484.19408158840656 M525.4763886319785,484.19408158840656 L525.5342512961884,484.3576167187836 M525.5342512961884,484.3576167187836 L525.5763848428699,484.50992753280184 M525.5763848428699,484.50992753280184 L525.6045598903868,484.6493915850338 M525.6045598903868,484.6493915850338 L525.6190770026031,484.76353167922935 M525.6190770026031,484.76353167922935 L525.6237723898323,484.86597932826874 M523.9398070254244,483.5847746527851 L523.9600692215505,483.4441870360559 M523.9600692215505,483.4441870360559 L524.0205093803224,483.32568020337095 M524.0205093803224,483.32568020337095 L524.1209833619614,483.23500171233053 M524.1209833619614,483.23500171233053 L524.2610570353932,483.1804298864071 M524.2610570353932,483.1804298864071 L524.4421162251847,483.1739501593874 M524.4421162251847,483.1739501593874 L524.6327692932373,483.22257256198105 M524.6327692932373,483.22257256198105 L524.7611327056925,483.28396693092344 M524.7611327056925,483.28396693092344 L524.8916262295677,483.3704748834006 M524.8916262295677,483.3704748834006 L525.0931640891941,483.5462246558638 M525.0931640891941,483.5462246558638 L525.2829381453728,483.75663176190926 M525.2829381453728,483.75663176190926 L525.4499077400545,483.98945695981087 M525.4499077400545,483.98945695981087 L525.584359839314,484.231155868415 M525.584359839314,484.231155868415 L525.678475645562,484.4676679419795 M525.678475645562,484.4676679419795 L525.7267863698378,484.68523763432165 M525.7267863698378,484.68523763432165 L525.7264905645696,484.8712157232585 M525.7264905645696,484.8712157232585 L525.6776156540348,485.0147964918829 M525.6776156540348,485.0147964918829 L525.5830139964856,485.10764376526976 M525.5830139964856,485.10764376526976 L525.4481942378668,485.14437421731645 M525.4481942378668,485.14437421731645 L525.2809990006233,485.1228673167239 M525.2809990006233,485.1228673167239 L525.0911471641804,485.04438579545234 M525.0911471641804,485.04438579545234 L524.8896685853415,484.91349810962845 M524.8896685853415,484.91349810962845 L524.688264015165,484.73781210554176 M524.688264015165,484.73781210554176 L524.4986269789906,484.5275327098984 M524.4986269789906,484.5275327098984 L524.3317667453758,484.2948699073224 M524.3317667453758,484.2948699073224 L524.1973712947783,484.0533308765614 M524.1973712947783,484.0533308765614 L524.1032464472075,483.81693953703126 M524.1032464472075,483.81693953703126 L524.054863063011,483.5994237761952 M524.054863063011,483.5994237761952 L524.0550392354072,483.4134204612432 M524.0550392354072,483.4134204612432 L524.1037749462691,483.26974108800033 M524.1037749462691,483.26974108800033 L524.1982497264638,483.17674442052225 M524.1982497264638,483.17674442052225 L524.3329839961272,483.1398480093298 M524.3329839961272,483.1398480093298 L524.500154717352,483.1612104051912 M524.500154717352,483.1612104051912 L524.6900486268704,483.2396019799551 M524.6900486268704,483.2396019799551 L524.8916262295677,483.3704748834006" stroke="black"  stroke-width="4"  fill="red"/>
<path d="M524.8916262295677,483.3704748834006 L525.0486398053728,483.510109114047 M525.0486398053728,483.510109114047 L525.1879235039929,483.67277190675037 M525.1879235039929,483.67277190675037 L525.305881422359,483.84752916474787 M525.305881422359,483.84752916474787 L525.4011244155083,484.0229932514057 M525.4011244155083,484.0229932514057 L525.4763886319785,484.19408158840656 M525.4763886319785,484.19408158840656 L525.5342512961884,484.3576167187836 M525.5342512961884,484.3576167187836 L525.5763848428699,484.50992753280184 M525.5763848428699,484.50992753280184 L525.6045598903868,484.6493915850338 M525.6045598903868,484.6493915850338 L525.6190770026031,484.76353167922935 M525.6190770026031,484.76353167922935 L525.6237723898323,484.86597932826874 M523.7266197909582,486.3118471944909 L525.6237723898323,484.86597932826874 M523.7266197909582,486.3118471944909 L523.5931391589569,486.53880400300625 M523.5931391589569,486.53880400300625 L523.4423833270125,486.72876924070215 M523.4423833270125,486.72876924070215 L523.3087077062976,486.84175846314724 M523.3087077062976,486.84175846314724 L523.2232029854465,486.88544748982264 M523.2232029854465,486.88544748982264 L523.1190190195844,486.9081643390681 M523.1190190195844,486.9081643390681 L523.0066651321847,486.8983049567641 M523.0066651321847,486.8983049567641 L522.8828203724433,486.8548194355043 M522.8828203724433,486.8548194355043 L522.7447189572272,486.7786250326149 M522.7447189572272,486.7786250326149 L522.6672227616145,486.72699139305035 M522.6672227616145,486.72699139305035 L522.5868985792869,486.6682476710686 M522.5868985792869,486.6682476710686 L522.420921963451,486.5316845579665 M522.420921963451,486.5316845579665 L522.2627185920896,486.37948365594747 M522.2627185920896,486.37948365594747 L522.124938118367,486.2180794129682 M522.124938118367,486.2180794129682 L522.016427100948,486.0507408537812 M522.016427100948,486.0507408537812 L521.943202387313,485.88289311476757 M521.943202387313,485.88289311476757 L521.9044371763255,485.7175604099679 M521.9044371763255,485.7175604099679 L521.8960218686101,485.5548133420494 M521.8960218686101,485.5548133420494 L521.9135529047085,485.39674251606044 M521.9135529047085,485.39674251606044 L521.9649385446031,485.2080834520257 M521.9649385446031,485.2080834520257 L522.0426537854569,485.02961325636346 M522.0426537854569,485.02961325636346 L523.9398070254244,483.5847746527851 M523.9398070254244,483.5847746527851 L523.9600692215505,483.4441870360559 M523.9600692215505,483.4441870360559 L524.0205093803224,483.32568020337095 M524.0205093803224,483.32568020337095 L524.1209833619614,483.23500171233053 M524.1209833619614,483.23500171233053 L524.2610570353932,483.1804298864071 M524.2610570353932,483.1804298864071 L524.4421162251847,483.1739501593874 M524.4421162251847,483.1739501593874 L524.6327692932373,483.22257256198105 M524.6327692932373,483.22257256198105 L524.7611327056925,483.28396693092344 M524.7611327056925,483.28396693092344 L524.8916262295677,483.3704748834006 M524.8916262295677,483.3704748834006 L525.0931640891941,483.5462246558638 M525.0931640891941,483.5462246558638 L525.2829381453728,483.75663176190926 M525.2829381453728,483.75663176190926 L525.4499077400545,483.98945695981087 M525.4499077400545,483.98945695981087 L525.584359839314,484.231155868415 M525.584359839314,484.231155868415 L525.678475645562,484.4676679419795 M525.678475645562,484.4676679419795 L525.7267863698378,484.68523763432165 M525.7267863698378,484.68523763432165 L525.7264905645696,484.8712157232585 M525.7264905645696,484.8712157232585 L525.6776156540348,485.0147964918829 M525.6776156540348,485.0147964918829 L525.5830139964856,485.10764376526976 M525.5830139964856,485.10764376526976 L525.4481942378668,485.14437421731645 M525.4481942378668,485.14437421731645 L525.2809990006233,485.1228673167239 M525.2809990006233,485.1228673167239 L525.0911471641804,485.04438579545234 M525.0911471641804,485.04438579545234 L524.8896685853415,484.91349810962845 M524.8896685853415,484.91349810962845 L524.688264015165,484.73781210554176 M524.688264015165,484.73781210554176 L524.4986269789906,484.5275327098984 M524.4986269789906,484.5275327098984 L524.3317667453758,484.2948699073224 M524.3317667453758,484.2948699073224 L524.1973712947783,484.0533308765614 M524.1973712947783,484.0533308765614 L524.1032464472075,483.81693953703126 M524.1032464472075,483.81693953703126 L524.054863063011,483.5994237761952 M524.054863063011,483.5994237761952 L524.0550392354072,483.4134204612432 M524.0550392354072,483.4134204612432 L524.1037749462691,483.26974108800033 M524.1037749462691,483.26974108800033 L524.1982497264638,483.17674442052225 M524.1982497264638,483.17674442052225 L524.3329839961272,483.1398480093298 M524.3329839961272,483.1398480093298 L524.500154717352,483.1612104051912 M524.500154717352,483.1612104051912 L524.6900486268704,483.2396019799551 M524.6900486268704,483.2396019799551 L524.8916262295677,483.3704748834006" stroke="black"  stroke-width="4"  fill="red"/>
<path d="M525.7196269821402,480.4850512835438 L525.726851075716,475.9279082200085 M525.726851075716,475.9279082200085 L526.3829837685935,476.52124546770756 M526.3829837685935,476.52124546770756 L526.8938234358873,477.1922587381449 M526.8938234358873,477.1922587381449 L527.2437918703883,477.9206345220551 M527.2437918703883,477.9206345220551 L527.4221689947206,478.6842970423174 M527.4221689947206,478.6842970423174 L527.4234278422391,479.46007262302476 M527.4234278422391,479.46007262302476 L527.2474165773448,480.22438979589697 M527.2474165773448,480.22438979589697 L526.8993768101816,480.9539959246438 M526.8993768101816,480.9539959246438 L526.3897959921834,481.62666683482666 M526.3897959921834,481.62666683482666 L525.7341004947731,482.2218890821276 M525.7341004947731,482.2218890821276 L524.9521931829547,482.7214918180516 M524.9521931829547,482.7214918180516 L524.0678517304109,483.11020975444023 M524.0678517304109,483.11020975444023 L523.1080030590915,483.3761568337374 M523.1080030590915,483.3761568337374 L522.1018989135847,483.51119693517927 M522.1018989135847,483.51119693517927 L521.0802160935763,483.51119693517927 M521.0802160935763,483.51119693517927 L520.0741119480695,483.3761568337374 M520.0741119480695,483.3761568337374 L519.1142632767501,483.11020975444023 M519.1142632767501,483.11020975444023 L518.2299218242063,482.7214918180516 M518.2299218242063,482.7214918180516 L517.4480145123878,482.2218890821276 M517.4480145123878,482.2218890821276 L516.7923190149777,481.62666683482666 M516.7923190149777,481.62666683482666 L516.2827381969794,480.9539959246438 M516.2827381969794,480.9539959246438 L515.9346984298162,480.22438979589697 M515.9346984298162,480.22438979589697 L515.7586871649219,479.46007262302476 M515.7586871649219,479.46007262302476 L515.7599460124404,478.6842970423174 M515.7599460124404,478.6842970423174 L515.9383231367726,477.9206345220551 M515.9383231367726,477.9206345220551 L516.2882915712737,477.1922587381449 M516.2882915712737,477.1922587381449 L516.7991312385675,476.52124546770756 M516.7991312385675,476.52124546770756 L517.455263931445,475.9279082200085 M517.455263931445,475.9279082200085 L518.236734051369,475.4301904844073 M518.236734051369,475.4301904844073 L519.1198166565187,475.04313019039154 M519.1198166565187,475.04313019039154 L520.07773665984,474.7784134586703 M520.07773665984,474.7784134586703 L521.0814749429962,474.6440280125643 M521.0814749429962,474.6440280125643 L522.1006400641647,474.6440280125643 M522.1006400641647,474.6440280125643 L523.1043783473212,474.7784134586703 M523.1043783473212,474.7784134586703 L524.0622983506423,475.04313019039154 M524.0622983506423,475.04313019039154 L524.945380955792,475.4301904844073 M524.945380955792,475.4301904844073 L525.726851075716,475.9279082200085 M527.0752654218333,485.1695876209498 L527.3298647119955,484.47265987135785 M527.3298647119955,484.47265987135785 L527.4327034574039,483.753678331737 M527.4327034574039,483.753678331737 L527.3811540506165,483.03165823310076 M527.3811540506165,483.03165823310076 L527.1766701684178,482.3256718828863 M527.1766701684178,482.3256718828863 L526.824738955751,481.6543465107905 M526.824738955751,481.6543465107905 L526.3347272344146,481.0353745943326 M526.3347272344146,481.0353745943326 L525.7196269821402,480.4850512835438 M522.827770057726,487.98088769111286 L522.9018486873878,487.56728235723074 M522.9018486873878,487.56728235723074 L523.1219958061986,487.1364727660255 M523.1219958061986,487.1364727660255 L523.4641559530476,486.71055903014934 M523.4641559530476,486.71055903014934 L523.9063682849733,486.287884781807 M523.9063682849733,486.287884781807 L524.3932904731491,485.89346833115985 M524.3932904731491,485.89346833115985 L524.8848441822619,485.5354895938346 M524.8848441822619,485.5354895938346 L525.3377167257531,485.22950655179284 M525.3377167257531,485.22950655179284 L525.7191669702863,484.9879283923068 M525.7191669702863,484.9879283923068 L526.0513103601618,484.7933498268434 M526.0513103601618,484.7933498268434 L526.3255387163891,484.651654933661 M526.3255387163891,484.651654933661 L526.5444338872583,484.5627330919557 M526.5444338872583,484.5627330919557 L526.7150781989654,484.5244591252487 M526.7150781989654,484.5244591252487 L526.8450568289767,484.53484038609747 M526.8450568289767,484.53484038609747 L526.9410783695444,484.59257585103137 M526.9410783695444,484.59257585103137 L527.0085042300208,484.6968994395284 M527.0085042300208,484.6968994395284 L527.0513763267377,484.8471242731361 M527.0513763267377,484.8471242731361 L527.0695523088915,484.99518648715417 M527.0695523088915,484.99518648715417 L527.0752654218333,485.1695876209498 M515.8808046471684,482.68775387654466 L515.7539500829623,483.42063988806746 M515.7539500829623,483.42063988806746 L515.788311546746,484.15954882111185 M515.788311546746,484.15954882111185 L515.9830371904291,484.88406310752856 M515.9830371904291,484.88406310752856 L516.3328385531518,485.57414010912345 M516.3328385531518,485.57414010912345 L516.8281256218102,486.21066632223193 M516.8281256218102,486.21066632223193 L517.4552639314452,486.7759930594012 M517.4552639314452,486.7759930594012 L518.1969459166684,487.25442987955256 M518.1969459166684,487.25442987955256 L519.0326671907998,487.632686554563 M519.0326671907998,487.632686554563 L519.9392952643184,487.90024833853556 M519.9392952643184,487.90024833853556 L520.8917120023625,488.0496736233046 M520.8917120023625,488.0496736233046 L521.8635183541035,488.0768052326044 M521.8635183541035,488.0768052326044 L522.827770057726,487.98088769111286 M515.8808046471684,482.68775387654466 L515.8964695336466,482.2303374703166 M515.8964695336466,482.2303374703166 L515.9508639471472,481.674159285811 M515.9508639471472,481.674159285811 L516.0543520764018,481.067522709897 M516.0543520764018,481.067522709897 L516.2234987905117,480.43812533047566 M516.2234987905117,480.43812533047566 L516.4601368145525,479.85442510325544 M516.4601368145525,479.85442510325544 L516.7602149794579,479.35194479644036 M516.7602149794579,479.35194479644036 L517.1016387476294,478.96227233133357 M517.1016387476294,478.96227233133357 L517.4491222470549,478.6957768379276 M517.4491222470549,478.6957768379276 L517.8087424897867,478.52288283454243 M517.8087424897867,478.52288283454243 L518.1580861987532,478.4389359864915 M518.1580861987532,478.4389359864915 L518.4824282378056,478.43065935582115 M518.4824282378056,478.43065935582115 L518.7730471150135,478.4839217742971 M518.7730471150135,478.4839217742971 L519.0243080552464,478.58669395734506 M519.0243080552464,478.58669395734506 L519.2320417981396,478.7294181366105 M519.2320417981396,478.7294181366105 L519.3925933481,478.9044837139604 M519.3925933481,478.9044837139604 L519.5028066125951,479.1057384646269 M519.5028066125951,479.1057384646269 L519.5521661266115,479.2773054177288 M519.5521661266115,479.2773054177288 L519.5687992855533,479.4597428438369 M525.7196269821402,480.4850512835438 L524.9957076747264,480.0178506895408 M524.9957076747264,480.0178506895408 L524.1820849388154,479.64605020780124 M524.1820849388154,479.64605020780124 L523.3002164447254,479.37941338080697 M523.3002164447254,479.37941338080697 L522.3733399424909,479.2249384507414 M522.3733399424909,479.2249384507414 L521.4258660473347,479.18667842150995 M521.4258660473347,479.18667842150995 L520.48274118921,479.2656369704686 M520.48274118921,479.2656369704686 L519.5687992855533,479.4597428438369 M520.6986772145644,480.13803126723417 L520.3256526102408,479.9084073737167 M520.3256526102408,479.9084073737167 L519.9490078318719,479.68230022065745 M519.9490078318719,479.68230022065745 L519.5687992855533,479.4597428438369 M526.180822160432,484.30785216167743 L526.2660432700707,483.6161009948073 M526.2660432700707,483.6161009948073 L526.1731018094574,482.92506019746946 M526.1731018094574,482.92506019746946 L525.9056393480994,482.26105003295834 M525.9056393480994,482.26105003295834 L525.4739327169304,481.6493324759976 M525.4739327169304,481.6493324759976 L524.8944901052232,481.11315631934076 M524.8944901052232,481.11315631934076 L524.1894138477403,480.6728794754583 M524.1894138477403,480.6728794754583 L523.3855544524648,480.3452055038972 M523.3855544524648,480.3452055038972 L522.5134915928793,480.14255786618116 M522.5134915928793,480.14255786618116 L521.6063753495387,480.0726163709503 M521.6063753495387,480.0726163709503 L520.6986772145644,480.13803126723417 M527.0752654218333,485.1695876209498 L526.7816893120196,484.879529723236 M526.7816893120196,484.879529723236 L526.4835263189427,484.5922705688196 M526.4835263189427,484.5922705688196 L526.180822160432,484.30785216167743 M526.180822160432,484.30785216167743 L524.4737963602545,482.8261271363728 M524.4737963602545,482.8261271363728 L522.6437657433592,481.4342429124951 M522.6437657433592,481.4342429124951 L520.6986772145644,480.13803126723417 M516.9351816337496,483.3094948896399 L516.5872969449919,483.09869073542586 M516.5872969449919,483.09869073542586 L516.2358176715488,482.8914320254331 M516.2358176715488,482.8914320254331 L515.8808046471684,482.68775387654466 M522.0096258644046,487.175694733679 L520.4390084751719,485.7952608038813 M520.4390084751719,485.7952608038813 L518.7446653714579,484.5044130985204 M518.7446653714579,484.5044130985204 L516.9351816337496,483.3094948896399 M522.827770057726,487.98088769111286 L522.5596781545237,487.7097111027082 M522.5596781545237,487.7097111027082 L522.2869473458038,487.44129826960256 M522.2869473458038,487.44129826960256 L522.0096258644046,487.175694733679 M516.9351816337496,483.3094948896399 L516.9412347048053,484.00033378820746 M516.9412347048053,484.00033378820746 L517.1225762172259,484.67739069363233 M517.1225762172259,484.67739069363233 L517.472464226443,485.31512003524466 M517.472464226443,485.31512003524466 L517.9777828322575,485.88943398587276 M517.9777828322575,485.88943398587276 L518.6195262857711,486.3786184808639 M518.6195262857711,486.3786184808639 L519.3735096677536,486.7641618577458 M519.3735096677536,486.7641618577458 L520.2112803339121,487.0314639007966 M520.2112803339121,487.0314639007966 L521.1011955835482,487.1703967057693 M521.1011955835482,487.1703967057693 L522.0096258644046,487.175694733679 M520.6986772145644,480.13803126723417 L520.662447539521,480.40281245267585 M520.662447539521,480.40281245267585 L520.5554461927346,480.6751665489328 M520.5554461927346,480.6751665489328 L520.3825792449334,480.9541105100724 M520.3825792449334,480.9541105100724 L520.3833512963174,482.6176688558493 M524.3274863861748,483.17122363413176 L523.6160841922274,482.84845534045445 M523.6160841922274,482.84845534045445 L522.8410966087818,482.6264630757698 M522.8410966087818,482.6264630757698 L522.0268657605156,482.5121972418138 M522.0268657605156,482.5121972418138 L521.1989544801963,482.50923504821725 M521.1989544801963,482.50923504821725 L520.3833512963174,482.6176688558493 M524.3274863861748,483.17122363413176 L524.4970527087371,483.18260274856647 M524.4970527087371,483.18260274856647 L524.6898260019705,483.2470334862459 M524.6898260019705,483.2470334862459 L524.8916262295677,483.3704748834006 M524.8916262295677,483.3704748834006 L525.0817677000067,483.5451576649516 M525.0817677000067,483.5451576649516 L525.2437733562585,483.7505976004201 M525.2437733562585,483.7505976004201 L525.3724018054829,483.9660659599358 M526.103733597652,486.9719891658147 L526.2455950201481,486.34992860734513 M526.2455950201481,486.34992860734513 L526.2408830187333,485.7186724893012 M526.2408830187333,485.7186724893012 L526.0898216934422,485.09809358535756 M526.0898216934422,485.09809358535756 L525.7972386058956,484.507708382729 M525.7972386058956,484.507708382729 L525.3724018054829,483.9660659599358 M526.1066219140137,485.30920291236964 L526.103733597652,486.9719891658147 M526.180822160432,484.30785216167743 L526.1731727870824,484.5947129122534 M526.1731727870824,484.5947129122534 L526.1497619672405,484.9310714075291 M526.1497619672405,484.9310714075291 L526.1066219140137,485.30920291236964 M524.8917990743596,483.2342379078922 L524.8916262295677,483.3704748834006 M526.1066219140137,485.30920291236964 L525.1519100221822,484.72960276442285 M525.1519100221822,484.72960276442285 L523.8650275428538,483.83898307958844 M523.8650275428538,483.83898307958844 L522.3452520303294,482.6718190303008 M522.3452520303294,482.6718190303008 L521.3584254112466,481.84579539795453 M521.3584254112466,481.84579539795453 L520.3825792449334,480.9541105100724 M517.0785781791509,483.9137885654618 L516.9836834133657,483.8669278620855 M516.9836834133657,483.8669278620855 L516.9474581813115,483.69120280019035 M516.9474581813115,483.69120280019035 L516.9382284313949,483.5228180998279 M516.9382284313949,483.5228180998279 L516.9351816337496,483.3094948896399 M522.8016380305746,488.27476609450736 L521.0866568606162,486.80318565495145 M521.0866568606162,486.80318565495145 L519.6910841984368,485.70482220377494 M519.6910841984368,485.70482220377494 L518.3811226995654,484.7710772645266 M518.3811226995654,484.7710772645266 L517.0785781791509,483.9137885654618 M522.8016380305746,488.27476609450736 L522.3709144175868,487.97203249279426 M522.3709144175868,487.97203249279426 L522.1209072833583,487.63324198532194 M522.1209072833583,487.63324198532194 L522.0376163665635,487.4082502962895 M522.0376163665635,487.4082502962895 L522.0096258644046,487.175694733679 M522.8016380305746,488.27476609450736 L522.8010711166193,489.49076014954494 M517.0806888133341,485.130351298857 L516.9326150252539,485.7971442449626 M516.9326150252539,485.7971442449626 L516.9528737195662,486.4733594072622 M516.9528737195662,486.4733594072622 L517.1408265677361,487.1345537300898 M517.1408265677361,487.1345537300898 L517.4897654869469,487.7568004022843 M517.4897654869469,487.7568004022843 L517.9871435834978,488.3175582253344 M517.9871435834978,488.3175582253344 L518.6150195027656,488.7964936613431 M518.6150195027656,488.7964936613431 L519.350700282434,489.1762253604947 M519.350700282434,489.1762253604947 L520.1675616370711,489.44296271761976 M520.1675616370711,489.44296271761976 L521.0360153731368,489.58701339728333 M521.0360153731368,489.58701339728333 L521.924588021926,489.60314120371225 M521.924588021926,489.60314120371225 L522.8010711166193,489.49076014954494 M517.0785781791509,483.9137885654618 L517.0806888133341,485.130351298857 M526.103733597652,486.9719891658147 L523.7643281150486,485.191247902461 M522.7194123265657,484.39586434235656 L522.878497902329,484.42600003285594 M522.878497902329,484.42600003285594 L523.0555928699077,484.50435148234567 M523.0555928699077,484.50435148234567 L523.2419181871497,484.6270418788137 M523.2419181871497,484.6270418788137 L523.4282339034337,484.78799196007037 M523.4282339034337,484.78799196007037 L523.6052983965719,484.9792221795381 M523.6052983965719,484.9792221795381 L523.7643281150486,485.191247902461 M522.7194123265657,484.39586434235656 L520.3833512963174,482.6176688558493 M522.7194123265657,484.39586434235656 L524.3274863861748,483.17122363413176 M523.7643281150486,485.191247902461 L525.3724018054829,483.9660659599358 M517.0806888133341,485.130351298857 L522.8010711166193,489.49076014954494" stroke="black"  stroke-width="4"  fill="red"/>
<path d="M522.1899686403269,487.5297652404282 L522.315918803271,487.6522534766615 M522.315918803271,487.6522534766615 L522.399754162947,487.794158355968 M522.399754162947,487.794158355968 L522.4365984111114,487.9472364551421 M522.4365984111114,487.9472364551421 L522.4243044951675,488.1025930998499 M522.4243044951675,488.1025930998499 L522.3635806209187,488.25119898964317 M522.3635806209187,488.25119898964317 L522.257950836799,488.3844149641425 M522.257950836799,488.3844149641425 L522.1135510248722,488.49449482724754 M522.1135510248722,488.49449482724754 L521.93877319671,488.5750363868084 M521.93877319671,488.5750363868084 L521.7437776596983,488.62135470417263 M521.7437776596983,488.62135470417263 L521.5399020086825,488.6307551524089 M521.5399020086825,488.6307551524089 L521.3390008811817,488.60269092151503 M521.3390008811817,488.60269092151503 L521.1527557447848,488.53879467634914 M521.1527557447848,488.53879467634914 L520.9919945710365,488.44278336791496 M520.9919945710365,488.44278336791496 L520.8660617954017,488.32024136835577 M520.8660617954017,488.32024136835577 L520.7822746143859,488.1782950422649 M520.7822746143859,488.1782950422649 L520.7454982990939,488.02519730779267 M520.7454982990939,488.02519730779267 L520.7578643395223,487.86984733748216 M520.7578643395223,487.86984733748216 L520.8186480070246,487.7212729027624 M520.8186480070246,487.7212729027624 L520.9243115552442,487.5881059580289 M520.9243115552442,487.5881059580289 L521.068711367172,487.47808146726044 M521.068711367172,487.47808146726044 L521.2434554312358,487.39758893746426 M521.2434554312358,487.39758893746426 L521.4383911749931,487.351302075188 M521.4383911749931,487.351302075188 L521.6421947015223,487.341908301325 M521.6421947015223,487.341908301325 L521.843027896149,487.36995289691225 M521.843027896149,487.36995289691225 L522.0292248538859,487.4338076952984 M522.0292248538859,487.4338076952984 L522.1899686403269,487.5297652404282 M522.1899686403269,487.5297652404282 L522.1872980231166,499.1117190454825 M522.1872980231166,499.1117190454825 L522.0272710644787,499.01588223411517 M522.0272710644787,499.01588223411517 L521.8419043793104,498.95210776520645 M521.8419043793104,498.95210776520645 L521.6419666864089,498.9240984465961 M521.6419666864089,498.9240984465961 L521.4390718990455,498.9334804043548 M521.4390718990455,498.9334804043548 L521.2450053743075,498.97970904079585 M521.2450053743075,498.97970904079585 L521.0710405385147,499.06010030365576 M521.0710405385147,499.06010030365576 L520.9272847040212,499.1699863476759 M520.9272847040212,499.1699863476759 L520.8220924566988,499.3029856848574 M520.8220924566988,499.3029856848574 L520.761579997819,499.4513730679871 M520.761579997819,499.4513730679871 L520.7492692661187,499.60652739810246 M520.7492692661187,499.60652739810246 L520.785881721509,499.7594322703551 M520.785881721509,499.7594322703551 L520.8692953452053,499.9011997302438 M520.8692953452053,499.9011997302438 L520.9946665391502,500.0235872748737 M520.9946665391502,500.0235872748737 L521.1547107303577,500.1194775423679 M521.1547107303577,500.1194775423679 L521.3401251654207,500.18329322124976 M521.3401251654207,500.18329322124976 L521.5401301866293,500.21132206298 M521.5401301866293,500.21132206298 L521.7430964566089,500.2019334689822 M521.7430964566089,500.2019334689822 L521.9372222424727,500.15567355717224 M521.9372222424727,500.15567355717224 L522.111220541881,500.0752335446798 M522.111220541881,500.0752335446798 L522.2549763763734,499.96529244469366 M522.2549763763734,499.96529244469366 L522.3601351600792,499.8322443578786 M522.3601351600792,499.8322443578786 L522.4205883578338,499.68382569939445 M522.4205883578338,499.68382569939445 L522.4328276069199,499.5286647330161 M522.4328276069199,499.5286647330161 L522.3961478232245,499.37577938387506 M522.3961478232245,499.37577938387506 L522.312686449633,499.23405313396404 M522.312686449633,499.23405313396404 L522.1872980231166,499.1117190454825" stroke="black"  stroke-width="4"  fill="red"/>
<path d="M523.7266197909582,486.3118471944909 L523.5931391589569,486.53880400300625 M523.5931391589569,486.53880400300625 L523.4423833270125,486.72876924070215 M523.4423833270125,486.72876924070215 L523.3087077062976,486.84175846314724 M523.3087077062976,486.84175846314724 L523.2232029854465,486.88544748982264 M523.2232029854465,486.88544748982264 L523.1190190195844,486.9081643390681 M523.1190190195844,486.9081643390681 L523.0066651321847,486.8983049567641 M523.0066651321847,486.8983049567641 L522.8828203724433,486.8548194355043 M522.8828203724433,486.8548194355043 L522.7447189572272,486.7786250326149 M522.7447189572272,486.7786250326149 L522.6672227616145,486.72699139305035 M522.6672227616145,486.72699139305035 L522.5868985792869,486.6682476710686 M522.1899686403269,487.5297652404282 L522.5046433232055,486.84677883283774 M522.5046433232055,486.84677883283774 L522.5868985792869,486.6682476710686 M522.1899686403269,487.5297652404282 L522.0292248538859,487.4338076952984 M522.0292248538859,487.4338076952984 L521.843027896149,487.36995289691225 M521.843027896149,487.36995289691225 L521.6421947015223,487.341908301325 M521.6421947015223,487.341908301325 L521.4383911749931,487.351302075188 M521.4383911749931,487.351302075188 L521.2434554312358,487.39758893746426 M521.2434554312358,487.39758893746426 L521.068711367172,487.47808146726044 M521.068711367172,487.47808146726044 L520.9243115552442,487.5881059580289 M520.9243115552442,487.5881059580289 L520.8186480070246,487.7212729027624 M520.8186480070246,487.7212729027624 L520.7578643395223,487.86984733748216 M520.7578643395223,487.86984733748216 L520.7454982990939,488.02519730779267 M520.7454982990939,488.02519730779267 L520.7822746143859,488.1782950422649 M520.7822746143859,488.1782950422649 L520.8660617954017,488.32024136835577 M520.8660617954017,488.32024136835577 L520.9919945710365,488.44278336791496 M520.9919945710365,488.44278336791496 L521.1527557447848,488.53879467634914 M521.1527557447848,488.53879467634914 L521.3390008811817,488.60269092151503 M521.3390008811817,488.60269092151503 L521.5399020086825,488.6307551524089 M521.5399020086825,488.6307551524089 L521.7437776596983,488.62135470417263 M521.7437776596983,488.62135470417263 L521.93877319671,488.5750363868084 M521.93877319671,488.5750363868084 L522.1135510248722,488.49449482724754 M522.1135510248722,488.49449482724754 L522.257950836799,488.3844149641425 M522.257950836799,488.3844149641425 L522.3635806209187,488.25119898964317 M522.3635806209187,488.25119898964317 L522.4243044951675,488.1025930998499 M522.4243044951675,488.1025930998499 L522.4365984111114,487.9472364551421 M522.4365984111114,487.9472364551421 L522.399754162947,487.794158355968 M522.399754162947,487.794158355968 L522.315918803271,487.6522534766615 M522.315918803271,487.6522534766615 L522.1899686403269,487.5297652404282 M522.5868985792869,486.6682476710686 L522.420921963451,486.5316845579665 M522.420921963451,486.5316845579665 L522.2627185920896,486.37948365594747 M522.2627185920896,486.37948365594747 L522.124938118367,486.2180794129682 M522.124938118367,486.2180794129682 L522.016427100948,486.0507408537812 M522.016427100948,486.0507408537812 L521.943202387313,485.88289311476757 M521.943202387313,485.88289311476757 L521.9044371763255,485.7175604099679 M521.9044371763255,485.7175604099679 L521.8960218686101,485.5548133420494 M521.8960218686101,485.5548133420494 L521.9135529047085,485.39674251606044 M521.9135529047085,485.39674251606044 L521.9649385446031,485.2080834520257 M521.9649385446031,485.2080834520257 L522.0426537854569,485.02961325636346 M523.7266197909582,486.3118471944909 L523.7727261819691,486.71552689194795 M523.7727261819691,486.71552689194795 L523.6893143740783,487.1157636932578 M523.6893143740783,487.1157636932578 L523.4812954909967,487.4887880480126 M523.4812954909967,487.4887880480126 L523.1609887437679,487.8124324682731 M523.1609887437679,487.8124324682731 L522.7473969766315,488.0674529315657 M522.7473969766315,488.0674529315657 L522.2650814711224,488.2386789070528 M522.2650814711224,488.2386789070528 L521.7427018270137,488.3159207966413 M521.7427018270137,488.3159207966413 L521.211307604852,488.2945811861344 M521.211307604852,488.2945811861344 L520.7024870785624,488.17593025248834 M520.7024870785624,488.17593025248834 L520.2464808230648,487.9670296786765 M520.2464808230648,487.9670296786765 L519.8703790974739,487.68030931344293 M519.8703790974739,487.68030931344293 L519.5965086258911,487.3328223527937 M519.5965086258911,487.3328223527937 L519.4411074636582,486.9452255939823 M519.4411074636582,486.9452255939823 L519.4133654441687,486.54054619131114 M519.4133654441687,486.54054619131114 L519.5148870637269,486.14281108403384 M519.5148870637269,486.14281108403384 L519.7396062899695,485.77561889928296 M519.7396062899695,485.77561889928296 L520.0741554191076,485.4607428273698 M520.0741554191076,485.4607428273698 L520.4986657268182,485.216843432801 M520.4986657268182,485.216843432801 L520.9879482674176,485.05836830613396 M520.9879482674176,485.05836830613396 L521.5129868776348,484.9947017829007 M521.5129868776348,484.9947017829007 L522.0426537854569,485.02961325636346 M522.4331905384219,487.2976022647914 L523.7266197909582,486.3118471944909 M520.7492244068221,486.01466636535 L520.7737403660251,486.21788416842713 M520.7737403660251,486.21788416842713 L520.8457388984723,486.44653330911177 M520.8457388984723,486.44653330911177 L520.9610321658159,486.6873333358776 M520.9610321658159,486.6873333358776 L521.1129217962418,486.9263022474069 M521.1129217962418,486.9263022474069 L521.2925878958933,487.1495661977431 M521.2925878958933,487.1495661977431 L521.4895997343936,487.3441626011892 M521.4895997343936,487.3441626011892 L521.6925196280283,487.4987907394159 M521.6925196280283,487.4987907394159 L521.8895648059412,487.60446634012726 M521.8895648059412,487.60446634012726 L522.0692899529346,487.6550432966232 M522.0692899529346,487.6550432966232 L522.2212508210139,487.64757195938773 M522.2212508210139,487.64757195938773 L522.3366112049944,487.58247298574815 M522.3366112049944,487.58247298574815 L522.4086573610002,487.4635156342619 M522.4086573610002,487.4635156342619 L522.4331905384219,487.2976022647914 M520.7492244068221,486.01466636535 L522.0426537854569,485.02961325636346 M520.7492244068221,486.01466636535 L522.4331905384219,487.2976022647914" stroke="black"  stroke-width="4"  fill="red"/>
<path d="M525.8781301029918,484.29617494914044 L524.8894959635998,485.049559276088 M524.8894959635998,485.049559276088 L524.652563231994,484.842876593026 M524.652563231994,484.842876593026 L524.4294750210322,484.5955023809126 M524.4294750210322,484.5955023809126 L524.2331802501517,484.32179795701177 M524.2331802501517,484.32179795701177 L524.0750738338918,484.0376510096681 M524.0750738338918,484.0376510096681 L523.9643377804762,483.75955637939035 M523.9643377804762,483.75955637939035 L523.9074086324736,483.50366117793703 M523.9074086324736,483.50366117793703 L523.9076034853886,483.2848307271138 M523.9076034853886,483.2848307271138 L523.9649251582284,483.115786013941 M523.9649251582284,483.115786013941 L524.0760587933225,483.0063629722356 M524.0760587933225,483.0063629722356 L524.2345608219036,482.96293823136136 M524.2345608219036,482.96293823136136 L524.4312296694274,482.98805506349225 M524.4312296694274,482.98805506349225 L524.654638664261,483.08027120439897 M524.654638664261,483.08027120439897 L524.8917990743596,483.2342379078922 M524.8917990743596,483.2342379078922 L525.1289162896544,483.441008851521 M525.1289162896544,483.441008851521 L525.3521941477578,483.68855982536445 M525.3521941477578,483.68855982536445 L525.5486402832403,483.96248901823844 M525.5486402832403,483.96248901823844 L525.7068251059469,484.24685724971926 M525.7068251059469,484.24685724971926 L525.8175486456221,484.52511898576904 M525.8175486456221,484.52511898576904 L525.8743772263092,484.7810888329344 M525.8743772263092,484.7810888329344 L525.8740167912534,484.9998843687901 M525.8740167912534,484.9998843687901 L525.8165024545852,485.1687926049792 M525.8165024545852,485.1687926049792 L525.7051932108968,485.27800887310366 M525.7051932108968,485.27800887310366 L525.546572858498,485.3212039128194 M525.546572858498,485.3212039128194 L525.3498700786004,485.29588707371136 M525.3498700786004,485.29588707371136 L525.1265193164404,485.2035464394621 M525.1265193164404,485.2035464394621 L524.8894959635998,485.049559276088 M525.8781301029918,484.29617494914044 L526.1151633873349,484.4500845119497 M526.1151633873349,484.4500845119497 L526.3385435275028,484.5423477999024 M526.3385435275028,484.5423477999024 L526.5352934290362,484.5675920415563 M526.5352934290362,484.5675920415563 L526.6939759143168,484.52433337562593 M526.6939759143168,484.52433337562593 L526.8053586978258,484.4150661566726 M526.8053586978258,484.4150661566726 L526.8629537130557,484.24612261403837 M526.8629537130557,484.24612261403837 L526.8633972797966,484.02730947576663 M526.8633972797966,484.02730947576663 L526.8066494524805,483.7713407589966 M526.8066494524805,483.7713407589966 L526.6959995916684,483.49309882290146 M526.6959995916684,483.49309882290146 L526.5378770860086,483.20876790878947 M526.5378770860086,483.20876790878947 L526.341478277443,482.9348913769112 M526.341478277443,482.9348913769112 L526.1182299992859,482.68740533987074 M526.1182299992859,482.68740533987074 L525.8811228934694,482.4807078268259 M525.8811228934694,482.4807078268259 L525.6439525332755,482.3268187732131 M525.6439525332755,482.3268187732131 L525.4205141085905,482.23467998455266 M525.4205141085905,482.23467998455266 L525.2237980662142,482.2096357110966 M525.2237980662142,482.2096357110966 L525.065233826934,482.2531240035614 M525.065233826934,482.2531240035614 L524.9540265874284,482.36259790272226 M524.9540265874284,482.36259790272226 L524.8966241994594,482.5316778316076 M524.8966241994594,482.5316778316076 L524.8963462146928,482.75052581754136 M524.8963462146928,482.75052581754136 L524.9531946455963,483.0064198601399 M524.9531946455963,483.0064198601399 L525.0638570845504,483.284494707369 M525.0638570845504,483.284494707369 L525.2219012615408,483.5686043957424 M525.2219012615408,483.5686043957424 L525.4181487788393,483.8422562451602 M525.4181487788393,483.8422562451602 L525.6412074619477,484.0895656152787 M525.6412074619477,484.0895656152787 L525.8781301029918,484.29617494914044" stroke="black"  stroke-width="4"  fill="red"/>
<path d="M524.8896685853415,484.91349810962845 L521.5910575035805,487.42709535723156 M524.8916262295677,483.3704748834006 L521.5910575035805,485.88448683007783 M524.8896685853415,484.91349810962845 L524.688264015165,484.73781210554176 M524.688264015165,484.73781210554176 L524.4986269789906,484.5275327098984 M524.4986269789906,484.5275327098984 L524.3317667453758,484.2948699073224 M524.3317667453758,484.2948699073224 L524.1973712947783,484.0533308765614 M524.1973712947783,484.0533308765614 L524.1032464472075,483.81693953703126 M524.1032464472075,483.81693953703126 L524.054863063011,483.5994237761952 M524.054863063011,483.5994237761952 L524.0550392354072,483.4134204612432 M524.0550392354072,483.4134204612432 L524.1037749462691,483.26974108800033 M524.1037749462691,483.26974108800033 L524.1982497264638,483.17674442052225 M524.1982497264638,483.17674442052225 L524.3329839961272,483.1398480093298 M524.3329839961272,483.1398480093298 L524.500154717352,483.1612104051912 M524.500154717352,483.1612104051912 L524.6900486268704,483.2396019799551 M524.6900486268704,483.2396019799551 L524.8916262295677,483.3704748834006 M521.5910575035805,487.42709535723156 L521.3896244150618,487.25120124701465 M521.3896244150618,487.25120124701465 L521.1999036737096,487.04073791186204 M521.1999036737096,487.04073791186204 L521.0329094023225,486.8079260066475 M521.0329094023225,486.8079260066475 L520.898337355438,486.56628135774787 M520.898337355438,486.56628135774787 L520.8040036003433,486.3298340107553 M520.8040036003433,486.3298340107553 L520.7553911251362,486.1123151044808 M520.7553911251362,486.1123151044808 L520.7553313297658,485.926361694746 M520.7553313297658,485.926361694746 L520.8038379090751,485.7827823910685 M520.8038379090751,485.7827823910685 L520.8981037180407,485.68993016043714 M520.8981037180407,485.68993016043714 L521.032661334855,485.65321417856586 M521.032661334855,485.65321417856586 L521.1996980042687,485.6747825255851 M521.1996980042687,485.6747825255851 L521.3895082681404,485.7533936123259 M521.3895082681404,485.7533936123259 L521.5910575035805,485.88448683007783 M524.8916262295677,483.3704748834006 L525.0931640891941,483.5462246558638 M525.0931640891941,483.5462246558638 L525.2829381453728,483.75663176190926 M525.2829381453728,483.75663176190926 L525.4499077400545,483.98945695981087 M525.4499077400545,483.98945695981087 L525.584359839314,484.231155868415 M525.584359839314,484.231155868415 L525.678475645562,484.4676679419795 M525.678475645562,484.4676679419795 L525.7267863698378,484.68523763432165 M525.7267863698378,484.68523763432165 L525.7264905645696,484.8712157232585 M525.7264905645696,484.8712157232585 L525.6776156540348,485.0147964918829 M525.6776156540348,485.0147964918829 L525.5830139964856,485.10764376526976 M525.5830139964856,485.10764376526976 L525.4481942378668,485.14437421731645 M525.4481942378668,485.14437421731645 L525.2809990006233,485.1228673167239 M525.2809990006233,485.1228673167239 L525.0911471641804,485.04438579545234 M525.0911471641804,485.04438579545234 L524.8896685853415,484.91349810962845 M521.5910575035805,485.88448683007783 L521.7926239269775,486.06044490508356 M521.7926239269775,486.06044490508356 L521.9824818138718,486.2710361793467 M521.9824818138718,486.2710361793467 L522.1495856232143,486.5040106884973 M522.1495856232143,486.5040106884973 L522.2842145064769,486.7458153559627 M522.2842145064769,486.7458153559627 L522.3785393757892,486.98238347758576 M522.3785393757892,486.98238347758576 L522.4270792788075,487.1999562465366 M522.4270792788075,487.1999562465366 L522.4270194411313,487.3858842677687 M522.4270194411313,487.3858842677687 L522.3783735741076,487.52936474790573 M522.3783735741076,487.52936474790573 L522.2839807320486,487.62206735924224 M522.2839807320486,487.62206735924224 L522.1493374385205,487.658617202074 M522.1493374385205,487.658617202074 L521.9822760763236,487.636904256951 M521.9822760763236,487.636904256951 L521.792507760251,487.5582032382418 M521.792507760251,487.5582032382418 L521.5910575035805,487.42709535723156" stroke="black"  stroke-width="4"  fill="red"/>
<path d="M479.904884197136,515.3598356520864 L481.5891750475527,516.5615525979833 M481.5891750475527,516.5615525979833 L483.39768376719996,517.6536732706585 M483.39768376719996,517.6536732706585 L485.3183141683828,518.6287222582063 M485.3183141683828,518.6287222582063 L487.3381760127069,519.4800193382596 M487.3381760127069,519.4800193382596 L489.4436825584544,520.20171939292 M489.4436825584544,520.20171939292 L491.62063920729383,520.788863555154 M491.62063920729383,520.788863555154 L493.8543426538302,521.2374131590817 M493.8543426538302,521.2374131590817 L496.129689137733,521.5442772219045 M496.129689137733,521.5442772219045 L498.4312765468962,521.7073453431835 M498.4312765468962,521.7073453431835 L500.74351951762054,521.7254896528435 M500.74351951762054,521.7254896528435 L503.0507558958345,521.598586217427 M503.0507558958345,521.598586217427 L505.33735290023486,521.3275112655207 M505.33735290023486,521.3275112655207 L507.5878323230235,520.9141313431203 M507.5878323230235,520.9141313431203 L509.78697243398625,520.3612942905582 M509.78697243398625,520.3612942905582 L511.91991700785843,519.672801501832 M511.91991700785843,519.672801501832 L513.9722745655581,518.8533919312744 M513.9722745655581,518.8533919312744 L515.9302345198025,517.9086841044011 M515.9302345198025,517.9086841044011 L517.7806399629155,516.8451634242427 M517.7806399629155,516.8451634242427 L519.5111063347738,515.6701033489873 M519.5111063347738,515.6701033489873 L521.1100850542431,514.391535123342 M521.1100850542431,514.391535123342 L522.5669435048867,513.0181781987885 M522.5669435048867,513.0181781987885 L523.8720459690344,511.559376554324 M523.8720459690344,511.559376554324 L525.0168063109229,510.02503424891756 M525.0168063109229,510.02503424891756 L525.9937468067569,508.4255416215732 M525.9937468067569,508.4255416215732 L526.7965428765597,506.77170208146595 M526.7965428765597,506.77170208146595 L527.420060218876,505.07465672134526 M527.420060218876,505.07465672134526 L527.8603813480954,503.3458073863362 M527.8603813480954,503.3458073863362 L528.1148331452935,501.5967373514073 M528.1148331452935,501.5967373514073 L528.1819877407654,499.8391277759839 M528.1819877407654,499.8391277759839 L528.0616699809287,498.0846874461943 M528.0616699809287,498.0846874461943 L527.7549513781075,496.3450667498232 M527.7549513781075,496.3450667498232 L527.2641371946445,494.63178787024094 M527.2641371946445,494.63178787024094 L526.5927380041749,492.95616116019335 M526.5927380041749,492.95616116019335 L525.7454478504053,491.329221238978 M525.7454478504053,491.329221238978 L524.7281018120764,489.76165143154986 M524.7281018120764,489.76165143154986 L523.5476328230611,488.26371673661225 M523.5476328230611,488.26371673661225 L522.212023791182,486.8452020288476 M522.212023791182,486.8452020288476 L520.7302480528269,485.5153506469317 M520.7302480528269,485.5153506469317 L519.1122093280638,484.2828077775935 M519.1122093280638,484.2828077775935 L517.3686746121707,483.15556917124434 M517.3686746121707,483.15556917124434 L515.5112017741912,482.14093272141577 M515.5112017741912,482.14093272141577 L513.5520650073613,481.24545512533354 M513.5520650073613,481.24545512533354 L511.5041750847465,480.47491475888955 M511.5041750847465,480.47491475888955 L509.38099529586276,479.83427555966693 M509.38099529586276,479.83427555966693 L507.1964589124112,479.32766014631187 M507.1964589124112,479.32766014631187 L504.9648818968484,478.95832663481394 M504.9648818968484,478.95832663481394 L502.70086660849756,478.72864592101143 M502.70086660849756,478.72864592101143 L500.4192226861231,478.64009416915195 M500.4192226861231,478.64009416915195 L498.134864204336,478.6932397260075 M498.134864204336,478.6932397260075 L495.8627265655699,478.8877409304982 M495.8627265655699,478.8877409304982 L493.6176638751381,479.22234809734863 M493.6176638751381,479.22234809734863 L491.4143680818283,479.6949144747231 M491.4143680818283,479.6949144747231 L489.267271991548,480.3024008944584 M489.267271991548,480.3024008944584 L487.190458405825,481.0408990777901 M487.190458405825,481.0408990777901 L485.1975728175676,481.9056526268509 M485.1975728175676,481.9056526268509 L483.3017381580305,482.8910844364534 M483.3017381580305,482.8910844364534 L481.51547208713265,483.9908282694001 M481.51547208713265,483.9908282694001 L479.8506028600368,485.1977694529101 M479.8506028600368,485.1977694529101 L478.3181964553629,486.5040795052236 M478.3181964553629,486.5040795052236 L476.92848327204797,487.90127079832655 M476.92848327204797,487.90127079832655 L475.6907757606362,489.38024937618536 M475.6907757606362,489.38024937618536 L474.61343526294525,490.9313545197899 M474.61343526294525,490.9313545197899 L473.7037737918859,492.54443915570084 M473.7037737918859,492.54443915570084 L472.96803956404443,494.2089152301574 M472.96803956404443,494.2089152301574 L472.4113415550075,495.913831618987 M472.4113415550075,495.913831618987 L472.0376262772056,497.6479394359638 M472.0376262772056,497.6479394359638 L471.84963719909734,499.3997650936482 M471.84963719909734,499.3997650936482 L471.84889639167795,501.15767864553425 M471.84889639167795,501.15767864553425 L472.0356830100487,502.90998071611466 M472.0356830100487,502.90998071611466 L472.4090181394369,504.6449761227807 M472.4090181394369,504.6449761227807 L472.96668079192864,506.35104916490263 M472.96668079192864,506.35104916490263 L473.70519752789386,508.01674688649075 M473.70519752789386,508.01674688649075 L474.6198714646677,509.6308542382568 M474.6198714646677,509.6308542382568 L475.7048037877515,511.1824756239606 M475.7048037877515,511.1824756239606 L476.95292365095133,512.6611112996003 M476.95292365095133,512.6611112996003 L478.35604080058,514.0567276092357 M478.35604080058,514.0567276092357 L479.904884197136,515.3598356520864 M476.53820701658026,517.9225945714447 L478.33390334959546,519.2144079650852 M478.33390334959546,519.2144079650852 L480.25270006435437,520.3993759107408 M480.25270006435437,520.3993759107408 L482.28381032149946,521.4706526084254 M482.28381032149946,521.4706526084254 L484.4157709519315,522.4220413607043 M484.4157709519315,522.4220413607043 L486.63651534716655,523.2480310576084 M486.63651534716655,523.2480310576084 L488.9334494903697,523.9438259020385 M488.9334494903697,523.9438259020385 L491.29351783160695,524.5053817419524 M491.29351783160695,524.5053817419524 L493.70328167074774,524.9294349208836 M493.70328167074774,524.9294349208836 L496.1490061284624,525.2135166540099 M496.1490061284624,525.2135166540099 L498.6167343309494,525.3559719874356 M498.6167343309494,525.3559719874356 L501.09237998871487,525.3559719874356 M501.09237998871487,525.3559719874356 L503.5618094866891,525.2135166540099 M503.5618094866891,525.2135166540099 L506.0109266357054,524.9294349208836 M506.0109266357054,524.9294349208836 L508.4257535255978,524.5053807600987 M508.4257535255978,524.5053807600987 L510.7925276973261,523.9438254112631 M510.7925276973261,523.9438254112631 L513.0977721152568,523.248032038784 M513.0977721152568,523.248032038784 L515.3283835706667,522.4220443028945 M515.3283835706667,522.4220443028945 L517.4717088648872,521.4706535886426 M517.4717088648872,521.4706535886426 L519.5156085554181,520.3993764005605 M519.5156085554181,520.3993764005605 L521.4485591674506,519.2144106573379 M521.4485591674506,519.2144106573379 L523.2596815956915,517.9225945714447 M523.2596815956915,517.9225945714447 L524.9388281808631,516.5313780062102 M524.9388281808631,516.5313780062102 L526.4766302986056,515.048756552203 M526.4766302986056,515.048756552203 L527.8645574288248,513.4832428319675 M527.8645574288248,513.4832428319675 L529.0949507581167,511.84379011775684 M529.0949507581167,511.84379011775684 L530.1610772602387,510.1397583032816 M530.1610772602387,510.1397583032816 L531.0571559053335,508.380848119216 M531.0571559053335,508.380848119216 L531.778387945457,506.5770418278106 M531.778387945457,506.5770418278106 L532.3209799734807,504.7385514278567 M532.3209799734807,504.7385514278567 L532.6821541256456,502.87574772210826 M532.6821541256456,502.87574772210826 L532.86016790372,500.99911164722505 M532.86016790372,500.99911164722505 L532.8543094279665,499.11916806420214 M532.8543094279665,499.11916806420214 L532.6648966064074,497.24642707756493 M532.6648966064074,497.24642707756493 L532.2932700718327,495.39132523776794 M532.2932700718327,495.39132523776794 L531.7417818268618,493.5641710901175 M531.7417818268618,493.5641710901175 L531.0137711352902,491.77508519570233 M531.0137711352902,491.77508519570233 L530.113542989029,490.0339472002045 M530.113542989029,490.0339472002045 L529.0463395717481,488.35034472545567 M529.0463395717481,488.35034472545567 L527.8183045229657,486.7335213786696 M527.8183045229657,486.7335213786696 L526.4364454070555,485.19232940565723 M526.4364454070555,485.19232940565723 L524.9085925387972,483.73518497839024 M524.9085925387972,483.73518497839024 L523.2433511257234,482.370025012084 M523.2433511257234,482.370025012084 L521.4500538765742,481.1042676717468 M521.4500538765742,481.1042676717468 L519.5387070010472,479.9447760766951 M519.5387070010472,479.9447760766951 L517.519935362911,478.89782356941186 M517.519935362911,478.89782356941186 L515.4049247939946,477.96906478485784 M515.4049247939946,477.96906478485784 L513.205361064753,477.1635069910303 M513.205361064753,477.1635069910303 L510.93336843898646,476.4854869565406 M510.93336843898646,476.4854869565406 L508.60144642934426,475.93865085562265 M508.60144642934426,475.93865085562265 L506.22240218123795,475.5259356377482 M506.22240218123795,475.5259356377482 L503.8092856871169,475.2495557533781 M503.8092856871169,475.2495557533781 L501.37532424330243,475.11099489707635 M501.37532424330243,475.11099489707635 L498.9338493363796,475.11099537476747 M498.9338493363796,475.11099537476747 L496.49823216194255,475.2495564699701 M496.49823216194255,475.2495564699701 L494.08181480752916,475.52593527939706 M494.08181480752916,475.52593527939706 L491.69784273653545,475.93865133353415 M491.69784273653545,475.93865133353415 L489.35938855662346,476.4854872553263 M489.35938855662346,476.4854872553263 L487.0792991339991,477.16350675938406 M487.0792991339991,477.16350675938406 L484.8701145025379,477.9690642465993 M484.8701145025379,477.9690642465993 L482.7440117719291,478.89782279152524 M482.7440117719291,478.89782279152524 L480.71273932368524,479.94477631618435 M480.71273932368524,479.94477631618435 L478.78754252105426,481.1042674321031 M478.78754252105426,481.1042674321031 L476.97912970572247,482.370025012084 M476.97912970572247,482.370025012084 L475.2975830730881,483.73518521838486 M475.2975830730881,483.73518521838486 L473.7523299045164,485.1923306066018 M473.7523299045164,485.1923306066018 L472.3520648192693,486.73351963580865 M472.3520648192693,486.73351963580865 L471.1047183610558,488.35034514652403 M471.1047183610558,488.35034514652403 L470.017408652501,490.0339479302369 M470.017408652501,490.0339479302369 L469.09638739504226,491.7750854970375 M469.09638739504226,491.7750854970375 L468.3470117589474,493.5641715727322 M468.3470117589474,493.5641715727322 L467.773701340652,495.3913248754402 M467.773701340652,495.3913248754402 L467.3799207390263,497.246427319365 M467.3799207390263,497.246427319365 L467.1681427233596,499.11916854830395 M467.1681427233596,499.11916854830395 L467.13983209628003,500.99911164722505 M467.13983209628003,500.99911164722505 L467.2954332228029,502.8757472369995 M467.2954332228029,502.8757472369995 L467.63436117191054,504.7385514278567 M467.63436117191054,504.7385514278567 L468.1549954523589,506.5770428000144 M468.1549954523589,506.5770428000144 L468.8546846205945,508.38084860580227 M468.8546846205945,508.38084860580227 L469.72975911258965,510.1397583032816 M469.72975911258965,510.1397583032816 L470.775537512799,511.84378816768935 M470.775537512799,511.84378816768935 L471.9863514176878,513.4832408801366 M471.9863514176878,513.4832408801366 L473.3555802110392,515.0487570405819 M473.3555802110392,515.0487570405819 L474.87567751190886,516.5313758067093 M474.87567751190886,516.5313758067093 L476.53820701658026,517.9225945714447 M479.904884197136,515.3598356520864 L479.85012969842654,515.035485118559 M479.85012969842654,515.035485118559 L479.70074982097077,514.80432170272 M479.70074982097077,514.80432170272 L479.4653798992029,514.6798223923817 M479.4653798992029,514.6798223923817 L479.1576599576709,514.6692782290361 M479.1576599576709,514.6692782290361 L478.79545577633826,514.7733555251989 M478.79545577633826,514.7733555251989 L478.39981825192825,514.9860473076649 M478.39981825192825,514.9860473076649 L477.99377572442927,515.2950028840885 M477.99377572442927,515.2950028840885 L477.6009521944172,515.6822690031707 M477.6009521944172,515.6822690031707 L477.24423711395536,516.1252956355157 M477.24423711395536,516.1252956355157 L476.94439392940586,516.5982937636063 M476.94439392940586,516.5982937636063 L476.7188853140937,517.07371166708 M476.7188853140937,517.07371166708 L476.58081995900227,517.5238757333941 M476.58081995900227,517.5238757333941 L476.53820701658026,517.9225945714447 M476.53820701658026,517.9225945714447 L476.5934920781119,518.24668903985 M476.5934920781119,518.24668903985 L476.74341360847086,518.4773479847621 M476.74341360847086,518.4773479847621 L476.9792121885775,518.6012099862405 M476.9792121885775,518.6012099862405 L477.2871521633319,518.6111280442337 M477.2871521633319,518.6111280442337 L477.64931022777193,518.5065847006673 M477.64931022777193,518.5065847006673 L478.044653164048,518.2936882747514 M478.044653164048,518.2936882747514 L478.4502175605628,517.9848382950263 M478.4502175605628,517.9848382950263 L478.8424889346852,517.5979638254902 M478.8424889346852,517.5979638254902 L479.19870690978905,517.155523213069 M479.19870690978905,517.155523213069 L479.49821479352727,516.683176647788 M479.49821479352727,516.683176647788 L479.7236338504497,516.2083211619997 M479.7236338504497,516.2083211619997 L479.8618733321921,515.7585034842931 M479.8618733321921,515.7585034842931 L479.904884197136,515.3598356520864" stroke="black"  stroke-width="4"  fill="red"/></svg>