<svg version="1.1" xmlns="http://www.w3.org/2000/svg" viewBox="-67.57543933884973 -48.3667157582922 142.0050395650942 67.30510133069694" fill="none" stroke="black" stroke-width="0.6%" vector-effect="non-scaling-stroke">
    <path d="M -25.92393 -10.23089 A 15 4.47978 360 0 1 -39.63705 -5.76763" />
    <path d="M -28.42393 -17.47899 A 15 4.47978 360 0 1 -25.92393 -15.0027 A 15 4.47978 360 0 1 -55.92393 -15.0027 A 15 4.47978 360 0 1 -53.42393 -17.47899" />
    <path d="M -42.57393 17.44561 A 1.65 0.49278 180 1 0 -39.27393 17.44561 L -39.27393 4.66688" />
    <path d="M -28.42393 -15.0027 A 12.5 3.73315 360 0 1 -53.42393 -15.0027" />
    <path d="M -49.45327 -46.3626 A 12.5 3.73315 360 0 1 -28.42393 -43.63357 A 12.5 3.73315 360 0 1 -53.42393 -43.63357 L -53.42393 -30.12725" />
    <path d="M -53.42393 -43.63357 A 12.5 3.73315 360 0 1 -49.45327 -46.3626" />
    <path d="M -44.83579 -25.7725 C -44.84 -25.85 -44.84 -25.93 -44.84155 -26.00218 C -44.85 -26.08 -44.85 -26.16 -44.85885 -26.2327 C -44.87 -26.31 -44.88 -26.39 -44.88766 -26.46378 C -44.9 -26.54 -44.91 -26.62 -44.92799 -26.69513 C -44.94 -26.77 -44.96 -26.85 -44.97983 -26.92649 C -45 -27 -45.02 -27.08 -45.04316 -27.15757 C -45.07 -27.23 -45.09 -27.31 -45.11797 -27.38811 C -45.14 -27.46 -45.17 -27.54 -45.20425 -27.61783 C -45.22 -27.65 -45.23 -27.69 -45.24907 -27.72617 C -45.26 -27.76 -45.28 -27.8 -45.29645 -27.83422 C -45.31 -27.87 -45.33 -27.91 -45.34639 -27.94196 C -45.36 -27.98 -45.38 -28.01 -45.39889 -28.04935 C -45.42 -28.09 -45.44 -28.12 -45.45395 -28.15637 C -45.47 -28.19 -45.49 -28.23 -45.51156 -28.26298 C -45.53 -28.3 -45.55 -28.33 -45.57173 -28.36914 C -45.59 -28.4 -45.61 -28.44 -45.63445 -28.47481 C -45.66 -28.51 -45.68 -28.55 -45.69973 -28.57996 C -45.72 -28.61 -45.74 -28.65 -45.76754 -28.68453 C -45.79 -28.72 -45.81 -28.75 -45.8379 -28.7885 C -45.86 -28.82 -45.89 -28.86 -45.91079 -28.89179 C -45.94 -28.93 -45.96 -28.96 -45.98621 -28.99438 C -46.01 -29.03 -46.04 -29.06 -46.06416 -29.0962 C -46.09 -29.13 -46.12 -29.16 -46.14462 -29.19721 C -46.17 -29.23 -46.2 -29.26 -46.22759 -29.29734 C -46.26 -29.33 -46.29 -29.37 -46.32219 -29.40691 C -46.35 -29.44 -46.39 -29.48 -46.41981 -29.51523 C -46.45 -29.55 -46.49 -29.59 -46.52042 -29.6222 C -46.55 -29.66 -46.59 -29.69 -46.624 -29.72771 C -46.76 -29.87 -46.91 -30 -47.06692 -30.13266 C -48.27 -31.18 -49.97 -31.68 -50.8235 -31.25799" />
    <path d="M -47.29729 -21.89613 C -47.28 -21.9 -47.26 -21.91 -47.23648 -21.92188 C -47.22 -21.93 -47.2 -21.94 -47.17631 -21.94873 C -47.16 -21.96 -47.14 -21.97 -47.11678 -21.97666 C -47.1 -21.99 -47.08 -22 -47.05792 -22.00564 C -47.02 -22.03 -46.98 -22.05 -46.94313 -22.06613 C -46.91 -22.09 -46.87 -22.11 -46.83109 -22.13043 C -46.79 -22.15 -46.76 -22.18 -46.72187 -22.19831 C -46.69 -22.22 -46.65 -22.25 -46.61552 -22.26959 C -46.58 -22.29 -46.55 -22.32 -46.5121 -22.34409 C -46.48 -22.37 -46.44 -22.4 -46.41165 -22.42161 C -46.38 -22.45 -46.35 -22.47 -46.3142 -22.502 C -46.28 -22.53 -46.25 -22.56 -46.21978 -22.58509 C -46.19 -22.61 -46.16 -22.64 -46.13767 -22.6618 C -46.11 -22.69 -46.08 -22.71 -46.05803 -22.74046 C -46.03 -22.77 -46.01 -22.79 -45.98088 -22.82098 C -45.96 -22.85 -45.93 -22.88 -45.9062 -22.90326 C -45.88 -22.93 -45.86 -22.96 -45.83402 -22.98722 C -45.81 -23.02 -45.79 -23.04 -45.76434 -23.07278 C -45.74 -23.1 -45.72 -23.13 -45.69716 -23.15985 C -45.68 -23.19 -45.65 -23.22 -45.63248 -23.24837 C -45.61 -23.28 -45.59 -23.31 -45.57031 -23.33825 C -45.55 -23.37 -45.53 -23.4 -45.51066 -23.42944 C -45.49 -23.46 -45.47 -23.49 -45.45352 -23.52186 C -45.43 -23.55 -45.42 -23.58 -45.3989 -23.61545 C -45.38 -23.65 -45.36 -23.68 -45.34679 -23.71016 C -45.33 -23.74 -45.31 -23.77 -45.29721 -23.80592 C -45.28 -23.84 -45.27 -23.87 -45.25015 -23.9027 C -45.23 -23.94 -45.22 -23.97 -45.20561 -24.00043 C -45.08 -24.28 -44.99 -24.57 -44.92833 -24.86662 C -44.87 -25.16 -44.84 -25.47 -44.83579 -25.7725" />
    <path d="M -28.42393 -30.31268 A 60 17.91912 0 0 1 63.42863 -15.12714 C 63.43 -15.13 63.43 -15.13 63.42787 -15.1389 C 63.43 -15.14 63.43 -15.15 63.42714 -15.15076 C 63.43 -15.15 63.43 -15.16 63.42639 -15.16275 C 63.43 -15.17 63.43 -15.17 63.4256 -15.17492 C 63.43 -15.18 63.43 -15.18 63.42474 -15.18731 C 63.42 -15.19 63.42 -15.2 63.42376 -15.19998 C 63.42 -15.2 63.42 -15.21 63.42264 -15.21294 C 63.42 -15.22 63.42 -15.22 63.42134 -15.22626 C 63.42 -15.23 63.42 -15.24 63.41984 -15.23996 C 63.42 -15.24 63.42 -15.25 63.41809 -15.25408 C 63.42 -15.26 63.42 -15.26 63.41608 -15.26865 C 63.42 -15.27 63.41 -15.28 63.41376 -15.28372 C 63.41 -15.29 63.41 -15.29 63.4111 -15.29931 C 63.41 -15.3 63.41 -15.31 63.40808 -15.31545 C 63.41 -15.32 63.41 -15.33 63.40467 -15.33218 C 63.4 -15.34 63.4 -15.34 63.40083 -15.34952 C 63.4 -15.36 63.4 -15.36 63.39653 -15.3675 C 63.4 -15.37 63.39 -15.38 63.39175 -15.38614 C 63.39 -15.39 63.39 -15.4 63.38646 -15.40547 C 63.38 -15.41 63.38 -15.42 63.38062 -15.42552 C 63.38 -15.43 63.38 -15.44 63.37421 -15.4463 C 63.37 -15.45 63.37 -15.46 63.3672 -15.46784 C 63.36 -15.48 63.36 -15.48 63.35956 -15.49015 C 63.36 -15.5 63.35 -15.51 63.35127 -15.51325 C 63.35 -15.53 63.34 -15.55 63.3326 -15.56189 C 63.33 -15.58 63.32 -15.6 63.31098 -15.61388 C 63.3 -15.65 63.28 -15.69 63.25804 -15.72824 C 63.1 -16.05 62.78 -16.54 62.19864 -17.12283 C 60.39 -19.01 56 -21.5 49.86088 -23.46894 C 23.72 -31.53 -13.5 -30.27 -28.42393 -26.97647" />
    <path d="M -56.57137 -15.12714 A 60 17.91912 0 0 1 -44.83579 -25.7725" />
    <path d="M -66.57137 -15.12714 A 70 20.90564 180 0 0 73.42863 -15.12714 C 73.43 -15.19 73.43 -15.26 73.42699 -15.32087 C 73.43 -15.39 73.42 -15.45 73.42182 -15.51456 C 73.42 -15.58 73.42 -15.64 73.41314 -15.70812 C 73.41 -15.77 73.41 -15.84 73.40097 -15.90147 C 73.4 -15.97 73.39 -16.03 73.38533 -16.09453 C 73.38 -16.16 73.37 -16.22 73.36625 -16.28722 C 73.36 -16.35 73.35 -16.42 73.34376 -16.47947 C 73.34 -16.54 73.33 -16.61 73.31788 -16.67122 C 73.31 -16.74 73.3 -16.8 73.28865 -16.86238 C 73.28 -16.93 73.27 -16.99 73.25609 -17.0529 C 73.24 -17.12 73.23 -17.18 73.22025 -17.24272 C 73.21 -17.31 73.19 -17.37 73.18114 -17.43177 C 73.17 -17.49 73.15 -17.56 73.13881 -17.62 C 73.12 -17.68 73.11 -17.75 73.09329 -17.80737 C 73.08 -17.87 73.06 -17.93 73.04462 -17.99381 C 73.03 -18.06 73.01 -18.12 72.99284 -18.17928 C 72.98 -18.24 72.96 -18.3 72.93798 -18.36373 C 72.92 -18.43 72.9 -18.49 72.8801 -18.54713 C 72.86 -18.61 72.84 -18.67 72.81922 -18.72944 C 72.8 -18.79 72.78 -18.85 72.7554 -18.91062 C 72.73 -18.97 72.71 -19.03 72.68868 -19.09063 C 72.67 -19.15 72.64 -19.21 72.61911 -19.26946 C 72.6 -19.33 72.57 -19.39 72.54673 -19.44706 C 72.52 -19.51 72.5 -19.56 72.4716 -19.62342 C 72.45 -19.68 72.42 -19.74 72.39375 -19.79851 C 72.37 -19.86 72.34 -19.91 72.31326 -19.97233 C 72.26 -20.09 72.2 -20.2 72.14451 -20.31604 C 72.03 -20.54 71.91 -20.77 71.77756 -20.98759 C 70.29 -23.51 68.06 -25.55 65.30848 -27.3647 C 52.96 -36.77 11.45 -43.13 -28.42393 -37.11661" />
    <path d="M -55.92393 -15.0027 L -55.92393 -13.78425" />
    <path d="M -25.92393 -15.0027 L -25.92393 -10.23089" />
    <path d="M -39.27393 -5.66699 L -39.27393 -5.7783" />
    <path d="M -42.57393 17.44561 L -42.57393 3.79381" />
    <path d="M -53.42393 -18.6953 L -53.42393 -15.0027" />
    <path d="M -28.42393 -43.63357 L -28.42393 -15.0027" />
    <path d="M -56.57137 -15.12714 C -56.57 -15.13 -56.57 -15.14 -56.57115 -15.14507 C -56.57 -15.15 -56.57 -15.16 -56.57055 -15.16314 C -56.57 -15.17 -56.57 -15.18 -56.56953 -15.1815 C -56.57 -15.19 -56.57 -15.19 -56.56806 -15.20033 C -56.57 -15.21 -56.57 -15.21 -56.5661 -15.21976 C -56.57 -15.23 -56.56 -15.23 -56.5636 -15.23995 C -56.56 -15.25 -56.56 -15.25 -56.56052 -15.26103 C -56.56 -15.27 -56.56 -15.28 -56.55679 -15.28312 C -56.56 -15.29 -56.55 -15.3 -56.55235 -15.30636 C -56.55 -15.31 -56.55 -15.32 -56.54711 -15.33085 C -56.55 -15.34 -56.54 -15.35 -56.541 -15.35671 C -56.54 -15.37 -56.54 -15.37 -56.53394 -15.38404 C -56.53 -15.39 -56.53 -15.4 -56.52582 -15.41293 C -56.52 -15.42 -56.52 -15.43 -56.51654 -15.44347 C -56.51 -15.45 -56.51 -15.46 -56.506 -15.47573 C -56.5 -15.49 -56.5 -15.5 -56.49408 -15.5098 C -56.49 -15.52 -56.48 -15.54 -56.47757 -15.55322 C -56.47 -15.57 -56.47 -15.58 -56.45882 -15.59959 C -56.45 -15.62 -56.45 -15.63 -56.43763 -15.64894 C -56.43 -15.67 -56.42 -15.68 -56.41377 -15.70127 C -56.41 -15.72 -56.4 -15.74 -56.38704 -15.75656 C -56.38 -15.78 -56.37 -15.79 -56.35725 -15.81481 C -56.35 -15.83 -56.34 -15.86 -56.32425 -15.87599 C -56.31 -15.9 -56.3 -15.92 -56.28785 -15.94005 C -56.28 -15.96 -56.26 -15.98 -56.24792 -16.00696 C -56.23 -16.03 -56.22 -16.05 -56.20432 -16.07667 C -56.17 -16.12 -56.14 -16.17 -56.10562 -16.22422 C -56.03 -16.33 -55.95 -16.43 -55.85927 -16.54995 C -55.49 -17.01 -54.92 -17.57 -54.15351 -18.16134 C -52.62 -19.35 -50.27 -20.67 -47.29729 -21.89613" />
    <path d="M -66.57137 -15.12714 C -66.57 -15.06 -66.57 -15 -66.56974 -14.9334 C -66.57 -14.87 -66.57 -14.8 -66.56457 -14.73971 C -66.56 -14.68 -66.56 -14.61 -66.55588 -14.54615 C -66.55 -14.48 -66.55 -14.42 -66.54371 -14.3528 C -66.54 -14.29 -66.53 -14.22 -66.52807 -14.15974 C -66.52 -14.1 -66.52 -14.03 -66.50899 -13.96705 C -66.5 -13.9 -66.49 -13.84 -66.4865 -13.7748 C -66.48 -13.71 -66.47 -13.65 -66.46063 -13.58305 C -66.45 -13.52 -66.44 -13.46 -66.43139 -13.39189 C -66.42 -13.33 -66.41 -13.26 -66.39884 -13.20137 C -66.39 -13.14 -66.38 -13.07 -66.36299 -13.01155 C -66.35 -12.95 -66.34 -12.89 -66.32388 -12.8225 C -66.31 -12.76 -66.3 -12.7 -66.28155 -12.63427 C -66.27 -12.57 -66.25 -12.51 -66.23603 -12.44691 C -66.22 -12.38 -66.2 -12.32 -66.18736 -12.26047 C -66.17 -12.2 -66.15 -12.14 -66.13558 -12.075 C -66.12 -12.01 -66.1 -11.95 -66.08073 -11.89054 C -66.06 -11.83 -66.04 -11.77 -66.02284 -11.70714 C -66 -11.65 -65.98 -11.59 -65.96197 -11.52483 C -65.94 -11.46 -65.92 -11.4 -65.89815 -11.34365 C -65.88 -11.28 -65.85 -11.22 -65.83143 -11.16364 C -65.81 -11.1 -65.79 -11.04 -65.76186 -10.98481 C -65.74 -10.93 -65.71 -10.87 -65.68948 -10.80721 C -65.66 -10.75 -65.64 -10.69 -65.61434 -10.63085 C -65.59 -10.57 -65.56 -10.51 -65.5365 -10.45576 C -65.51 -10.4 -65.48 -10.34 -65.456 -10.28194 C -65.4 -10.17 -65.35 -10.05 -65.28725 -9.93823 C -65.17 -9.71 -65.05 -9.49 -64.9203 -9.26668 C -63.98 -6.61 -58.27 2.38 -21.50093 7.83797 C 62.88 13.57 81.07 -12.69 73.42863 -15.12714" />
    <path d="M -66.57137 -15.12714 C -66.57 -15.21 -66.57 -15.3 -66.56871 -15.383 C -66.57 -15.47 -66.56 -15.55 -66.55978 -15.63873 C -66.56 -15.72 -66.55 -15.81 -66.54464 -15.89413 C -66.54 -15.98 -66.53 -16.06 -66.52339 -16.14901 C -66.52 -16.23 -66.51 -16.32 -66.49611 -16.40321 C -66.49 -16.49 -66.47 -16.57 -66.46287 -16.65657 C -66.45 -16.74 -66.44 -16.82 -66.42377 -16.90892 C -66.41 -16.99 -66.39 -17.08 -66.37889 -17.16013 C -66.36 -17.24 -66.35 -17.33 -66.32832 -17.41005 C -66.31 -17.49 -66.29 -17.58 -66.27215 -17.65855 C -66.25 -17.74 -66.23 -17.82 -66.21047 -17.90552 C -66.19 -17.99 -66.17 -18.07 -66.14336 -18.15084 C -66.12 -18.23 -66.1 -18.31 -66.07092 -18.39441 C -66.05 -18.48 -66.02 -18.56 -65.99325 -18.63614 C -65.97 -18.72 -65.94 -18.8 -65.91044 -18.87593 C -65.88 -18.96 -65.85 -19.03 -65.82258 -19.1137 C -65.79 -19.19 -65.76 -19.27 -65.72977 -19.3494 C -65.7 -19.43 -65.67 -19.51 -65.63211 -19.58295 C -65.6 -19.66 -65.56 -19.74 -65.5297 -19.81431 C -65.49 -19.89 -65.46 -19.97 -65.42264 -20.04343 C -65.39 -20.12 -65.35 -20.2 -65.31103 -20.27027 C -65.27 -20.35 -65.23 -20.42 -65.19497 -20.49482 C -65.16 -20.57 -65.12 -20.64 -65.07457 -20.71704 C -65.03 -20.79 -64.99 -20.86 -64.94993 -20.93693 C -64.91 -21.01 -64.86 -21.08 -64.82116 -21.15448 C -64.78 -21.23 -64.73 -21.3 -64.68837 -21.36971 C -64.64 -21.44 -64.6 -21.51 -64.55166 -21.58264 C -64.51 -21.65 -64.46 -21.72 -64.41115 -21.79327 C -64.22 -22.07 -64.02 -22.35 -63.81328 -22.61373 C -60.95 -26.23 -56.55 -28.91 -50.8235 -31.25799" />
    <path d="M 63.42863 -15.12714 C 63.43 -15.12 63.43 -15.12 63.42787 -15.11537 C 63.43 -15.11 63.43 -15.11 63.42714 -15.10352 C 63.43 -15.1 63.43 -15.1 63.42639 -15.09152 C 63.43 -15.09 63.43 -15.08 63.4256 -15.07935 C 63.43 -15.08 63.43 -15.07 63.42474 -15.06696 C 63.42 -15.06 63.42 -15.06 63.42376 -15.0543 C 63.42 -15.05 63.42 -15.05 63.42264 -15.04133 C 63.42 -15.04 63.42 -15.03 63.42134 -15.02801 C 63.42 -15.02 63.42 -15.02 63.41984 -15.01431 C 63.42 -15.01 63.42 -15 63.41809 -15.00019 C 63.42 -15 63.42 -14.99 63.41608 -14.98562 C 63.42 -14.98 63.41 -14.98 63.41376 -14.97055 C 63.41 -14.97 63.41 -14.96 63.4111 -14.95496 C 63.41 -14.95 63.41 -14.94 63.40808 -14.93882 C 63.41 -14.93 63.41 -14.93 63.40467 -14.92209 C 63.4 -14.92 63.4 -14.91 63.40083 -14.90475 C 63.4 -14.9 63.4 -14.89 63.39653 -14.88677 C 63.4 -14.88 63.39 -14.87 63.39175 -14.86813 C 63.39 -14.86 63.39 -14.86 63.38646 -14.8488 C 63.38 -14.84 63.38 -14.84 63.38062 -14.82875 C 63.38 -14.82 63.38 -14.82 63.37421 -14.80797 C 63.37 -14.8 63.37 -14.79 63.3672 -14.78643 C 63.36 -14.78 63.36 -14.77 63.35956 -14.76412 C 63.36 -14.76 63.35 -14.75 63.35127 -14.74102 C 63.35 -14.73 63.34 -14.71 63.3326 -14.69238 C 63.33 -14.68 63.32 -14.66 63.31098 -14.64039 C 63.3 -14.6 63.28 -14.57 63.25804 -14.52603 C 63.1 -14.21 62.78 -13.71 62.19864 -13.13144 C 61.62 -10.62 44.21 -1.29 3.25497 -0.71483 C -60.9 -3.59 -56.93 -17.23 -56.57137 -15.12714" />
</svg>