<svg viewBox="0 0 1000 1000" xmlns="http://www.w3.org/2000/svg"><path d="M765.3296811765376,359.09053534543204 L772.6273770127323,365.6174300112262 M772.6273770127323,365.6174300112262 L778.459919224756,372.95319766943305 M778.459919224756,372.95319766943305 L782.6756553372953,380.9087085975404 M782.6756553372953,380.9087085975404 L785.164480287,389.278599006827 M785.164480287,389.278599006827 L785.8607845263184,397.8465097182283 M785.8607845263184,397.8465097182283 L784.7452597617151,406.39065855115666 M784.7452597617151,406.39065855115666 L781.8455468077593,414.689566047526 M781.8455468077593,414.689566047526 L777.2356345299922,422.52780622348087 M777.2356345299922,422.52780622348087 L771.0340644331916,429.7016454749912 M771.0340644331916,429.7016454749912 L763.4009485827919,436.02438414833614 M763.4009485827919,436.02438414833614 L754.5338759895209,441.33129520887906 M754.5338759895209,441.33129520887906 L744.6628078020431,445.48398353284074 M744.6628078020431,445.48398353284074 L734.0440768592292,448.37406745171245 M734.0440768592292,448.37406745171245 L722.9536979830767,449.92607726971346 M722.9536979830767,449.92607726971346 L711.6801079101765,450.0994659218924 M711.6801079101765,450.0994659218924 L700.5165637199531,448.88970800366576 M700.5165637199531,448.88970800366576 L689.7534331543532,446.32840108946516 M689.7534331543532,446.32840108946516 L679.6705279281251,442.48244755311623 M679.6705279281251,442.48244755311623 L670.5297580384184,437.4522335555837 M670.5297580384184,437.4522335555837 L662.5682714069114,431.36896577672655 M662.5682714069114,431.36896577672655 L655.9922643700529,424.3911756995542 M655.9922643700529,424.3911756995542 L650.9716416905919,416.7005126895915 M650.9716416905919,416.7005126895915 L647.6356564621285,408.4969393189277 M647.6356564621285,408.4969393189277 L646.0696654827375,399.99347400471214 M646.0696654827375,399.99347400471214 L646.3129873944657,391.4106250537784 M646.3129873944657,391.4106250537784 L648.3580483436559,382.97063777152846 M648.3580483436559,382.97063777152846 L652.1506835213025,374.8917567899062 M652.1506835213025,374.8917567899062 L657.591679615207,367.38260420496266 M657.591679615207,367.38260420496266 L664.539435168262,360.6368333869225 M664.539435168262,360.6368333869225 L672.8137052948152,354.82821326803065 M672.8137052948152,354.82821326803065 L682.2002995082744,350.1062148396868 M682.2002995082744,350.1062148396868 L692.4566081646294,346.5922405593258 M692.4566081646294,346.5922405593258 L703.3178482210095,344.3765723798548 M703.3178482210095,344.3765723798548 L714.5038208463787,343.5161080034295 M714.5038208463787,343.5161080034295 L725.7260677348389,344.03294171895874 M725.7260677348389,344.03294171895874 L736.695207389839,345.91380108512 M736.695207389839,345.91380108512 L747.1282927548092,349.11039178751406 M747.1282927548092,349.11039178751406 L756.7560372838936,353.5405966825786 M756.7560372838936,353.5405966825786 L765.3296811765376,359.09053534543204 M721.8957870106356,392.2085691668207 L720.2893957933514,391.249168284575 M720.2893957933514,391.249168284575 L718.4286385045465,390.61073644897556 M718.4286385045465,390.61073644897556 L716.4216140883341,390.33034149997695 M716.4216140883341,390.33034149997695 L714.3849056811625,390.424262153741 M714.3849056811625,390.424262153741 L712.4368173981069,390.88704658791147 M712.4368173981069,390.88704658791147 L710.6905145159305,391.6918254640595 M710.6905145159305,391.6918254640595 L709.2474566744525,392.79187019125044 M709.2474566744525,392.79187019125044 L708.1915093437614,394.1232972937819 M708.1915093437614,394.1232972937819 L707.5840686638619,395.6087711811035 M707.5840686638619,395.6087711811035 L707.4604890172911,397.16198800505634 M707.4604890172911,397.16198800505634 L707.8280129175956,398.6926864864241 M707.8280129175956,398.6926864864241 L708.6653392936281,400.1118911202838 M708.6653392936281,400.1118911202838 L709.9238470792295,401.337087785057 M709.9238470792295,401.337087785057 L711.5304119432222,402.29702585241694 M711.5304119432222,402.29702585241694 L713.3916503913867,402.9358718105001 M713.3916503913867,402.9358718105001 L715.3993532519204,403.21646294897334 M715.3993532519204,403.21646294897334 L717.4367819649683,403.1224756070841 M717.4367819649683,403.1224756070841 L719.3854674021195,402.6593768841013 M719.3854674021195,402.6593768841013 L721.1321074857051,401.8541081187977 M721.1321074857051,401.8541081187977 L722.5751653271718,400.7535101295753 M722.5751653271718,400.7535101295753 L723.6307754564408,399.421593137877 M723.6307754564408,399.421593137877 L724.2376189822529,397.93580496188844 M724.2376189822529,397.93580496188844 L724.3604783229694,396.3825214495705 M724.3604783229694,396.3825214495705 L723.9922759783603,394.8520191575929 M723.9922759783603,394.8520191575929 L723.1544684429657,393.4332286462627 M723.1544684429657,393.4332286462627 L721.8957870106356,392.2085691668207 M765.3296811765376,359.09053534543204 L765.3583998574655,343.9871923737945 M765.3583998574655,343.9871923737945 L772.6603425455464,350.5151413327405 M772.6603425455464,350.5151413327405 L778.4962822185079,357.8520955833488 M778.4962822185079,357.8520955833488 L782.7144777220348,365.8088953136888 M782.7144777220348,365.8088953136888 L785.2047592276932,374.1801438608299 M785.2047592276932,374.1801438608299 L785.9014781246134,382.74944718432585 M785.9014781246134,382.74944718432585 L784.7853139000187,391.2949871272086 M784.7853139000187,391.2949871272086 L781.8839224716573,399.5952480610209 M781.8839224716573,399.5952480610209 L777.2713348816889,407.43476858766365 M777.2713348816889,407.43476858766365 L771.0661609299973,414.60978140055033 M771.0661609299973,414.60978140055033 L763.4286054298135,420.93355578203125 M763.4286054298135,420.93355578203125 L754.556372252219,426.2413371473896 M754.556372252219,426.2413371473896 L744.6795565582712,430.3947071239568 M744.6795565582712,430.3947071239568 L734.0546408365498,433.2852657708768 M734.0546408365498,433.2852657708768 L722.9578012496576,434.83753063483346 M722.9578012496576,434.83753063483346 L711.6776432623299,435.0109477852659 M711.6776432623299,435.0109477852659 L700.5075955508464,433.80099105080535 M700.5075955508464,433.80099105080535 L689.7381957342881,431.23926335756255 M689.7381957342881,431.23926335756255 L679.6494191254128,427.39267839441015 M679.6494191254128,427.39267839441015 L670.5033286820492,422.36163925948154 M670.5033286820492,422.36163925948154 L662.5372105965866,416.27737469553836 M662.5372105965866,416.27737469553836 L655.9573811534638,409.2984427308048 M655.9573811534638,409.2984427308048 L650.9338436350426,401.606522995433 M650.9338436350426,401.606522995433 L647.5959257232561,393.4016111898003 M647.5959257232561,393.4016111898003 L646.0290330483587,384.8967608056823 M646.0290330483587,384.8967608056823 L646.2725061675832,376.3125162217955 M646.2725061675832,376.3125162217955 L648.3187658273248,367.87115885606966 M648.3187658273248,367.87115885606966 L652.1136147811619,359.790968564423 M652.1136147811619,359.790968564423 L657.5577812344986,352.2806008923747 M657.5577812344986,352.2806008923747 L664.5095808288543,345.53374006540497 M664.5095808288543,345.53374006540497 L672.7886635902657,339.7241825433063 M672.7886635902657,339.7241825433063 L682.1807145132819,335.00142287493986 M682.1807145132819,335.00142287493986 L692.4429832104855,331.48688256899277 M692.4429832104855,331.48688256899277 L703.3105332640662,329.2708576980112 M703.3105332640662,329.2708576980112 L714.5030037000749,328.41025484161173 M714.5030037000749,328.41025484161173 L725.7317693768763,328.92717173159275 M725.7317693768763,328.92717173159275 L736.7072814378454,330.8083338587095 M736.7072814378454,330.8083338587095 L747.1464291216143,334.0054393766399 M747.1464291216143,334.0054393766399 L756.7797699447898,338.43635830798775 M756.7797699447898,338.43635830798775 L765.3583998574655,343.9871923737945 M721.899686403269,375.2976524042832 L720.292248538859,374.3380769529852 M720.292248538859,374.3380769529852 L718.430278961489,373.69952896912366 M718.430278961489,373.69952896912366 L716.4219470152223,373.41908301325117 M716.4219470152223,373.41908301325117 L714.3839117499305,373.51302075188136 M714.3839117499305,373.51302075188136 L712.4345543123571,373.9758893746435 M712.4345543123571,373.9758893746435 L710.6871136717195,374.78081467260455 M710.6871136717195,374.78081467260455 L709.2431155524416,375.88105958028956 M709.2431155524416,375.88105958028956 L708.1864800702465,377.21272902762473 M708.1864800702465,377.21272902762473 L707.5786433952222,378.69847337482247 M707.5786433952222,378.69847337482247 L707.4549829909379,380.25197307792695 M707.4549829909379,380.25197307792695 L707.822746143858,381.78295042264995 M707.822746143858,381.78295042264995 L708.6606179540175,383.2024136835585 M708.6606179540175,383.2024136835585 L709.9199457103641,384.427833679151 M709.9199457103641,384.427833679151 L711.5275574478484,385.38794676349204 M711.5275574478484,385.38794676349204 L713.3900088118166,386.0269092151511 M713.3900088118166,386.0269092151511 L715.3990200868238,386.3075515240896 M715.3990200868238,386.3075515240896 L717.4377765969818,386.2135470417269 M717.4377765969818,386.2135470417269 L719.3877319671001,385.7503638680842 M719.3877319671001,385.7503638680842 L721.1355102487221,384.9449482724762 M721.1355102487221,384.9449482724762 L722.5795083679886,383.84414964142536 M722.5795083679886,383.84414964142536 L723.6358062091864,382.5119898964318 M723.6358062091864,382.5119898964318 L724.2430449516739,381.0259309984995 M724.2430449516739,381.0259309984995 L724.3659841111141,379.472364551422 M724.3659841111141,379.472364551422 L723.9975416294704,377.94158355968085 M723.9975416294704,377.94158355968085 L723.1591880327101,376.52253476661554 M723.1591880327101,376.52253476661554 L721.899686403269,375.2976524042832 M721.899686403269,375.2976524042832 L721.8957870106356,392.2085691668207 M757.1242808156719,350.2630195627331 L763.6626985288002,356.1906787690601 M763.6626985288002,356.1906787690601 L768.7532430211195,362.8943420250965 M768.7532430211195,362.8943420250965 L772.2406785819117,370.1710674761177 M772.2406785819117,370.1710674761177 L774.0181826383226,377.80030854565445 M774.0181826383226,377.80030854565445 L774.03068338921,385.55055150645194 M774.03068338921,385.55055150645194 L772.2766730594,393.1863099343535 M772.2766730594,393.1863099343535 L768.8083897704121,400.47528401629125 M768.8083897704121,400.47528401629125 L763.7303460464924,407.1954498143585 M763.7303460464924,407.1954498143585 L757.196269821401,413.14187503129597 M757.196269821401,413.14187503129597 L749.4044959906131,418.13303112787116 M749.4044959906131,418.13303112787116 L740.5919704478408,422.01641703569703 M740.5919704478408,422.01641703569703 L731.0270199136442,424.6732907907651 M731.0270199136442,424.6732907907651 L721.0011367733846,426.0223725803635 M721.0011367733846,426.0223725803635 L710.8200132982241,426.0223725803635 M710.8200132982241,426.0223725803635 L700.7941301579647,424.6732907907651 M700.7941301579647,424.6732907907651 L691.229179623768,422.01641703569703 M691.229179623768,422.01641703569703 L682.4166540809956,418.13303112787116 M682.4166540809956,418.13303112787116 L674.6248802502078,413.14187503129585 M674.6248802502078,413.14187503129585 L668.0908040251163,407.1954498143585 M668.0908040251163,407.1954498143585 L663.0127603011967,400.47528401629125 M663.0127603011967,400.47528401629125 L659.544477012209,393.1863099343535 M659.544477012209,393.1863099343535 L657.7904666823987,385.55055150645194 M657.7904666823987,385.55055150645194 L657.8029674332861,377.80030854565445 M657.8029674332861,377.80030854565445 L659.5804714896972,370.1710674761177 M659.5804714896972,370.1710674761177 L663.0679070504893,362.8943420250965 M663.0679070504893,362.8943420250965 L668.1584515428085,356.1906787690601 M668.1584515428085,356.1906787690601 L674.6968692559369,350.2630195627331 M674.6968692559369,350.2630195627331 L682.4843016339222,345.2906294838772 M682.4843016339222,345.2906294838772 L691.2843264270425,341.4237461440654 M691.2843264270425,341.4237461440654 L700.8301246829237,338.77912104698834 M700.8301246829237,338.77912104698834 L710.8325140678593,337.4365566427629 M710.8325140678593,337.4365566427629 L720.9886360037494,337.4365566427629 M720.9886360037494,337.4365566427629 L730.991025388685,338.77912104698834 M730.991025388685,338.77912104698834 L740.5368236445663,341.4237461440654 M740.5368236445663,341.4237461440654 L749.3368484376865,345.2906294838772 M749.3368484376865,345.2906294838772 L757.1242808156719,350.2630195627331 M721.899686403269,375.2976524042832 L725.0464332320554,368.46778832837805 M725.0464332320554,368.46778832837805 L725.8689857928682,366.68247671068673 M737.2661979095824,363.11847194490934 L735.9313915895681,365.38804003006317 M735.9313915895681,365.38804003006317 L734.4238332701249,367.28769240702246 M734.4238332701249,367.28769240702246 L733.0870770629747,368.4175846314725 M733.0870770629747,368.4175846314725 L732.2320298544653,368.8544748982265 M732.2320298544653,368.8544748982265 L731.1901901958433,369.0816433906819 M731.1901901958433,369.0816433906819 L730.0666513218454,368.983049567642 M730.0666513218454,368.983049567642 L728.8282037244329,368.5481943550441 M728.8282037244329,368.5481943550441 L727.4471895722711,367.78625032614957 M727.4471895722711,367.78625032614957 L726.6722276161445,367.26991393050406 M726.6722276161445,367.26991393050406 L725.8689857928682,366.68247671068673 M720.4265378545684,350.2961325636355 L715.1298687763481,349.947017829008 M715.1298687763481,349.947017829008 L709.8794826741755,350.58368306134054 M709.8794826741755,350.58368306134054 L704.9866572681817,352.16843432801056 M704.9866572681817,352.16843432801056 L700.741554191075,354.6074282736988 M700.741554191075,354.6074282736988 L697.3960628996942,357.75618899283074 M697.3960628996942,357.75618899283074 L695.1488706372677,361.42811084033895 M695.1488706372677,361.42811084033895 L694.1336544416858,365.4054619131122 M694.1336544416858,365.4054619131122 L694.4110746365812,369.4522559398237 M694.4110746365812,369.4522559398237 L695.9650862589106,373.3282235279379 M695.9650862589106,373.3282235279379 L698.7037909747386,376.8030931344298 M698.7037909747386,376.8030931344298 L702.4648082306476,379.67029678676573 M702.4648082306476,379.67029678676573 L707.0248707856235,381.7593025248846 M707.0248707856235,381.7593025248846 L712.1130760485183,382.94581186134485 M712.1130760485183,382.94581186134485 L717.4270182701364,383.1592079664134 M717.4270182701364,383.1592079664134 L722.650814711223,382.3867890705294 M722.650814711223,382.3867890705294 L727.4739697663151,380.6745293156574 M727.4739697663151,380.6745293156574 L731.6098874376789,378.124324682731 M731.6098874376789,378.124324682731 L734.812954909966,374.88788048012697 M734.812954909966,374.88788048012697 L736.8931437407834,371.15763693257827 M736.8931437407834,371.15763693257827 L737.7272618196911,367.1552689194803 M737.7272618196911,367.1552689194803 L737.2661979095824,363.11847194490934 M725.8689857928682,366.68247671068673 L724.209219634509,365.3168455796661 M724.209219634509,365.3168455796661 L722.6271859208953,363.79483655947615 M722.6271859208953,363.79483655947615 L721.24938118367,362.1807941296828 M721.24938118367,362.1807941296828 L720.164271009479,360.5074085378123 M720.164271009479,360.5074085378123 L719.43202387313,358.82893114767626 M719.43202387313,358.82893114767626 L719.044371763255,357.17560409968013 M719.044371763255,357.17560409968013 L718.9602186861006,355.5481334204947 M718.9602186861006,355.5481334204947 L719.1355290470834,353.9674251606048 M719.1355290470834,353.9674251606048 L719.649385446031,352.08083452025755 M719.649385446031,352.08083452025755 L720.4265378545684,350.2961325636355 M757.1242808156719,350.2630195627331 L757.1338648412005,344.2171710419782 M757.1338648412005,344.2171710419782 L754.7858154038578,342.28208404008393 M754.7858154038578,342.28208404008393 L752.5468551921466,340.1517194912391 M752.5468551921466,340.1517194912391 L750.9269980039952,338.3970550875353 M750.9269980039952,338.3970550875353 L749.6321701074148,336.8118253809758 M749.6321701074148,336.8118253809758 L748.5328239364542,335.2704945861533 M748.5328239364542,335.2704945861533 L747.3778616298225,333.302041212938 M747.3778616298225,333.302041212938 L746.5050445954199,331.2243504622762 M746.5050445954199,331.2243504622762 L746.083226914663,329.311588440832 M746.083226914663,329.311588440832 L746.1120905927949,327.59125575193474 M746.1120905927949,327.59125575193474 L746.5917656647487,326.10172684303825 M746.5917656647487,326.10172684303825 L747.5225561228061,324.89773630037286 M747.5225561228061,324.89773630037286 L748.9050635436167,324.0563074635465 M748.9050635436167,324.0563074635465 L750.7339219550003,323.68845606700086 M750.7339219550003,323.68845606700086 L752.7406219212425,323.8870363696235 M752.7406219212425,323.8870363696235 L754.7823464757963,324.6033141823193 M754.7823464757963,324.6033141823193 L755.9707428149209,325.24609013791166 M755.9707428149209,325.24609013791166 L757.1626436810205,326.06274254708217 M757.1626436810205,326.06274254708217 L757.196269821401,304.8505128354379 M695.6879928555329,294.5974284383696 L704.8274118920992,292.6563697046874 M704.8274118920992,292.6563697046874 L714.2586604733458,291.86678421510044 M714.2586604733458,291.86678421510044 L723.7333994249085,292.2493845074144 M723.7333994249085,292.2493845074144 L733.0021644472528,293.79413380807114 M733.0021644472528,293.79413380807114 L741.8208493881533,296.4605020780134 M741.8208493881533,296.4605020780134 L749.9570767472641,300.1785068954092 M749.9570767472641,300.1785068954092 L757.196269821401,304.8505128354379 M695.6879928555329,294.5974284383696 L695.1184484461937,298.24042238255026 M695.1184484461937,298.24042238255026 L693.4345062505506,302.13897085678406 M693.4345062505506,302.13897085678406 L690.713103733139,306.2701226974402 M690.713103733139,306.2701226974402 L687.3529669112588,310.31741252886553 M687.3529669112588,310.31741252886553 L683.6089346167217,314.2680453912628 M683.6089346167217,314.2680453912628 L679.3878928464912,318.384005899613 M679.3878928464912,318.384005899613 L674.9168870710955,322.5420071611041 M674.9168870710955,322.5420071611041 L671.0068643090424,326.070516663514 M671.0068643090424,326.070516663514 L667.8840479310504,328.80210854148913 M667.8840479310504,328.80210854148913 L665.3139486279537,330.9264802703897 M665.3139486279537,330.9264802703897 L663.3175555621677,332.38494765434353 M663.3175555621677,332.38494765434353 L661.8227465586084,333.20144887917354 M661.8227465586084,333.20144887917354 L660.7319275465092,333.4260653623448 M660.7319275465092,333.4260653623448 L659.9557468690894,333.10578139227346 M659.9557468690894,333.10578139227346 L659.4218341416582,332.27704241771863 M659.4218341416582,332.27704241771863 L659.0755584423846,330.96701101461326 M659.0755584423846,330.96701101461326 L658.878755193565,329.19874764715524 M658.878755193565,329.19874764715524 L658.8269903530829,328.0965259735385 M658.8269903530829,328.0965259735385 L658.8080464716835,326.8775387654472 M728.277700577259,379.8088769111299 L718.6351835410344,380.7680523260452 M718.6351835410344,380.7680523260452 L708.9171200236244,380.49673623304676 M708.9171200236244,380.49673623304676 L699.3929526431834,379.0024833853562 M699.3929526431834,379.0024833853562 L690.326671907997,376.32686554563094 M690.326671907997,376.32686554563094 L681.9694591666831,372.54429879552646 M681.9694591666831,372.54429879552646 L674.5526393144498,367.7599305940115 M674.5526393144498,367.7599305940115 L668.2812562181002,362.1066632223204 M668.2812562181002,362.1066632223204 L663.3283855315178,355.74140109123505 M663.3283855315178,355.74140109123505 L659.8303719042894,348.8406310752866 M659.8303719042894,348.8406310752866 L657.8831154674585,341.5954882111196 M657.8831154674585,341.5954882111196 L657.5395008296223,334.2063988806749 M657.5395008296223,334.2063988806749 L658.8080464716835,326.8775387654472 M770.7526542183322,351.69587620949954 L770.5309157303888,355.60993669888336 M770.5309157303888,355.60993669888336 L769.8514706689531,360.2810264122462 M769.8514706689531,360.2810264122462 L768.6265446339992,365.5610035564305 M768.6265446339992,365.5610035564305 L766.8759498074869,370.8442457958885 M766.8759498074869,370.8442457958885 L764.5802818361476,375.90891923876893 M764.5802818361476,375.90891923876893 L761.4881508467454,380.8970221691598 M761.4881508467454,380.8970221691598 L757.5020271023441,385.43744668331067 M757.5020271023441,385.43744668331067 L753.2379373459906,388.7076334447772 M753.2379373459906,388.7076334447772 L749.1185601632305,390.6889149608846 M749.1185601632305,390.6889149608846 L745.0518535589462,391.68002128235474 M745.0518535589462,391.68002128235474 L741.2755065443297,391.78723341139903 M741.2755065443297,391.78723341139903 L737.9171365019635,391.1868925295849 M737.9171365019635,391.1868925295849 L735.0318096749071,390.04571970507953 M735.0318096749071,390.04571970507953 L732.6431353951447,388.4970648731197 M732.6431353951447,388.4970648731197 L730.7635825245236,386.642245997986 M730.7635825245236,386.642245997986 L729.4034390314109,384.55804940263477 M729.4034390314109,384.55804940263477 L728.5726797497831,382.3043120232354 M728.5726797497831,382.3043120232354 L728.3512188696907,381.07121996202335 M728.3512188696907,381.07121996202335 L728.277700577259,379.8088769111299 M757.196269821401,304.8505128354379 L763.3472723441453,310.3537459433268 M763.3472723441453,310.3537459433268 L768.2473895575093,316.5434651079062 M768.2473895575093,316.5434651079062 L771.7667016841771,323.25671882886405 M771.7667016841771,323.25671882886405 L773.8115405061646,330.31658233100785 M773.8115405061646,330.31658233100785 L774.3270345740382,337.53678331737075 M774.3270345740382,337.53678331737075 L773.298647119955,344.7265987135793 M773.298647119955,344.7265987135793 L770.7526542183322,351.69587620949954 M757.1626436810205,326.06274254708217 L759.3859686946505,328.09503541146273 M759.3859686946505,328.09503541146273 L761.2921637832181,330.48184200132454 M761.2921637832181,330.48184200132454 L762.555756998849,332.51043413272436 M762.555756998849,332.51043413272436 L763.501943533095,334.3637052812398 M763.501943533095,334.3637052812398 L764.2632164051419,336.164632408228 M764.2632164051419,336.164632408228 L765.0231258947499,338.4356966982564 M765.0231258947499,338.4356966982564 L765.5288731614604,340.53685970462914 M765.5288731614604,340.53685970462914 L765.780292167152,342.23020368288707 M765.780292167152,342.23020368288707 L765.8508414110387,343.7181530367283 M765.8508414110387,343.7181530367283 L765.743581679724,344.9810178727912 M765.743581679724,344.9810178727912 L765.4543233869578,345.99895833097924 M765.4543233869578,345.99895833097924 L764.9715336068234,346.74992189616563 M764.9715336068234,346.74992189616563 L764.2754708445333,347.2082836649169 M764.2754708445333,347.2082836649169 L763.3385797091529,347.3417909143119 M763.3385797091529,347.3417909143119 L762.1271505238678,347.11080550156464 M762.1271505238678,347.11080550156464 L760.6002878853157,346.46637361563273 M760.6002878853157,346.46637361563273 L758.9652433918801,345.5109883513173 M758.9652433918801,345.5109883513173 L757.1338648412005,344.2171710419782 M737.2661979095824,363.11847194490934 L756.2377238983231,348.65979328268844 M720.4265378545684,350.2961325636355 L739.3980702542433,335.8477465278517 M756.2377238983231,348.65979328268844 L760.0927910427251,355.08062308474615 M760.0927910427251,355.08062308474615 L762.207723957616,361.95632039576657 M762.207723957616,361.95632039576657 L762.498195835472,369.01619050033844 M762.498195835472,369.01619050033844 L760.9516913306798,375.9819621825276 M760.9516913306798,375.9819621825276 L757.6281793471197,382.5787625946659 M757.6281793471197,382.5787625946659 L752.6578826475125,388.5459827118541 M752.6578826475125,388.5459827118541 L746.2362925594638,393.6476457823014 M746.2362925594638,393.6476457823014 L738.6165231738498,397.6818215151568 M738.6165231738498,397.6818215151568 L730.0993340856239,400.48871119152847 M730.0993340856239,400.48871119152847 L721.021228663047,401.9570658857415 M721.021228663047,401.9570658857415 L711.7410610349225,402.0286735493285 M711.7410610349225,402.0286735493285 L702.6257448691388,400.70068972850873 M702.6257448691388,400.70068972850873 L694.0356217209875,398.02577119181456 M694.0356217209875,398.02577119181456 L686.3100985961125,394.10993501795406 M686.3100985961125,394.10993501795406 L679.7541453449696,389.1083048718676 M679.7541453449696,389.1083048718676 L674.6262136945056,383.21886981037306 M674.6262136945056,383.21886981037306 L671.1280494436601,376.67455254232226 M671.1280494436601,376.67455254232226 L669.3967928174518,369.7339147791639 M669.3967928174518,369.7339147791639 L669.499710702062,362.6708731276029 M669.499710702062,362.6708731276029 L671.431675831765,355.76385298553606 M671.431675831765,355.76385298553606 L675.1155597153833,349.28481522950113 M675.1155597153833,349.28481522950113 L680.4054038581903,343.48859276044755 M680.4054038581903,343.48859276044755 L687.092298397895,338.60292667014943 M687.092298397895,338.60292667014943 L694.9126745837036,334.81961630328976 M694.9126745837036,334.81961630328976 L703.5586851705925,332.28707941192954 M703.5586851705925,332.28707941192954 L712.6902657172559,331.10460742606944 M712.6902657172559,331.10460742606944 L721.9484309872414,331.31855414610027 M721.9484309872414,331.31855414610027 L730.9692550912838,332.9205322114562 M730.9692550912838,332.9205322114562 L739.3980702542433,335.8477465278517 M757.1338648412005,344.2171710419782 L748.8949596359961,350.4955927608812 M748.9179907435957,332.3423790789229 L751.2891628965431,334.4100885152111 M751.2891628965431,334.4100885152111 L753.5219414775778,336.88559825364536 M753.5219414775778,336.88559825364536 L755.4864028324029,339.62489018238546 M755.4864028324029,339.62489018238546 L757.0682510594681,342.4685724971931 M757.0682510594681,342.4685724971931 L758.1754864562201,345.25118985769114 M758.1754864562201,345.25118985769114 L758.7437722630921,347.81088832934455 M758.7437722630921,347.81088832934455 L758.7401679125335,349.99884368790185 M758.7401679125335,349.99884368790185 L758.1650245458516,351.6879260497934 M758.1650245458516,351.6879260497934 L757.0519321089678,352.7800887310373 M757.0519321089678,352.7800887310373 L755.4657285849797,353.2120391281939 M755.4657285849797,353.2120391281939 L753.498700786003,352.9588707371147 M753.498700786003,352.9588707371147 L751.2651931644035,352.03546439462247 M751.2651931644035,352.03546439462247 L748.8949596359961,350.4955927608812 M748.8949596359961,350.4955927608812 L746.5256323199403,348.4287659302608 M746.5256323199403,348.4287659302608 L744.2947502103212,345.9550238091265 M744.2947502103212,345.9550238091265 L742.3318025015171,343.21797957011853 M742.3318025015171,343.21797957011853 L740.7507383389179,340.3765100966817 M740.7507383389179,340.3765100966817 L739.6433778047607,337.5955637939046 M739.6433778047607,337.5955637939046 L739.0740863247352,335.036611779371 M739.0740863247352,335.036611779371 L739.0760348538856,332.84830727113854 M739.0760348538856,332.84830727113854 L739.6492515822825,331.1578601394109 M739.6492515822825,331.1578601394109 L740.7605879332247,330.06362972235644 M740.7605879332247,330.06362972235644 L742.3456082190359,329.62938231361466 M742.3456082190359,329.62938231361466 L744.312296694273,329.8805506349237 M744.312296694273,329.8805506349237 L746.5463866426102,330.8027120439903 M746.5463866426102,330.8027120439903 L748.9179907435957,332.3423790789229 M706.9867721456443,301.38031267234237 L703.2565261024074,299.0840737371681 M703.2565261024074,299.0840737371681 L699.4900783187184,296.8230022065756 M699.4900783187184,296.8230022065756 L695.6879928555329,294.5974284383696 M706.9867721456443,301.38031267234237 L716.0637534953867,300.7261637095043 M716.0637534953867,300.7261637095043 L725.1349159287927,301.42557866181266 M725.1349159287927,301.42557866181266 L733.8555445246479,303.45205503897336 M733.8555445246479,303.45205503897336 L741.894138477402,306.7287947545834 M741.894138477402,306.7287947545834 L748.9449010522321,311.1315631934087 M748.9449010522321,311.1315631934087 L754.7393271693036,316.4933247599764 M754.7393271693036,316.4933247599764 L759.0563934809938,322.6105003295839 M759.0563934809938,322.6105003295839 L761.7310180945732,329.250601974695 M761.7310180945732,329.250601974695 L762.6604327007055,336.16100994807334 M762.6604327007055,336.16100994807334 L761.808221604319,343.0785216167748 M770.7526542183322,351.69587620949954 L767.8168931201964,348.7952972323601 M767.8168931201964,348.7952972323601 L764.8352631894277,345.9227056881961 M764.8352631894277,345.9227056881961 L761.808221604319,343.0785216167748 M706.9867721456443,301.38031267234237 L706.3908341419813,304.7948673173847 M706.3908341419813,304.7948673173847 L704.6492342063668,308.3279754017782 M704.6492342063668,308.3279754017782 L702.4667998955583,311.2892943499099 M702.4667998955583,311.2892943499099 L699.921174643109,314.1038882647288 M699.921174643109,314.1038882647288 L696.9238505403439,317.02850644542383 M696.9238505403439,317.02850644542383 L693.5375097139761,320.08709830510156 M693.5375097139761,320.08709830510156 L689.8426668084151,323.2866155795942 M689.8426668084151,323.2866155795942 L685.969771537821,326.5880836788852 M685.969771537821,326.5880836788852 L682.1409375716919,329.86265594948657 M682.1409375716919,329.86265594948657 L678.661575068252,332.87730942159607 M678.661575068252,332.87730942159607 L675.790870409713,335.3860004145371 M675.790870409713,335.3860004145371 L673.608355094321,337.25623956272784 M673.608355094321,337.25623956272784 L672.0412232534379,338.4759814609544 M672.0412232534379,338.4759814609544 L670.9634559363319,339.08363522783617 M670.9634559363319,339.08363522783617 L670.253349687277,339.11919536188435 M670.253349687277,339.11919536188435 L669.8090175898824,338.6086696263828 M669.8090175898824,338.6086696263828 L669.5614694930517,337.6457772891435 M669.5614694930517,337.6457772891435 L669.4007859331898,335.73959207417477 M669.4007859331898,335.73959207417477 L669.3518163374956,333.09494889639984 M669.3518163374956,333.09494889639984 L665.8729694499177,330.9869073542597 M665.8729694499177,330.9869073542597 L662.3581767154878,328.91432025433204 M662.3581767154878,328.91432025433204 L658.8080464716835,326.8775387654472 M728.277700577259,379.8088769111299 L725.5967815452359,377.0971110270826 M725.5967815452359,377.0971110270826 L722.8694734580383,374.412982696026 M722.8694734580383,374.412982696026 L720.0962586440453,371.75694733679114 M720.0962586440453,371.75694733679114 L711.0119558354819,371.70396705769434 M711.0119558354819,371.70396705769434 L702.1128033391196,370.3146390079665 M702.1128033391196,370.3146390079665 L693.7350966775361,367.64161857745864 M693.7350966775361,367.64161857745864 L686.1952628577101,363.78618480864037 M686.1952628577101,363.78618480864037 L679.7778283225741,358.89433985872904 M679.7778283225741,358.89433985872904 L674.7246422644297,353.15120035244735 M674.7246422644297,353.15120035244735 L671.2257621722579,346.7739069363242 M671.2257621722579,346.7739069363242 L669.4123470480524,340.0033378820751 M669.4123470480524,340.0033378820751 L669.3518163374956,333.09494889639984 M761.808221604319,343.0785216167748 L761.6825328299548,346.8552814422491 M761.6825328299548,346.8552814422491 L761.2802387185109,351.4130210266894 M761.2802387185109,351.4130210266894 L760.6780702801113,355.58230404510067 M760.6780702801113,355.58230404510067 L759.8294874856202,359.6942028704946 M759.8294874856202,359.6942028704946 L758.6151857887858,363.9824998908944 M758.6151857887858,363.9824998908944 L756.9378424641478,368.3493920704431 M756.9378424641478,368.3493920704431 L754.6897422296854,372.65846651064345 M754.6897422296854,372.65846651064345 L751.7777025943102,376.70019627465996 M751.7777025943102,376.70019627465996 L748.1919098575538,380.16849755652754 M748.1919098575538,380.16849755652754 L744.1004204621754,382.72478972794624 M744.1004204621754,382.72478972794624 L739.8361395889265,384.17830283430806 M739.8361395889265,384.17830283430806 L735.7251356768933,384.58398715689174 M735.7251356768933,384.58398715689174 L731.96728644575,384.1376499088038 M731.96728644575,384.1376499088038 L728.6567031959961,383.04571767676316 M728.6567031959961,383.04571767676316 L725.8390322716358,381.47599853939533 M725.8390322716358,381.47599853939533 L723.5456050123348,379.55624957936067 M723.5456050123348,379.55624957936067 L721.9004549702576,377.52751865889405 M721.9004549702576,377.52751865889405 L720.5518953517244,374.71425270809925 M720.5518953517244,374.71425270809925 L720.0962586440453,371.75694733679114 M748.9449010522321,311.1315631934087 L748.9179907435957,332.3423790789229 M748.9179907435957,332.3423790789229 L748.916262295676,333.70474883400675 M748.916262295676,333.70474883400675 L750.4863980537273,335.10109114047066 M750.4863980537273,335.10109114047066 L751.8792350399286,336.72771906750404 M751.8792350399286,336.72771906750404 L753.0588142235898,338.47529164747965 M753.0588142235898,338.47529164747965 L754.0112441550827,340.2299325140577 M754.0112441550827,340.2299325140577 L754.7638863197842,341.9408158840667 M754.7638863197842,341.9408158840667 L755.3425129618827,343.5761671878365 M755.3425129618827,343.5761671878365 L755.7638484286974,345.0992753280186 M755.7638484286974,345.0992753280186 L756.0455989038679,346.493915850339 M756.0455989038679,346.493915850339 L756.1907700260303,347.63531679229345 M756.1907700260303,347.63531679229345 L756.2377238983231,348.65979328268844 M739.3980702542433,335.8477465278517 L739.6006922155043,334.44187036055945 M739.6006922155043,334.44187036055945 L740.2050938032239,333.2568020337101 M740.2050938032239,333.2568020337101 L741.2098336196144,332.3500171233062 M741.2098336196144,332.3500171233062 L742.6105703539306,331.804298864072 M742.6105703539306,331.804298864072 L744.4211622518462,331.7395015938755 M744.4211622518462,331.7395015938755 L746.3276929323715,332.22572561981093 M746.3276929323715,332.22572561981093 L747.6113270569246,332.83966930923464 M747.6113270569246,332.83966930923464 L748.916262295676,333.70474883400675 M748.916262295676,333.70474883400675 L750.9316408919414,335.4622465586386 M750.9316408919414,335.4622465586386 L752.8293814537269,337.56631761909324 M752.8293814537269,337.56631761909324 L754.4990774005447,339.89456959810934 M754.4990774005447,339.89456959810934 L755.8435983931386,342.3115586841509 M755.8435983931386,342.3115586841509 L756.784756455619,344.676679419796 M756.784756455619,344.676679419796 L757.267863698377,346.8523763432175 M757.267863698377,346.8523763432175 L757.2649056456955,348.71215723258604 M757.2649056456955,348.71215723258604 L756.7761565403479,350.1479649188302 M756.7761565403479,350.1479649188302 L755.8301399648564,351.07643765269853 M755.8301399648564,351.07643765269853 L754.4819423786679,351.4437421731648 M754.4819423786679,351.4437421731648 L752.8099900062331,351.22867316724023 M752.8099900062331,351.22867316724023 L750.9114716418035,350.44385795452433 M750.9114716418035,350.44385795452433 L748.8966858534139,349.134981096285 M748.8966858534139,349.134981096285 L746.882640151649,347.3781210554184 M746.882640151649,347.3781210554184 L744.9862697899055,345.2753270989844 M744.9862697899055,345.2753270989844 L743.317667453758,342.9486990732243 M743.317667453758,342.9486990732243 L741.9737129477836,340.53330876561535 M741.9737129477836,340.53330876561535 L741.0324644720749,338.16939537031305 M741.0324644720749,338.16939537031305 L740.5486306301095,335.9942377619529 M740.5486306301095,335.9942377619529 L740.550392354072,334.1342046124332 M740.550392354072,334.1342046124332 L741.0377494626912,332.697410880004 M741.0377494626912,332.697410880004 L741.9824972646369,331.76744420522334 M741.9824972646369,331.76744420522334 L743.329839961271,331.3984800932994 M743.329839961271,331.3984800932994 L745.001547173518,331.61210405191207 M745.001547173518,331.61210405191207 L746.9004862687036,332.3960197995519 M746.9004862687036,332.3960197995519 L748.916262295676,333.70474883400675" stroke="black"  stroke-width="4"  fill="red"/>
<path d="M748.916262295676,333.70474883400675 L750.4863980537273,335.10109114047066 M750.4863980537273,335.10109114047066 L751.8792350399286,336.72771906750404 M751.8792350399286,336.72771906750404 L753.0588142235898,338.47529164747965 M753.0588142235898,338.47529164747965 L754.0112441550827,340.2299325140577 M754.0112441550827,340.2299325140577 L754.7638863197842,341.9408158840667 M754.7638863197842,341.9408158840667 L755.3425129618827,343.5761671878365 M755.3425129618827,343.5761671878365 L755.7638484286974,345.0992753280186 M755.7638484286974,345.0992753280186 L756.0455989038679,346.493915850339 M756.0455989038679,346.493915850339 L756.1907700260303,347.63531679229345 M756.1907700260303,347.63531679229345 L756.2377238983231,348.65979328268844 M737.2661979095824,363.11847194490934 L756.2377238983231,348.65979328268844 M737.2661979095824,363.11847194490934 L735.9313915895681,365.38804003006317 M735.9313915895681,365.38804003006317 L734.4238332701249,367.28769240702246 M734.4238332701249,367.28769240702246 L733.0870770629747,368.4175846314725 M733.0870770629747,368.4175846314725 L732.2320298544653,368.8544748982265 M732.2320298544653,368.8544748982265 L731.1901901958433,369.0816433906819 M731.1901901958433,369.0816433906819 L730.0666513218454,368.983049567642 M730.0666513218454,368.983049567642 L728.8282037244329,368.5481943550441 M728.8282037244329,368.5481943550441 L727.4471895722711,367.78625032614957 M727.4471895722711,367.78625032614957 L726.6722276161445,367.26991393050406 M726.6722276161445,367.26991393050406 L725.8689857928682,366.68247671068673 M725.8689857928682,366.68247671068673 L724.209219634509,365.3168455796661 M724.209219634509,365.3168455796661 L722.6271859208953,363.79483655947615 M722.6271859208953,363.79483655947615 L721.24938118367,362.1807941296828 M721.24938118367,362.1807941296828 L720.164271009479,360.5074085378123 M720.164271009479,360.5074085378123 L719.43202387313,358.82893114767626 M719.43202387313,358.82893114767626 L719.044371763255,357.17560409968013 M719.044371763255,357.17560409968013 L718.9602186861006,355.5481334204947 M718.9602186861006,355.5481334204947 L719.1355290470834,353.9674251606048 M719.1355290470834,353.9674251606048 L719.649385446031,352.08083452025755 M719.649385446031,352.08083452025755 L720.4265378545684,350.2961325636355 M720.4265378545684,350.2961325636355 L739.3980702542433,335.8477465278517 M739.3980702542433,335.8477465278517 L739.6006922155043,334.44187036055945 M739.6006922155043,334.44187036055945 L740.2050938032239,333.2568020337101 M740.2050938032239,333.2568020337101 L741.2098336196144,332.3500171233062 M741.2098336196144,332.3500171233062 L742.6105703539306,331.804298864072 M742.6105703539306,331.804298864072 L744.4211622518462,331.7395015938755 M744.4211622518462,331.7395015938755 L746.3276929323715,332.22572561981093 M746.3276929323715,332.22572561981093 L747.6113270569246,332.83966930923464 M747.6113270569246,332.83966930923464 L748.916262295676,333.70474883400675 M748.916262295676,333.70474883400675 L750.9316408919414,335.4622465586386 M750.9316408919414,335.4622465586386 L752.8293814537269,337.56631761909324 M752.8293814537269,337.56631761909324 L754.4990774005447,339.89456959810934 M754.4990774005447,339.89456959810934 L755.8435983931386,342.3115586841509 M755.8435983931386,342.3115586841509 L756.784756455619,344.676679419796 M756.784756455619,344.676679419796 L757.267863698377,346.8523763432175 M757.267863698377,346.8523763432175 L757.2649056456955,348.71215723258604 M757.2649056456955,348.71215723258604 L756.7761565403479,350.1479649188302 M756.7761565403479,350.1479649188302 L755.8301399648564,351.07643765269853 M755.8301399648564,351.07643765269853 L754.4819423786679,351.4437421731648 M754.4819423786679,351.4437421731648 L752.8099900062331,351.22867316724023 M752.8099900062331,351.22867316724023 L750.9114716418035,350.44385795452433 M750.9114716418035,350.44385795452433 L748.8966858534139,349.134981096285 M748.8966858534139,349.134981096285 L746.882640151649,347.3781210554184 M746.882640151649,347.3781210554184 L744.9862697899055,345.2753270989844 M744.9862697899055,345.2753270989844 L743.317667453758,342.9486990732243 M743.317667453758,342.9486990732243 L741.9737129477836,340.53330876561535 M741.9737129477836,340.53330876561535 L741.0324644720749,338.16939537031305 M741.0324644720749,338.16939537031305 L740.5486306301095,335.9942377619529 M740.5486306301095,335.9942377619529 L740.550392354072,334.1342046124332 M740.550392354072,334.1342046124332 L741.0377494626912,332.697410880004 M741.0377494626912,332.697410880004 L741.9824972646369,331.76744420522334 M741.9824972646369,331.76744420522334 L743.329839961271,331.3984800932994 M743.329839961271,331.3984800932994 L745.001547173518,331.61210405191207 M745.001547173518,331.61210405191207 L746.9004862687036,332.3960197995519 M746.9004862687036,332.3960197995519 L748.916262295676,333.70474883400675" stroke="black"  stroke-width="4"  fill="red"/>
<path d="M757.196269821401,304.8505128354379 L757.2685107571587,259.2790822000856 M757.2685107571587,259.2790822000856 L763.8298376859349,265.21245467707615 M763.8298376859349,265.21245467707615 L768.9382343588716,271.92258738145 M768.9382343588716,271.92258738145 L772.4379187038834,279.20634522055195 M772.4379187038834,279.20634522055195 L774.2216899472045,286.8429704231742 M774.2216899472045,286.8429704231742 L774.2342784223915,294.60072623024877 M774.2342784223915,294.60072623024877 L772.4741657734472,302.24389795897036 M772.4741657734472,302.24389795897036 L768.993768101815,309.53995924643823 M768.993768101815,309.53995924643823 L763.8979599218331,316.2666683482668 M763.8979599218331,316.2666683482668 L757.3410049477308,322.2188908212767 M757.3410049477308,322.2188908212767 L749.5219318295472,327.21491818051726 M749.5219318295472,327.21491818051726 L740.678517304109,331.1020975444034 M740.678517304109,331.1020975444034 L731.0800305909142,333.76156833737554 M731.0800305909142,333.76156833737554 L721.0189891358465,335.11196935179373 M721.0189891358465,335.11196935179373 L710.8021609357622,335.11196935179373 M710.8021609357622,335.11196935179373 L700.7411194806945,333.76156833737554 M700.7411194806945,333.76156833737554 L691.1426327674997,331.1020975444034 M691.1426327674997,331.1020975444034 L682.2992182420617,327.21491818051726 M682.2992182420617,327.21491818051726 L674.4801451238778,322.2188908212766 M674.4801451238778,322.2188908212766 L667.9231901497756,316.2666683482668 M667.9231901497756,316.2666683482668 L662.8273819697937,309.53995924643823 M662.8273819697937,309.53995924643823 L659.3469842981615,302.24389795897036 M659.3469842981615,302.24389795897036 L657.5868716492173,294.6007262302489 M657.5868716492173,294.6007262302489 L657.5994601244042,286.8429704231742 M657.5994601244042,286.8429704231742 L659.3832313677253,279.20634522055195 M659.3832313677253,279.20634522055195 L662.8829157127371,271.92258738145 M662.8829157127371,271.92258738145 L667.9913123856738,265.21245467707615 M667.9913123856738,265.21245467707615 L674.5526393144501,259.2790822000855 M674.5526393144501,259.2790822000855 L682.3673405136904,254.3019048440737 M682.3673405136904,254.3019048440737 L691.1981665651855,250.4313019039161 M691.1981665651855,250.4313019039161 L700.777366598398,247.78413458670383 M700.777366598398,247.78413458670383 L710.814749429961,246.44028012564348 M710.814749429961,246.44028012564348 L721.0064006416476,246.44028012564348 M721.0064006416476,246.44028012564348 L731.0437834732109,247.78413458670383 M731.0437834732109,247.78413458670383 L740.6229835064231,250.4313019039161 M740.6229835064231,250.4313019039161 L749.4538095579184,254.3019048440737 M749.4538095579184,254.3019048440737 L757.2685107571587,259.2790822000856 M770.7526542183322,351.69587620949954 L773.298647119955,344.7265987135793 M773.298647119955,344.7265987135793 L774.3270345740382,337.53678331737075 M774.3270345740382,337.53678331737075 L773.8115405061646,330.31658233100785 M773.8115405061646,330.31658233100785 L771.7667016841771,323.25671882886405 M771.7667016841771,323.25671882886405 L768.2473895575093,316.5434651079062 M768.2473895575093,316.5434651079062 L763.3472723441453,310.3537459433268 M763.3472723441453,310.3537459433268 L757.196269821401,304.8505128354379 M728.277700577259,379.8088769111299 L729.0184868738771,375.6728235723084 M729.0184868738771,375.6728235723084 L731.2199580619846,371.36472766025594 M731.2199580619846,371.36472766025594 L734.6415595304745,367.1055903014941 M734.6415595304745,367.1055903014941 L739.0636828497327,362.8788478180714 M739.0636828497327,362.8788478180714 L743.9329047314912,358.9346833115988 M743.9329047314912,358.9346833115988 L748.8484418226186,355.3548959383473 M748.8484418226186,355.3548959383473 L753.3771672575311,352.2950655179293 M753.3771672575311,352.2950655179293 L757.1916697028621,349.87928392306895 M757.1916697028621,349.87928392306895 L760.513103601617,347.9334982684346 M760.513103601617,347.9334982684346 L763.2553871638908,346.51654933661075 M763.2553871638908,346.51654933661075 L765.4443388725824,345.6273309195583 M765.4443388725824,345.6273309195583 L767.1507819896545,345.24459125248836 M767.1507819896545,345.24459125248836 L768.4505682897657,345.3484038609754 M768.4505682897657,345.3484038609754 L769.4107836954438,345.9257585103148 M769.4107836954438,345.9257585103148 L770.0850423002076,346.968994395285 M770.0850423002076,346.968994395285 L770.5137632673757,348.4712427313615 M770.5137632673757,348.4712427313615 L770.6955230889146,349.95186487154257 M770.6955230889146,349.95186487154257 L770.7526542183322,351.69587620949954 M658.8080464716835,326.8775387654472 L657.5395008296223,334.2063988806749 M657.5395008296223,334.2063988806749 L657.8831154674585,341.5954882111196 M657.8831154674585,341.5954882111196 L659.8303719042894,348.8406310752866 M659.8303719042894,348.8406310752866 L663.3283855315178,355.74140109123505 M663.3283855315178,355.74140109123505 L668.2812562181002,362.1066632223204 M668.2812562181002,362.1066632223204 L674.5526393144512,367.75993059401253 M674.5526393144512,367.75993059401253 L681.9694591666831,372.54429879552646 M681.9694591666831,372.54429879552646 L690.326671907997,376.32686554563094 M690.326671907997,376.32686554563094 L699.3929526431834,379.0024833853562 M699.3929526431834,379.0024833853562 L708.9171200236244,380.49673623304676 M708.9171200236244,380.49673623304676 L718.6351835410344,380.7680523260452 M718.6351835410344,380.7680523260452 L728.277700577259,379.8088769111299 M658.8080464716835,326.8775387654472 L658.9646953364654,322.30337470316636 M658.9646953364654,322.30337470316636 L659.5086394714717,316.7415928581112 M659.5086394714717,316.7415928581112 L660.5435207640176,310.6752270989707 M660.5435207640176,310.6752270989707 L662.2349879051174,304.3812533047575 M662.2349879051174,304.3812533047575 L664.6013681455241,298.54425103255494 M664.6013681455241,298.54425103255494 L667.6021497945798,293.5194479644039 M667.6021497945798,293.5194479644039 L671.0163874762932,289.62272331333634 M671.0163874762932,289.62272331333634 L674.4912224705492,286.9577683792766 M674.4912224705492,286.9577683792766 L678.0874248978672,285.22882834542537 M678.0874248978672,285.22882834542537 L681.5808619875313,284.38935986491634 M681.5808619875313,284.38935986491634 L684.8242823780554,284.30659355821257 M684.8242823780554,284.30659355821257 L687.730471150133,284.83921774297113 M687.730471150133,284.83921774297113 L690.2430805524637,285.8669395734511 M690.2430805524637,285.8669395734511 L692.3204179813955,287.2941813661058 M692.3204179813955,287.2941813661058 L693.9259334809999,289.0448371396052 M693.9259334809999,289.0448371396052 L695.028066125951,291.0573846462699 M695.028066125951,291.0573846462699 L695.5216612661143,292.77305417728866 M695.5216612661143,292.77305417728866 L695.6879928555329,294.5974284383696 M757.196269821401,304.8505128354379 L749.9570767472641,300.1785068954092 M749.9570767472641,300.1785068954092 L741.8208493881533,296.4605020780134 M741.8208493881533,296.4605020780134 L733.0021644472528,293.79413380807114 M733.0021644472528,293.79413380807114 L723.7333994249085,292.2493845074144 M723.7333994249085,292.2493845074144 L714.2586604733458,291.86678421510044 M714.2586604733458,291.86678421510044 L704.8274118920992,292.6563697046874 M704.8274118920992,292.6563697046874 L695.6879928555329,294.5974284383696 M706.9867721456443,301.38031267234237 L703.2565261024074,299.0840737371681 M703.2565261024074,299.0840737371681 L699.4900783187184,296.8230022065756 M699.4900783187184,296.8230022065756 L695.6879928555329,294.5974284383696 M761.808221604319,343.0785216167748 L762.6604327007055,336.16100994807334 M762.6604327007055,336.16100994807334 L761.7310180945732,329.250601974695 M761.7310180945732,329.250601974695 L759.0563934809938,322.6105003295839 M759.0563934809938,322.6105003295839 L754.7393271693036,316.4933247599764 M754.7393271693036,316.4933247599764 L748.9449010522321,311.1315631934087 M748.9449010522321,311.1315631934087 L741.894138477402,306.7287947545834 M741.894138477402,306.7287947545834 L733.8555445246479,303.45205503897336 M733.8555445246479,303.45205503897336 L725.1349159287927,301.42557866181266 M725.1349159287927,301.42557866181266 L716.0637534953867,300.7261637095043 M716.0637534953867,300.7261637095043 L706.9867721456443,301.38031267234237 M770.7526542183322,351.69587620949954 L767.8168931201964,348.7952972323601 M767.8168931201964,348.7952972323601 L764.8352631894277,345.9227056881961 M764.8352631894277,345.9227056881961 L761.808221604319,343.0785216167748 M761.808221604319,343.0785216167748 L744.7379636025445,328.26127136372867 M744.7379636025445,328.26127136372867 L726.4376574335913,314.3424291249522 M726.4376574335913,314.3424291249522 L706.9867721456443,301.38031267234237 M669.3518163374956,333.09494889639984 L665.8729694499177,330.9869073542597 M665.8729694499177,330.9869073542597 L662.3581767154878,328.91432025433204 M662.3581767154878,328.91432025433204 L658.8080464716835,326.8775387654472 M720.0962586440453,371.75694733679114 L704.390084751719,357.95260803881393 M704.390084751719,357.95260803881393 L687.4466537145788,345.04413098520473 M687.4466537145788,345.04413098520473 L669.3518163374956,333.09494889639984 M728.277700577259,379.8088769111299 L725.5967815452359,377.0971110270826 M725.5967815452359,377.0971110270826 L722.8694734580383,374.412982696026 M722.8694734580383,374.412982696026 L720.0962586440453,371.75694733679114 M669.3518163374956,333.09494889639984 L669.4123470480524,340.0033378820751 M669.4123470480524,340.0033378820751 L671.2257621722579,346.7739069363242 M671.2257621722579,346.7739069363242 L674.7246422644297,353.15120035244735 M674.7246422644297,353.15120035244735 L679.7778283225741,358.89433985872904 M679.7778283225741,358.89433985872904 L686.1952628577101,363.78618480864037 M686.1952628577101,363.78618480864037 L693.7350966775361,367.64161857745864 M693.7350966775361,367.64161857745864 L702.1128033391196,370.3146390079665 M702.1128033391196,370.3146390079665 L711.0119558354819,371.70396705769434 M711.0119558354819,371.70396705769434 L720.0962586440453,371.75694733679114 M706.9867721456443,301.38031267234237 L706.6244753952101,304.02812452676005 M706.6244753952101,304.02812452676005 L705.5544619273451,306.7516654893287 M705.5544619273451,306.7516654893287 L703.8257924493323,309.54110510072513 M703.8257924493323,309.54110510072513 L703.8335129631743,326.17668855849416 M743.2748638617477,331.71223634131815 L736.1608419222728,328.4845534045459 M736.1608419222728,328.4845534045459 L728.4109660878175,326.26463075769936 M728.4109660878175,326.26463075769936 L720.268657605156,325.12197241813874 M720.268657605156,325.12197241813874 L711.9895448019632,325.0923504821734 M711.9895448019632,325.0923504821734 L703.8335129631743,326.17668855849416 M743.2748638617477,331.71223634131815 L744.9705270873694,331.82602748566575 M744.9705270873694,331.82602748566575 L746.8982600197044,332.4703348624605 M746.8982600197044,332.4703348624605 L748.916262295676,333.70474883400675 M748.916262295676,333.70474883400675 L750.8176770000665,335.4515766495168 M750.8176770000665,335.4515766495168 L752.4377335625842,337.50597600420224 M752.4377335625842,337.50597600420224 L753.7240180548275,339.6606595993587 M761.0373359765185,369.7198916581476 L762.4559502014812,363.4992860734518 M762.4559502014812,363.4992860734518 L762.4088301873309,357.1867248930126 M762.4088301873309,357.1867248930126 L760.8982169344218,350.98093585357674 M760.8982169344218,350.98093585357674 L757.972386058955,345.0770838272911 M757.972386058955,345.0770838272911 L753.7240180548275,339.6606595993587 M761.0662191401369,353.0920291236973 L761.0373359765185,369.7198916581476 M761.808221604319,343.0785216167748 L761.7317278708232,345.94712912253505 M761.7317278708232,345.94712912253505 L761.4976196724043,349.31071407529174 M761.4976196724043,349.31071407529174 L761.0662191401369,353.0920291236973 M748.9179907435954,332.34237907892253 L748.916262295676,333.70474883400675 M761.0662191401369,353.0920291236973 L751.5191002218203,347.296027644229 M751.5191002218203,347.296027644229 L738.650275428538,338.3898307958852 M738.650275428538,338.3898307958852 L723.4525203032945,326.7181903030097 M723.4525203032945,326.7181903030097 L713.5842541124653,318.4579539795464 M713.5842541124653,318.4579539795464 L703.8257924493323,309.54110510072513 M670.7857817915085,339.1378856546189 L669.8368341336562,338.66927862085566 M669.8368341336562,338.66927862085566 L669.4745818131138,336.91202800190473 M669.4745818131138,336.91202800190473 L669.3822843139495,335.22818099827896 M669.3822843139495,335.22818099827896 L669.3518163374956,333.09494889639984 M728.0163803057468,382.7476609450746 L710.866568606162,368.0318565495159 M710.866568606162,368.0318565495159 L696.9108419843667,357.0482220377502 M696.9108419843667,357.0482220377502 L683.8112269956528,347.7107726452668 M683.8112269956528,347.7107726452668 L670.7857817915085,339.1378856546189 M728.0163803057468,382.7476609450746 L723.709144175868,379.7203249279429 M723.709144175868,379.7203249279429 L721.2090728335831,376.3324198532207 M721.2090728335831,376.3324198532207 L720.3761636656352,374.08250296289594 M720.3761636656352,374.08250296289594 L720.0962586440453,371.75694733679114 M728.0163803057468,382.7476609450746 L728.0107111661916,394.9076014954496 M670.8068881333396,351.30351298857084 L669.326150252539,357.9714424496274 M669.326150252539,357.9714424496274 L669.5287371956624,364.7335940726228 M669.5287371956624,364.7335940726228 L671.4082656773604,371.3455373008994 M671.4082656773604,371.3455373008994 L674.8976548694693,377.56800402284324 M674.8976548694693,377.56800402284324 L679.8714358349762,383.1755822533443 M679.8714358349762,383.1755822533443 L686.1501950276559,387.9649366134322 M686.1501950276559,387.9649366134322 L693.5070028243384,391.7622536049484 M693.5070028243384,391.7622536049484 L701.6756163707105,394.42962717619776 M701.6756163707105,394.42962717619776 L710.3601537313677,395.8701339728338 M710.3601537313677,395.8701339728338 L719.245880219258,396.03141203712283 M719.245880219258,396.03141203712283 L728.0107111661916,394.9076014954496 M670.7857817915085,339.1378856546189 L670.8068881333396,351.30351298857084 M761.0373359765185,369.7198916581476 L737.6432811504844,351.91247902461083 M727.1941232656563,343.9586434235658 L728.7849790232885,344.26000032856 M728.7849790232885,344.26000032856 L730.5559286990768,345.04351482345714 M730.5559286990768,345.04351482345714 L732.4191818714967,346.2704187881381 M732.4191818714967,346.2704187881381 L734.2823390343357,347.87991960070383 M734.2823390343357,347.87991960070383 L736.0529839657182,349.79222179538175 M736.0529839657182,349.79222179538175 L737.6432811504844,351.91247902461083 M727.1941232656563,343.9586434235658 L703.8335129631743,326.17668855849416 M727.1941232656563,343.9586434235658 L743.2748638617477,331.71223634131815 M737.6432811504844,351.91247902461083 L753.7240180548275,339.6606595993587 M670.8068881333396,351.30351298857084 L728.0107111661916,394.9076014954496" stroke="black"  stroke-width="4"  fill="red"/>
<path d="M721.899686403269,375.2976524042832 L723.1591880327101,376.52253476661554 M723.1591880327101,376.52253476661554 L723.9975416294704,377.94158355968085 M723.9975416294704,377.94158355968085 L724.3659841111141,379.472364551422 M724.3659841111141,379.472364551422 L724.2430449516739,381.0259309984995 M724.2430449516739,381.0259309984995 L723.6358062091864,382.5119898964318 M723.6358062091864,382.5119898964318 L722.5795083679886,383.84414964142536 M722.5795083679886,383.84414964142536 L721.1355102487221,384.9449482724762 M721.1355102487221,384.9449482724762 L719.3877319671001,385.7503638680842 M719.3877319671001,385.7503638680842 L717.4377765969818,386.2135470417269 M717.4377765969818,386.2135470417269 L715.3990200868238,386.3075515240896 M715.3990200868238,386.3075515240896 L713.3900088118166,386.0269092151511 M713.3900088118166,386.0269092151511 L711.5275574478484,385.38794676349204 M711.5275574478484,385.38794676349204 L709.9199457103641,384.427833679151 M709.9199457103641,384.427833679151 L708.6606179540175,383.2024136835585 M708.6606179540175,383.2024136835585 L707.822746143858,381.78295042264995 M707.822746143858,381.78295042264995 L707.4549829909379,380.25197307792695 M707.4549829909379,380.25197307792695 L707.5786433952222,378.69847337482247 M707.5786433952222,378.69847337482247 L708.1864800702465,377.21272902762473 M708.1864800702465,377.21272902762473 L709.2431155524416,375.88105958028956 M709.2431155524416,375.88105958028956 L710.6871136717195,374.78081467260455 M710.6871136717195,374.78081467260455 L712.4345543123571,373.9758893746435 M712.4345543123571,373.9758893746435 L714.3839117499305,373.51302075188136 M714.3839117499305,373.51302075188136 L716.4219470152223,373.41908301325117 M716.4219470152223,373.41908301325117 L718.430278961489,373.69952896912366 M718.430278961489,373.69952896912366 L720.292248538859,374.3380769529852 M720.292248538859,374.3380769529852 L721.899686403269,375.2976524042832 M721.899686403269,375.2976524042832 L721.8729802311655,491.1171904548255 M721.8729802311655,491.1171904548255 L720.2727106447865,490.1588223411525 M720.2727106447865,490.1588223411525 L718.419043793104,489.52107765206506 M718.419043793104,489.52107765206506 L716.4196668640876,489.2409844659617 M716.4196668640876,489.2409844659617 L714.3907189904543,489.3348040435478 M714.3907189904543,489.3348040435478 L712.4500537430746,489.79709040795876 M712.4500537430746,489.79709040795876 L710.7104053851461,490.60100303655815 M710.7104053851461,490.60100303655815 L709.2728470402114,491.69986347676036 M709.2728470402114,491.69986347676036 L708.2209245669866,493.02985684857504 M708.2209245669866,493.02985684857504 L707.6157999781898,494.51373067987186 M707.6157999781898,494.51373067987186 L707.4926926611876,496.06527398102537 M707.4926926611876,496.06527398102537 L707.8588172150887,497.59432270355217 M707.8588172150887,497.59432270355217 L708.6929534520522,499.011997302438 M708.6929534520522,499.011997302438 L709.9466653915017,500.23587274873796 M709.9466653915017,500.23587274873796 L711.5471073035756,501.1947754236802 M711.5471073035756,501.1947754236802 L713.4012516542068,501.83293221249755 M713.4012516542068,501.83293221249755 L715.4013018662922,502.1132206298008 M715.4013018662922,502.1132206298008 L717.4309645660887,502.0193346898234 M717.4309645660887,502.0193346898234 L719.3722224247254,501.5567355717229 M719.3722224247254,501.5567355717229 L721.1122054188098,500.7523354467992 M721.1122054188098,500.7523354467992 L722.5497637637334,499.6529244469374 M722.5497637637334,499.6529244469374 L723.6013516007896,498.32244357878676 M723.6013516007896,498.32244357878676 L724.2058835783373,496.83825699394527 M724.2058835783373,496.83825699394527 L724.3282760691982,495.2866473301614 M724.3282760691982,495.2866473301614 L723.9614782322444,493.7577938387509 M723.9614782322444,493.7577938387509 L723.1268644963295,492.3405313396405 M723.1268644963295,492.3405313396405 L721.8729802311655,491.1171904548255" stroke="black"  stroke-width="4"  fill="red"/>
<path d="M737.2661979095824,363.11847194490934 L735.9313915895681,365.38804003006317 M735.9313915895681,365.38804003006317 L734.4238332701249,367.28769240702246 M734.4238332701249,367.28769240702246 L733.0870770629747,368.4175846314725 M733.0870770629747,368.4175846314725 L732.2320298544653,368.8544748982265 M732.2320298544653,368.8544748982265 L731.1901901958433,369.0816433906819 M731.1901901958433,369.0816433906819 L730.0666513218454,368.983049567642 M730.0666513218454,368.983049567642 L728.8282037244329,368.5481943550441 M728.8282037244329,368.5481943550441 L727.4471895722711,367.78625032614957 M727.4471895722711,367.78625032614957 L726.6722276161445,367.26991393050406 M726.6722276161445,367.26991393050406 L725.8689857928682,366.68247671068673 M721.899686403269,375.2976524042832 L725.0464332320554,368.46778832837805 M725.0464332320554,368.46778832837805 L725.8689857928682,366.68247671068673 M721.899686403269,375.2976524042832 L720.292248538859,374.3380769529852 M720.292248538859,374.3380769529852 L718.430278961489,373.69952896912366 M718.430278961489,373.69952896912366 L716.4219470152223,373.41908301325117 M716.4219470152223,373.41908301325117 L714.3839117499305,373.51302075188136 M714.3839117499305,373.51302075188136 L712.4345543123571,373.9758893746435 M712.4345543123571,373.9758893746435 L710.6871136717195,374.78081467260455 M710.6871136717195,374.78081467260455 L709.2431155524416,375.88105958028956 M709.2431155524416,375.88105958028956 L708.1864800702465,377.21272902762473 M708.1864800702465,377.21272902762473 L707.5786433952222,378.69847337482247 M707.5786433952222,378.69847337482247 L707.4549829909379,380.25197307792695 M707.4549829909379,380.25197307792695 L707.822746143858,381.78295042264995 M707.822746143858,381.78295042264995 L708.6606179540175,383.2024136835585 M708.6606179540175,383.2024136835585 L709.9199457103641,384.427833679151 M709.9199457103641,384.427833679151 L711.5275574478484,385.38794676349204 M711.5275574478484,385.38794676349204 L713.3900088118166,386.0269092151511 M713.3900088118166,386.0269092151511 L715.3990200868238,386.3075515240896 M715.3990200868238,386.3075515240896 L717.4377765969818,386.2135470417269 M717.4377765969818,386.2135470417269 L719.3877319671001,385.7503638680842 M719.3877319671001,385.7503638680842 L721.1355102487221,384.9449482724762 M721.1355102487221,384.9449482724762 L722.5795083679886,383.84414964142536 M722.5795083679886,383.84414964142536 L723.6358062091864,382.5119898964318 M723.6358062091864,382.5119898964318 L724.2430449516739,381.0259309984995 M724.2430449516739,381.0259309984995 L724.3659841111141,379.472364551422 M724.3659841111141,379.472364551422 L723.9975416294704,377.94158355968085 M723.9975416294704,377.94158355968085 L723.1591880327101,376.52253476661554 M723.1591880327101,376.52253476661554 L721.899686403269,375.2976524042832 M725.8689857928682,366.68247671068673 L724.209219634509,365.3168455796661 M724.209219634509,365.3168455796661 L722.6271859208953,363.79483655947615 M722.6271859208953,363.79483655947615 L721.24938118367,362.1807941296828 M721.24938118367,362.1807941296828 L720.164271009479,360.5074085378123 M720.164271009479,360.5074085378123 L719.43202387313,358.82893114767626 M719.43202387313,358.82893114767626 L719.044371763255,357.17560409968013 M719.044371763255,357.17560409968013 L718.9602186861006,355.5481334204947 M718.9602186861006,355.5481334204947 L719.1355290470834,353.9674251606048 M719.1355290470834,353.9674251606048 L719.649385446031,352.08083452025755 M719.649385446031,352.08083452025755 L720.4265378545684,350.2961325636355 M737.2661979095824,363.11847194490934 L737.7272618196911,367.1552689194803 M737.7272618196911,367.1552689194803 L736.8931437407834,371.15763693257827 M736.8931437407834,371.15763693257827 L734.812954909966,374.88788048012697 M734.812954909966,374.88788048012697 L731.6098874376789,378.124324682731 M731.6098874376789,378.124324682731 L727.4739697663151,380.6745293156574 M727.4739697663151,380.6745293156574 L722.650814711223,382.3867890705294 M722.650814711223,382.3867890705294 L717.4270182701364,383.1592079664134 M717.4270182701364,383.1592079664134 L712.1130760485183,382.94581186134485 M712.1130760485183,382.94581186134485 L707.0248707856235,381.7593025248846 M707.0248707856235,381.7593025248846 L702.4648082306476,379.67029678676573 M702.4648082306476,379.67029678676573 L698.7037909747386,376.8030931344298 M698.7037909747386,376.8030931344298 L695.9650862589106,373.3282235279379 M695.9650862589106,373.3282235279379 L694.4110746365812,369.4522559398237 M694.4110746365812,369.4522559398237 L694.1336544416858,365.4054619131122 M694.1336544416858,365.4054619131122 L695.1488706372677,361.42811084033895 M695.1488706372677,361.42811084033895 L697.3960628996942,357.75618899283074 M697.3960628996942,357.75618899283074 L700.741554191075,354.6074282736988 M700.741554191075,354.6074282736988 L704.9866572681817,352.16843432801056 M704.9866572681817,352.16843432801056 L709.8794826741755,350.58368306134054 M709.8794826741755,350.58368306134054 L715.1298687763481,349.947017829008 M715.1298687763481,349.947017829008 L720.4265378545684,350.2961325636355 M724.3319053842181,372.97602264791533 L737.2661979095824,363.11847194490934 M707.492244068221,360.14666365350115 L707.7374036602504,362.17884168427133 M707.7374036602504,362.17884168427133 L708.4573889847218,364.46533309111834 M708.4573889847218,364.46533309111834 L709.6103216581585,366.8733333587765 M709.6103216581585,366.8733333587765 L711.1292179624174,369.26302247407045 M711.1292179624174,369.26302247407045 L712.9258789589328,371.4956619774322 M712.9258789589328,371.4956619774322 L714.8959973439348,373.44162601189373 M714.8959973439348,373.44162601189373 L716.9251962802825,374.98790739415983 M716.9251962802825,374.98790739415983 L718.895648059411,376.0446634012738 M718.895648059411,376.0446634012738 L720.6928995293447,376.5504329662323 M720.6928995293447,376.5504329662323 L722.212508210139,376.47571959387875 M722.212508210139,376.47571959387875 L723.3661120499431,375.82472985748245 M723.3661120499431,375.82472985748245 L724.0865736100018,374.6351563426194 M724.0865736100018,374.6351563426194 L724.3319053842181,372.97602264791533 M707.492244068221,360.14666365350115 L720.4265378545684,350.2961325636355 M707.492244068221,360.14666365350115 L724.3319053842181,372.97602264791533" stroke="black"  stroke-width="4"  fill="red"/>
<path d="M758.7813010299169,342.96174949140504 L748.8949596359961,350.4955927608812 M748.8949596359961,350.4955927608812 L746.5256323199403,348.4287659302608 M746.5256323199403,348.4287659302608 L744.2947502103212,345.9550238091265 M744.2947502103212,345.9550238091265 L742.3318025015171,343.21797957011853 M742.3318025015171,343.21797957011853 L740.7507383389179,340.3765100966817 M740.7507383389179,340.3765100966817 L739.6433778047607,337.5955637939046 M739.6433778047607,337.5955637939046 L739.0740863247352,335.036611779371 M739.0740863247352,335.036611779371 L739.0760348538856,332.84830727113854 M739.0760348538856,332.84830727113854 L739.6492515822825,331.1578601394109 M739.6492515822825,331.1578601394109 L740.7605879332247,330.06362972235644 M740.7605879332247,330.06362972235644 L742.3456082190359,329.62938231361466 M742.3456082190359,329.62938231361466 L744.312296694273,329.8805506349237 M744.312296694273,329.8805506349237 L746.5463866426102,330.8027120439903 M746.5463866426102,330.8027120439903 L748.9179907435954,332.34237907892265 M748.9179907435954,332.34237907892265 L751.2891628965431,334.4100885152111 M751.2891628965431,334.4100885152111 L753.5219414775778,336.88559825364536 M753.5219414775778,336.88559825364536 L755.4864028324029,339.62489018238546 M755.4864028324029,339.62489018238546 L757.0682510594681,342.4685724971931 M757.0682510594681,342.4685724971931 L758.1754864562201,345.25118985769114 M758.1754864562201,345.25118985769114 L758.7437722630921,347.81088832934455 M758.7437722630921,347.81088832934455 L758.7401679125335,349.99884368790185 M758.7401679125335,349.99884368790185 L758.1650245458516,351.6879260497934 M758.1650245458516,351.6879260497934 L757.0519321089678,352.7800887310373 M757.0519321089678,352.7800887310373 L755.4657285849797,353.2120391281939 M755.4657285849797,353.2120391281939 L753.498700786003,352.9588707371147 M753.498700786003,352.9588707371147 L751.2651931644035,352.03546439462247 M751.2651931644035,352.03546439462247 L748.8949596359961,350.4955927608812 M758.7813010299169,342.96174949140504 L761.1516338733468,344.50084511949757 M761.1516338733468,344.50084511949757 L763.3854352750274,345.42347799902444 M763.3854352750274,345.42347799902444 L765.352934290361,345.6759204155639 M765.352934290361,345.6759204155639 L766.9397591431659,345.2433337562595 M766.9397591431659,345.2433337562595 L768.0535869782574,344.15066156672606 M768.0535869782574,344.15066156672606 L768.6295371305578,342.4612261403846 M768.6295371305578,342.4612261403846 L768.6339727979657,340.27309475766725 M768.6339727979657,340.27309475766725 L768.0664945248053,337.7134075899671 M768.0664945248053,337.7134075899671 L766.959995916684,334.93098822901476 M766.959995916684,334.93098822901476 L765.3787708600855,332.0876790878954 M765.3787708600855,332.0876790878954 L763.4147827744293,329.3489137691132 M763.4147827744293,329.3489137691132 L761.1822999928592,326.87405339870793 M761.1822999928592,326.87405339870793 L758.8112289346923,324.80707826826 M758.8112289346923,324.80707826826 L756.4395253327549,323.26818773213165 M756.4395253327549,323.26818773213165 L754.2051410859044,322.34679984552736 M754.2051410859044,322.34679984552736 L752.2379806621414,322.09635711096644 M752.2379806621414,322.09635711096644 L750.6523382693404,322.53124003561476 M750.6523382693404,322.53124003561476 L749.5402658742831,323.6259790272235 M749.5402658742831,323.6259790272235 L748.9662419945946,325.3167783160774 M748.9662419945946,325.3167783160774 L748.9634621469277,327.50525817541495 M748.9634621469277,327.50525817541495 L749.531946455963,330.0641986013992 M749.531946455963,330.0641986013992 L750.6385708455032,332.84494707369055 M750.6385708455032,332.84494707369055 L752.2190126154069,335.6860439574249 M752.2190126154069,335.6860439574249 L754.1814877883929,338.4225624516027 M754.1814877883929,338.4225624516027 L756.4120746194754,340.89565615278775 M756.4120746194754,340.89565615278775 L758.7813010299169,342.96174949140504" stroke="black"  stroke-width="4"  fill="red"/>
<path d="M748.8966858534139,349.134981096285 L715.9105750358044,374.27095357231593 M748.916262295676,333.70474883400675 L715.9105750358044,358.8448683007794 M748.8966858534139,349.134981096285 L746.882640151649,347.3781210554184 M746.882640151649,347.3781210554184 L744.9862697899055,345.2753270989844 M744.9862697899055,345.2753270989844 L743.317667453758,342.9486990732243 M743.317667453758,342.9486990732243 L741.9737129477836,340.53330876561535 M741.9737129477836,340.53330876561535 L741.0324644720749,338.16939537031305 M741.0324644720749,338.16939537031305 L740.5486306301095,335.9942377619529 M740.5486306301095,335.9942377619529 L740.550392354072,334.1342046124332 M740.550392354072,334.1342046124332 L741.0377494626912,332.697410880004 M741.0377494626912,332.697410880004 L741.9824972646369,331.76744420522334 M741.9824972646369,331.76744420522334 L743.329839961271,331.3984800932994 M743.329839961271,331.3984800932994 L745.001547173518,331.61210405191207 M745.001547173518,331.61210405191207 L746.9004862687036,332.3960197995519 M746.9004862687036,332.3960197995519 L748.916262295676,333.70474883400675 M715.9105750358044,374.27095357231593 L713.8962441506176,372.51201247014706 M713.8962441506176,372.51201247014706 L711.9990367370956,370.40737911862146 M711.9990367370956,370.40737911862146 L710.3290940232253,368.07926006647654 M710.3290940232253,368.07926006647654 L708.9833735543798,365.66281357747994 M708.9833735543798,365.66281357747994 L708.0400360034331,363.29834010755417 M708.0400360034331,363.29834010755417 L707.5539112513604,361.12315104480894 M707.5539112513604,361.12315104480894 L707.5533132976565,359.2636169474599 M707.5533132976565,359.2636169474599 L708.0383790907508,357.82782391068554 M708.0383790907508,357.82782391068554 L708.9810371804065,356.8993016043724 M708.9810371804065,356.8993016043724 L710.326613348549,356.5321417856588 M710.326613348549,356.5321417856588 L711.9969800426867,356.74782525585255 M711.9969800426867,356.74782525585255 L713.8950826814038,357.53393612325993 M713.8950826814038,357.53393612325993 L715.9105750358044,358.8448683007794 M748.916262295676,333.70474883400675 L750.9316408919414,335.4622465586386 M750.9316408919414,335.4622465586386 L752.8293814537269,337.56631761909324 M752.8293814537269,337.56631761909324 L754.4990774005447,339.89456959810934 M754.4990774005447,339.89456959810934 L755.8435983931386,342.3115586841509 M755.8435983931386,342.3115586841509 L756.784756455619,344.676679419796 M756.784756455619,344.676679419796 L757.267863698377,346.8523763432175 M757.267863698377,346.8523763432175 L757.2649056456955,348.71215723258604 M757.2649056456955,348.71215723258604 L756.7761565403479,350.1479649188302 M756.7761565403479,350.1479649188302 L755.8301399648564,351.07643765269853 M755.8301399648564,351.07643765269853 L754.4819423786679,351.4437421731648 M754.4819423786679,351.4437421731648 L752.8099900062331,351.22867316724023 M752.8099900062331,351.22867316724023 L750.9114716418035,350.44385795452433 M750.9114716418035,350.44385795452433 L748.8966858534139,349.134981096285 M715.9105750358044,358.8448683007794 L717.926239269774,360.60444905083585 M717.926239269774,360.60444905083585 L719.8248181387187,362.71036179346765 M719.8248181387187,362.71036179346765 L721.4958562321431,365.04010688497453 M721.4958562321431,365.04010688497453 L722.8421450647697,367.45815355962804 M722.8421450647697,367.45815355962804 L723.7853937578909,369.82383477585904 M723.7853937578909,369.82383477585904 L724.2707927880748,371.999562465367 M724.2707927880748,371.999562465367 L724.2701944113115,373.858842677688 M724.2701944113115,373.858842677688 L723.7837357410749,375.2936474790583 M723.7837357410749,375.2936474790583 L722.8398073204851,376.220673592423 M722.8398073204851,376.220673592423 L721.493374385205,376.58617202074055 M721.493374385205,376.58617202074055 L719.8227607632358,376.36904256951095 M719.8227607632358,376.36904256951095 L717.9250776025106,375.58203238241856 M717.9250776025106,375.58203238241856 L715.9105750358044,374.27095357231593" stroke="black"  stroke-width="4"  fill="red"/>
<path d="M299.0488419713594,653.5983565208644 L315.8917504755269,665.6155259798339 M315.8917504755269,665.6155259798339 L333.9768376719992,676.5367327065844 M333.9768376719992,676.5367327065844 L353.1831416838271,686.2872225820635 M353.1831416838271,686.2872225820635 L373.38176012706845,694.8001933825966 M373.38176012706845,694.8001933825966 L394.4368255845433,702.0171939292002 M394.4368255845433,702.0171939292002 L416.2063920729379,707.8886355515398 M416.2063920729379,707.8886355515398 L438.5434265383016,712.3741315908187 M438.5434265383016,712.3741315908187 L461.2968913773293,715.4427722190459 M461.2968913773293,715.4427722190459 L484.3127654689614,717.073453431836 M484.3127654689614,717.073453431836 L507.43519517620456,717.2548965284368 M507.43519517620456,717.2548965284368 L530.5075589583448,715.9858621742709 M530.5075589583448,715.9858621742709 L553.3735290023478,713.2751126552065 M553.3735290023478,713.2751126552065 L575.8783232302344,709.1413134312038 M575.8783232302344,709.1413134312038 L597.8697243398622,703.6129429055835 M597.8697243398622,703.6129429055835 L619.1991700785841,696.7280150183215 M619.1991700785841,696.7280150183215 L639.722745655581,688.5339193127446 M639.722745655581,688.5339193127446 L659.3023451980253,679.0868410440127 M659.3023451980253,679.0868410440127 L677.8063996291542,668.4516342424282 M677.8063996291542,668.4516342424282 L695.1110633477374,656.7010334898737 M695.1110633477374,656.7010334898737 L711.10085054243,643.9153512334206 M711.10085054243,643.9153512334206 L725.6694350488659,630.1817819878862 M725.6694350488659,630.1817819878862 L738.7204596903429,615.5937655432415 M738.7204596903429,615.5937655432415 L750.1680631092296,600.2503424891776 M750.1680631092296,600.2503424891776 L759.9374680675685,584.2554162157339 M759.9374680675685,584.2554162157339 L767.9654287655964,567.7170208146597 M767.9654287655964,567.7170208146597 L774.200602188758,550.7465672134531 M774.200602188758,550.7465672134531 L778.6038134809536,533.4580738633631 M778.6038134809536,533.4580738633631 L781.1483314529345,515.9673735140733 M781.1483314529345,515.9673735140733 L781.8198774076538,498.391277759839 M781.8198774076538,498.391277759839 L780.6166998092867,480.8468744619438 M780.6166998092867,480.8468744619438 L777.5495137810738,463.4506674982333 M777.5495137810738,463.4506674982333 L772.6413719464449,446.31787870241 M772.6413719464449,446.31787870241 L765.9273800417483,429.5616116019345 M765.9273800417483,429.5616116019345 L757.4544785040515,413.29221238978073 M757.4544785040515,413.29221238978073 L747.2810181207619,397.6165143154991 M747.2810181207619,397.6165143154991 L735.4763282306101,382.63716736612366 M735.4763282306101,382.63716736612366 L722.120237911819,368.4520202884766 M722.120237911819,368.4520202884766 L707.3024805282694,355.1535064693175 M707.3024805282694,355.1535064693175 L691.1220932806382,342.8280777759363 M691.1220932806382,342.8280777759363 L673.6867461217055,331.5556917124442 M673.6867461217055,331.5556917124442 L655.112017741912,321.409327214158 M655.112017741912,321.409327214158 L635.5206500736117,312.4545512533359 M635.5206500736117,312.4545512533359 L615.0417508474645,304.7491475888968 M615.0417508474645,304.7491475888968 L593.8099529586268,298.3427555966704 M593.8099529586268,298.3427555966704 L571.9645891241114,293.2766014631197 M571.9645891241114,293.2766014631197 L549.6488189684837,289.5832663481405 M549.6488189684837,289.5832663481405 L527.0086660849752,287.28645921011514 M527.0086660849752,287.28645921011514 L504.1922268612302,286.40094169152 M504.1922268612302,286.40094169152 L481.34864204335946,286.93239726007596 M481.34864204335946,286.93239726007596 L458.62726565569875,288.877409304983 M458.62726565569875,288.877409304983 L436.17663875138015,292.22348097348674 M436.17663875138015,292.22348097348674 L414.1436808182822,296.949144747232 M414.1436808182822,296.949144747232 L392.67271991547943,303.02400894458486 M392.67271991547943,303.02400894458486 L371.90458405824927,310.4089907779017 M371.90458405824927,310.4089907779017 L351.9757281756752,319.05652626850963 M351.9757281756752,319.05652626850963 L333.0173815803047,328.91084436453536 M333.0173815803047,328.91084436453536 L315.15472087132565,339.90828269400123 M315.15472087132565,339.90828269400123 L298.5060286003675,351.9776945291015 M298.5060286003675,351.9776945291015 L283.1819645536286,365.0407950522369 M283.1819645536286,365.0407950522369 L269.28483272047896,379.0127079832663 M269.28483272047896,379.0127079832663 L256.90775760636143,393.8024937618547 M256.90775760636143,393.8024937618547 L246.13435262945197,409.3135451978999 M246.13435262945197,409.3135451978999 L237.0377379188584,425.44439155700945 M237.0377379188584,425.44439155700945 L229.68039564044415,442.0891523015749 M229.68039564044415,442.0891523015749 L224.11341555007425,459.1383161898715 M224.11341555007425,459.1383161898715 L220.3762627720552,476.4793943596386 M220.3762627720552,476.4793943596386 L218.49637199097316,493.99765093648284 M218.49637199097316,493.99765093648284 L218.48896391677857,511.57678645534327 M218.48896391677857,511.57678645534327 L220.35683010048643,529.0998071611473 M220.35683010048643,529.0998071611473 L224.09018139436847,546.4497612278066 M224.09018139436847,546.4497612278066 L229.66680791928582,563.5104916490276 M229.66680791928582,563.5104916490276 L237.05197527893807,580.1674688649085 M237.05197527893807,580.1674688649085 L246.1987146466769,596.3085423825679 M246.1987146466769,596.3085423825679 L257.04803787751445,611.8247562396067 M257.04803787751445,611.8247562396067 L269.52923650951277,626.6111129960041 M269.52923650951277,626.6111129960041 L283.5604080057995,640.5672760923582 M283.5604080057995,640.5672760923582 L299.0488419713594,653.5983565208644 M265.3820701658017,679.2259457144474 L283.3390334959543,692.1440796508526 M283.3390334959543,692.1440796508526 L302.5270006435435,703.9937591074081 M302.5270006435435,703.9937591074081 L322.8381032149945,714.7065260842555 M322.8381032149945,714.7065260842555 L344.1577095193145,724.220413607044 M344.1577095193145,724.220413607044 L366.3651534716651,732.4803105760852 M366.3651534716651,732.4803105760852 L389.3344949036966,739.4382590203857 M389.3344949036966,739.4382590203857 L412.93517831606914,745.0538174195259 M412.93517831606914,745.0538174195259 L437.0328167074771,749.2943492088383 M437.0328167074771,749.2943492088383 L461.4900612846237,752.1351665401003 M461.4900612846237,752.1351665401003 L486.1673433094934,753.5597198743566 M486.1673433094934,753.5597198743566 L510.9237998871482,753.5597198743566 M510.9237998871482,753.5597198743566 L535.6180948668907,752.1351665401003 M535.6180948668907,752.1351665401003 L560.1092663570537,749.2943492088383 M560.1092663570537,749.2943492088383 L584.2575352559778,745.053807600987 M584.2575352559778,745.053807600987 L607.9252769732605,739.4382541126313 M607.9252769732605,739.4382541126313 L630.9777211525676,732.4803203878407 M630.9777211525676,732.4803203878407 L653.2838357066661,724.2204430289453 M653.2838357066661,724.2204430289453 L674.717088648872,714.7065358864261 M674.717088648872,714.7065358864261 L695.1560855541816,703.993764005606 M695.1560855541816,703.993764005606 L714.4855916745051,692.1441065733804 M714.4855916745051,692.1441065733804 L732.5968159569156,679.2259457144473 M732.5968159569156,679.2259457144473 L749.3882818086295,665.3137800621029 M749.3882818086295,665.3137800621029 L764.7663029860561,650.4875655220302 M764.7663029860561,650.4875655220302 L778.6455742882487,634.8324283196765 M778.6455742882487,634.8324283196765 L790.949507581167,618.4379011775688 M790.949507581167,618.4379011775688 L801.6107726023855,601.3975830328161 M801.6107726023855,601.3975830328161 L810.5715590533352,583.8084811921603 M810.5715590533352,583.8084811921603 L817.7838794545687,565.7704182781061 M817.7838794545687,565.7704182781061 L823.2097997348053,547.3855142785678 M823.2097997348053,547.3855142785678 L826.8215412564567,528.7574772210835 M826.8215412564567,528.7574772210835 L828.6016790372003,509.9911164722514 M828.6016790372003,509.9911164722514 L828.5430942796646,491.19168064202177 M828.5430942796646,491.19168064202177 L826.6489660640749,472.46427077565 M826.6489660640749,472.46427077565 L822.9327007183268,453.9132523776793 M822.9327007183268,453.9132523776793 L817.4178182686181,435.6417109011753 M817.4178182686181,435.6417109011753 L810.1377113529019,417.750851957024 M810.1377113529019,417.750851957024 L801.1354298902901,400.3394720020461 M801.1354298902901,400.3394720020461 L790.4633957174804,383.5034472545576 M790.4633957174804,383.5034472545576 L778.1830452296555,367.3352137866971 M778.1830452296555,367.3352137866971 L764.3644540705559,351.9232940565727 M764.3644540705559,351.9232940565727 L749.0859253879709,337.3518497839034 M749.0859253879709,337.3518497839034 L732.4335112572334,323.70025012084074 M732.4335112572334,323.70025012084074 L714.5005387657415,311.04267671746913 M714.5005387657415,311.04267671746913 L695.3870700104712,299.4477607669524 M695.3870700104712,299.4477607669524 L675.1993536291095,288.9782356941197 M675.1993536291095,288.9782356941197 L654.0492479399454,279.6906478485797 M654.0492479399454,279.6906478485797 L632.0536106475296,271.63506991030454 M632.0536106475296,271.63506991030454 L609.333684389864,264.85486956540774 M609.333684389864,264.85486956540774 L586.0144642934421,259.38650855622785 M586.0144642934421,259.38650855622785 L562.2240218123791,255.25935637748313 M562.2240218123791,255.25935637748313 L538.0928568711686,252.49555753378144 M538.0928568711686,252.49555753378144 L513.7532424330237,251.1099489707646 M513.7532424330237,251.1099489707646 L489.3384933637954,251.10995374767595 M489.3384933637954,251.10995374767595 L464.9823216194253,252.49556469970162 M464.9823216194253,252.49556469970162 L440.8181480752914,255.25935279397146 M440.8181480752914,255.25935279397146 L416.9784273653539,259.38651333534216 M416.9784273653539,259.38651333534216 L393.59388556623355,264.85487255326393 M393.59388556623355,264.85487255326393 L370.7929913399904,271.63506759384154 M370.7929913399904,271.63506759384154 L348.7011450253783,279.69064246599413 M348.7011450253783,279.69064246599413 L327.4401177192901,288.97822791525346 M327.4401177192901,288.97822791525346 L307.12739323685213,299.4477631618446 M307.12739323685213,299.4477631618446 L287.8754252105424,311.0426743210319 M287.8754252105424,311.0426743210319 L269.7912970572242,323.70025012084074 M269.7912970572242,323.70025012084074 L252.97583073088046,337.35185218384873 M252.97583073088046,337.35185218384873 L237.52329904516358,351.9233060660192 M237.52329904516358,351.9233060660192 L223.52064819269208,367.3351963580867 M223.52064819269208,367.3351963580867 L211.04718361055728,383.5034514652417 M211.04718361055728,383.5034514652417 L200.17408652500933,400.33947930236985 M200.17408652500933,400.33947930236985 L190.96387395042154,417.7508549703756 M190.96387395042154,417.7508549703756 L183.4701175894736,435.64171572732266 M183.4701175894736,435.64171572732266 L177.73701340651922,453.9132487544026 M177.73701340651922,453.9132487544026 L173.79920739026255,472.46427319365114 M173.79920739026255,472.46427319365114 L171.68142723359557,491.19168548304003 M171.68142723359557,491.19168548304003 L171.3983209627997,509.9911164722515 M171.3983209627997,509.9911164722515 L172.9543322280283,528.7574723699959 M172.9543322280283,528.7574723699959 L176.34361171910513,547.3855142785679 M176.34361171910513,547.3855142785679 L181.54995452358855,565.7704280001448 M181.54995452358855,565.7704280001448 L188.54684620594475,583.8084860580234 M188.54684620594475,583.8084860580234 L197.29759112589556,601.3975830328163 M197.29759112589556,601.3975830328163 L207.7553751279898,618.437881676894 M207.7553751279898,618.437881676894 L219.8635141768773,634.8324088013667 M219.8635141768773,634.8324088013667 L233.5558021103916,650.4875704058195 M233.5558021103916,650.4875704058195 L248.75677511908813,665.3137580670947 M248.75677511908813,665.3137580670947 L265.3820701658017,679.2259457144474 M299.0488419713594,653.5983565208644 L298.5012969842652,650.3548511855901 M298.5012969842652,650.3548511855901 L297.00749820970725,648.0432170272014 M297.00749820970725,648.0432170272014 L294.6537989920284,646.7982239238165 M294.6537989920284,646.7982239238165 L291.57659957670853,646.692782290362 M291.57659957670853,646.692782290362 L287.9545577633822,647.7335552519909 M287.9545577633822,647.7335552519909 L283.99818251928184,649.8604730766499 M283.99818251928184,649.8604730766499 L279.93775724429224,652.9500288408864 M279.93775724429224,652.9500288408864 L276.00952194417107,656.8226900317093 M276.00952194417107,656.8226900317093 L272.4423711395533,661.2529563551578 M272.4423711395533,661.2529563551578 L269.4439392940579,665.9829376360638 M269.4439392940579,665.9829376360638 L267.18885314093615,670.7371166708016 M267.18885314093615,670.7371166708016 L265.8081995900219,675.238757333942 M265.8081995900219,675.238757333942 L265.3820701658017,679.2259457144474 M265.3820701658017,679.2259457144474 L265.9349207811186,682.466890398501 M265.9349207811186,682.466890398501 L267.43413608470786,684.7734798476225 M267.43413608470786,684.7734798476225 L269.79212188577435,686.0120998624061 M269.79212188577435,686.0120998624061 L272.87152163331865,686.1112804423386 M272.87152163331865,686.1112804423386 L276.4931022777188,685.0658470066732 M276.4931022777188,685.0658470066732 L280.44653164047946,682.9368827475142 M280.44653164047946,682.9368827475142 L284.5021756056273,679.8483829502627 M284.5021756056273,679.8483829502627 L288.42488934685144,675.9796382549018 M288.42488934685144,675.9796382549018 L291.9870690978899,671.555232130691 M291.9870690978899,671.555232130691 L294.98214793527245,666.8317664778806 M294.98214793527245,666.8317664778806 L297.23633850449613,662.0832116199979 M297.23633850449613,662.0832116199979 L298.6187333219208,657.5850348429312 M298.6187333219208,657.5850348429312 L299.0488419713594,653.5983565208644" stroke="black"  stroke-width="4"  fill="red"/></svg>