<svg version="1.1" xmlns="http://www.w3.org/2000/svg" viewBox="-69.52536334187587 -47.97262567102771 142.00226589668787 67.38934814907965" fill="none" stroke="black" stroke-width="0.6%" vector-effect="non-scaling-stroke">
    <path d="M -47.51501 -25.67153 C -47.52 -25.75 -47.52 -25.83 -47.52081 -25.90231 C -47.52 -25.98 -47.53 -26.06 -47.53822 -26.1338 C -47.55 -26.21 -47.56 -26.29 -47.56723 -26.36571 C -47.58 -26.44 -47.59 -26.52 -47.60783 -26.59776 C -47.64 -26.75 -47.68 -26.91 -47.72379 -27.06118 C -47.75 -27.14 -47.77 -27.22 -47.79913 -27.29199 C -47.83 -27.37 -47.86 -27.45 -47.88603 -27.52182 C -47.9 -27.56 -47.92 -27.59 -47.93118 -27.63016 C -47.95 -27.67 -47.96 -27.7 -47.97891 -27.73817 C -48 -27.77 -48.01 -27.81 -48.02923 -27.84584 C -48.05 -27.88 -48.06 -27.92 -48.08213 -27.95312 C -48.1 -27.99 -48.12 -28.02 -48.13762 -28.05999 C -48.16 -28.1 -48.18 -28.13 -48.19569 -28.1664 C -48.22 -28.2 -48.24 -28.24 -48.25634 -28.27233 C -48.28 -28.31 -48.3 -28.34 -48.31957 -28.37773 C -48.34 -28.41 -48.36 -28.45 -48.38538 -28.48256 C -48.41 -28.52 -48.43 -28.55 -48.45377 -28.58678 C -48.48 -28.62 -48.5 -28.66 -48.52473 -28.69033 C -48.55 -28.72 -48.57 -28.76 -48.59825 -28.79318 C -48.62 -28.83 -48.65 -28.86 -48.67434 -28.89527 C -48.7 -28.93 -48.73 -28.96 -48.75299 -28.99654 C -48.78 -29.03 -48.81 -29.06 -48.83419 -29.09695 C -48.86 -29.13 -48.89 -29.16 -48.91794 -29.19643 C -48.95 -29.23 -48.98 -29.27 -49.01345 -29.30521 C -49.05 -29.34 -49.08 -29.38 -49.11202 -29.41269 C -49.15 -29.45 -49.18 -29.48 -49.21364 -29.51874 C -49.25 -29.55 -49.28 -29.59 -49.31828 -29.62326 C -49.46 -29.76 -49.61 -29.9 -49.76603 -30.02351 C -50 -30.22 -50.26 -30.4 -50.5233 -30.55708 C -50.96 -30.82 -51.43 -31.03 -51.88208 -31.13813 C -51.91 -31.15 -51.94 -31.16 -51.97274 -31.17462 C -52 -31.19 -52.03 -31.2 -52.06315 -31.2088 C -52.09 -31.22 -52.12 -31.23 -52.1532 -31.24064 C -52.18 -31.25 -52.21 -31.26 -52.24278 -31.27009 C -52.28 -31.28 -52.31 -31.29 -52.34541 -31.30105 C -52.38 -31.31 -52.41 -31.32 -52.44711 -31.32876 C -52.48 -31.34 -52.51 -31.35 -52.54769 -31.35316 C -52.58 -31.36 -52.61 -31.37 -52.64702 -31.37426 C -52.68 -31.38 -52.71 -31.39 -52.74496 -31.39205 C -52.78 -31.4 -52.81 -31.4 -52.84139 -31.40653 C -52.87 -31.41 -52.9 -31.41 -52.93617 -31.41774 C -52.97 -31.42 -53 -31.42 -53.02921 -31.4257 C -53.06 -31.43 -53.09 -31.43 -53.11906 -31.43039 C -53.15 -31.43 -53.18 -31.43 -53.20706 -31.43203 C -53.24 -31.43 -53.26 -31.43 -53.29316 -31.43065 C -53.32 -31.43 -53.35 -31.43 -53.37728 -31.42631 C -53.4 -31.42 -53.43 -31.42 -53.45399 -31.41966 C -53.48 -31.42 -53.5 -31.41 -53.52893 -31.41054 C -53.55 -31.41 -53.58 -31.4 -53.60209 -31.39901 C -53.63 -31.39 -53.65 -31.39 -53.67346 -31.38513 C -53.7 -31.38 -53.72 -31.37 -53.74302 -31.36896 C -53.77 -31.36 -53.79 -31.36 -53.81079 -31.35056 C -53.83 -31.34 -53.86 -31.34 -53.87677 -31.32998 C -53.9 -31.32 -53.92 -31.32 -53.94098 -31.30729 C -53.95 -31.3 -53.96 -31.3 -53.97637 -31.29359 C -54 -31.28 -54.03 -31.27 -54.05105 -31.26176 C -54.08 -31.25 -54.1 -31.24 -54.12315 -31.22701 C -54.15 -31.21 -54.17 -31.2 -54.19273 -31.18944 C -54.22 -31.18 -54.24 -31.16 -54.25982 -31.14915 C -54.28 -31.14 -54.3 -31.12 -54.32447 -31.10621 C -54.35 -31.09 -54.37 -31.08 -54.38673 -31.06073 C -54.41 -31.05 -54.43 -31.03 -54.44665 -31.01277 C -54.47 -31 -54.49 -30.98 -54.50429 -30.96242 C -54.52 -30.95 -54.54 -30.93 -54.55189 -30.91745 C -54.57 -30.9 -54.58 -30.89 -54.59789 -30.87082 C -54.61 -30.86 -54.63 -30.84 -54.64231 -30.82257 C -54.66 -30.81 -54.67 -30.79 -54.68521 -30.77275 C -54.7 -30.76 -54.71 -30.74 -54.72661 -30.72139 C -54.74 -30.7 -54.75 -30.69 -54.76654 -30.66853 C -54.78 -30.65 -54.79 -30.63 -54.80503 -30.61421 C -54.82 -30.6 -54.83 -30.58 -54.84213 -30.55846 C -54.84 -30.56 -54.84 -30.55 -54.8456 -30.55305" />
    <path d="M -50.04768 -21.72135 C -50.02 -21.73 -50 -21.74 -49.97359 -21.75255 C -49.95 -21.76 -49.92 -21.77 -49.90042 -21.78533 C -49.88 -21.8 -49.85 -21.81 -49.82819 -21.81965 C -49.8 -21.83 -49.78 -21.84 -49.75693 -21.85546 C -49.72 -21.88 -49.68 -21.9 -49.64085 -21.91805 C -49.6 -21.94 -49.56 -21.96 -49.52757 -21.98439 C -49.49 -22.01 -49.45 -22.03 -49.41718 -22.05427 C -49.38 -22.08 -49.35 -22.1 -49.30972 -22.1275 C -49.27 -22.15 -49.24 -22.18 -49.20524 -22.20388 C -49.17 -22.23 -49.14 -22.26 -49.10378 -22.28325 C -49.07 -22.31 -49.04 -22.34 -49.00538 -22.36544 C -48.97 -22.39 -48.94 -22.42 -48.91005 -22.45028 C -48.88 -22.48 -48.85 -22.5 -48.82718 -22.52853 C -48.8 -22.55 -48.77 -22.58 -48.74681 -22.60869 C -48.72 -22.64 -48.69 -22.66 -48.66896 -22.69067 C -48.64 -22.72 -48.62 -22.75 -48.59363 -22.77438 C -48.57 -22.8 -48.54 -22.83 -48.52082 -22.85973 C -48.5 -22.89 -48.47 -22.92 -48.45054 -22.94664 C -48.43 -22.98 -48.4 -23.01 -48.38279 -23.03504 C -48.36 -23.06 -48.34 -23.09 -48.31758 -23.12484 C -48.3 -23.16 -48.28 -23.19 -48.25491 -23.21598 C -48.23 -23.25 -48.21 -23.28 -48.19478 -23.30839 C -48.18 -23.34 -48.16 -23.37 -48.13719 -23.402 C -48.12 -23.43 -48.1 -23.46 -48.08214 -23.49676 C -48.06 -23.53 -48.05 -23.56 -48.02964 -23.5926 C -48.01 -23.62 -48 -23.66 -47.97968 -23.68947 C -47.96 -23.72 -47.95 -23.75 -47.93227 -23.78731 C -47.92 -23.82 -47.9 -23.85 -47.8874 -23.88608 C -47.76 -24.17 -47.67 -24.46 -47.60817 -24.75998 C -47.55 -25.06 -47.52 -25.36 -47.51501 -25.67153" />
    <path d="M -31.34932 -14.66247 A 12.5 3.53427 360 0 1 -56.34932 -14.66247" />
    <path d="M -52.56567 -45.97162 A 12.5 3.53427 360 0 1 -31.34932 -43.43836 A 12.5 3.53427 360 0 1 -56.34932 -43.43836 A 12.5 3.53427 360 0 1 -52.56567 -45.97162 Z" />
    <path d="M -52.99887 -31.42344 C -53 -31.42 -53 -31.42 -53.00127 -31.42021 C -53.02 -31.4 -53.04 -31.37 -53.05245 -31.34706 C -53.07 -31.32 -53.08 -31.3 -53.10047 -31.27058" />
    <path d="M -31.34932 -17.00684 A 15 4.24112 360 0 1 -28.84932 -14.66247 L -28.84932 -9.86649 A 15 4.24112 360 0 1 -36.77276 -6.127" />
    <path d="M -28.84932 -14.66247 A 15 4.24112 360 0 1 -52.76654 -11.25215" />
    <path d="M -58.45403 -15.6297 A 15 4.24112 360 0 1 -56.34932 -17.00684" />
    <path d="M -45.49932 17.9502 A 1.65 0.46652 180 0 0 -42.19932 17.9502 L -42.19932 2.88794" />
    <path d="M 45.47464 -7.52543 C 45.6 -7.56 45.72 -7.59 45.83625 -7.62555 C 45.96 -7.66 46.08 -7.69 46.19448 -7.72644 C 46.31 -7.76 46.43 -7.79 46.54932 -7.82809 C 46.67 -7.86 46.78 -7.9 46.90075 -7.93047 C 47.02 -7.96 47.13 -8 47.24876 -8.03357 C 47.36 -8.07 47.48 -8.1 47.5933 -8.13737 C 47.82 -8.21 48.05 -8.28 48.27195 -8.34699 C 48.5 -8.42 48.72 -8.49 48.93648 -8.55919 C 49.16 -8.63 49.37 -8.7 49.58668 -8.77383 C 49.8 -8.85 50.01 -8.92 50.22231 -8.99076 C 50.43 -9.06 50.64 -9.14 50.84312 -9.20986 C 51.05 -9.28 51.25 -9.36 51.44884 -9.43097 C 51.65 -9.5 51.85 -9.58 52.03921 -9.65394 C 52.23 -9.73 52.43 -9.8 52.61394 -9.87862 C 52.8 -9.95 52.99 -10.03 53.17273 -10.10484 C 53.36 -10.18 53.54 -10.26 53.7153 -10.33241 C 53.89 -10.41 54.07 -10.48 54.24134 -10.56113 C 54.33 -10.6 54.41 -10.64 54.49806 -10.67586 C 54.58 -10.71 54.67 -10.75 54.75055 -10.79079 C 54.83 -10.83 54.92 -10.87 54.99874 -10.9059 C 55.08 -10.94 55.16 -10.98 55.24262 -11.02115 C 55.32 -11.06 55.4 -11.1 55.48214 -11.13652 C 55.56 -11.17 55.64 -11.21 55.71727 -11.25196 C 55.79 -11.29 55.87 -11.33 55.94796 -11.36743 C 56.02 -11.41 56.1 -11.44 56.17419 -11.48291 C 56.32 -11.56 56.47 -11.64 56.61309 -11.71371 C 56.76 -11.79 56.9 -11.87 57.0337 -11.94401 C 57.58 -12.25 58.08 -12.55 58.52778 -12.85223 C 59.42 -13.45 60.11 -14.01 60.56793 -14.49371 C 61.79 -15.9 61.39 -15.86 61.47569 -15.87745 C 61.48 -15.88 61.47 -15.88 61.47462 -15.88289 C 61.47 -15.88 61.47 -15.89 61.47396 -15.88876 C 61.47 -15.89 61.47 -15.89 61.47351 -15.89541 C 61.47 -15.9 61.47 -15.9 61.47303 -15.90313 C 61.47 -15.91 61.47 -15.91 61.47229 -15.91222 C 61.47 -15.92 61.47 -15.92 61.47108 -15.92294 C 61.47 -15.93 61.47 -15.93 61.46918 -15.93556 C 61.47 -15.94 61.47 -15.95 61.46637 -15.95029 C 61.47 -15.96 61.46 -15.96 61.46245 -15.96735 C 61.46 -15.97 61.46 -15.98 61.45719 -15.98694 C 61.46 -15.99 61.45 -16 61.45041 -16.00923 C 61.45 -16.02 61.45 -16.03 61.44189 -16.03437 C 61.44 -16.04 61.44 -16.05 61.43144 -16.0625 C 61.43 -16.07 61.42 -16.08 61.41887 -16.09373 C 61.41 -16.1 61.41 -16.12 61.40397 -16.12815 C 61.4 -16.14 61.39 -16.15 61.38656 -16.16586 C 61.38 -16.18 61.37 -16.19 61.36646 -16.2069 C 61.36 -16.22 61.35 -16.24 61.34348 -16.2513 C 61.34 -16.27 61.33 -16.28 61.31744 -16.2991 C 61.31 -16.32 61.3 -16.33 61.28816 -16.35029 C 61.28 -16.37 61.27 -16.39 61.25548 -16.40485 C 61.24 -16.42 61.23 -16.44 61.21922 -16.46274 C 61.21 -16.48 61.19 -16.5 61.17921 -16.5239 C 61.17 -16.54 61.15 -16.57 61.13528 -16.58826 C 61.12 -16.61 61.1 -16.63 61.08729 -16.65571 C 61.07 -16.68 61.05 -16.7 61.03507 -16.72614 C 61 -16.77 60.96 -16.82 60.91732 -16.87538 C 60.83 -16.98 60.74 -17.09 60.62447 -17.20235 C 59.19 -18.79 55.31 -21.09 49.74236 -22.92873 C 31.34 -29.47 -5.88 -31.28 -31.34932 -26.66974" />
    <path d="M 71.47569 -15.87745 C 71.48 -15.94 71.48 -16 71.47407 -16.06608 C 71.47 -16.13 71.47 -16.19 71.46889 -16.25466 C 71.47 -16.32 71.46 -16.38 71.46017 -16.4431 C 71.46 -16.51 71.45 -16.57 71.44795 -16.63131 C 71.44 -16.69 71.44 -16.76 71.43225 -16.8192 C 71.43 -16.88 71.42 -16.94 71.4131 -17.00669 C 71.41 -17.07 71.4 -17.13 71.39053 -17.1937 C 71.38 -17.26 71.37 -17.32 71.36458 -17.38015 C 71.36 -17.44 71.35 -17.5 71.33527 -17.56598 C 71.32 -17.63 71.31 -17.69 71.30265 -17.7511 C 71.29 -17.81 71.28 -17.87 71.26675 -17.93546 C 71.25 -18 71.24 -18.06 71.2276 -18.11898 C 71.21 -18.18 71.2 -18.24 71.18525 -18.30162 C 71.17 -18.36 71.16 -18.42 71.13973 -18.48332 C 71.12 -18.54 71.11 -18.6 71.09109 -18.66401 C 71.07 -18.72 71.06 -18.78 71.03938 -18.84365 C 71.02 -18.9 71 -18.96 70.98462 -19.0222 C 70.97 -19.08 70.95 -19.14 70.92688 -19.19961 C 70.91 -19.26 70.89 -19.32 70.86619 -19.37584 C 70.85 -19.43 70.82 -19.49 70.80261 -19.55086 C 70.78 -19.61 70.76 -19.67 70.73619 -19.72462 C 70.71 -19.78 70.69 -19.84 70.66698 -19.89711 C 70.64 -19.95 70.62 -20.01 70.59502 -20.06828 C 70.57 -20.13 70.55 -20.18 70.52038 -20.23813 C 70.5 -20.29 70.47 -20.35 70.4431 -20.40663 C 70.42 -20.46 70.39 -20.52 70.36325 -20.57376 C 70.31 -20.68 70.25 -20.79 70.19606 -20.90386 C 70.08 -21.12 69.96 -21.34 69.83342 -21.54726 C 68.38 -23.93 66.25 -25.83 63.63358 -27.51149 C 49.45 -37.87 2.38 -42.4 -31.34932 -36.80572" />
    <path d="M -52.77578 -31.39701 C -52.96 -31.33 -53.14 -31.25 -53.32523 -31.18183 C -53.51 -31.11 -53.69 -31.04 -53.8662 -30.96393 C -54.05 -30.89 -54.22 -30.82 -54.39866 -30.74326 C -54.57 -30.67 -54.75 -30.59 -54.92257 -30.51982 C -55.1 -30.44 -55.27 -30.37 -55.4379 -30.29357 C -55.61 -30.22 -55.78 -30.14 -55.9446 -30.06447 C -56.11 -29.99 -56.28 -29.91 -56.44267 -29.83248 C -56.61 -29.75 -56.77 -29.68 -56.93206 -29.59758 C -57.09 -29.52 -57.25 -29.44 -57.41276 -29.3597 C -57.57 -29.28 -57.73 -29.2 -57.88475 -29.1188 C -58.04 -29.04 -58.2 -28.96 -58.348 -28.87481 C -58.5 -28.79 -58.65 -28.71 -58.80252 -28.6277 C -58.95 -28.54 -59.1 -28.46 -59.24828 -28.37737 C -59.4 -28.29 -59.54 -28.21 -59.68527 -28.12377 C -59.83 -28.04 -59.97 -27.95 -60.11351 -27.86682 C -60.25 -27.78 -60.39 -27.69 -60.53297 -27.60644 C -60.62 -27.55 -60.7 -27.5 -60.78375 -27.44616 C -60.87 -27.39 -60.95 -27.34 -61.03121 -27.28455 C -61.11 -27.23 -61.19 -27.18 -61.27537 -27.12155 C -61.36 -27.07 -61.44 -27.01 -61.51623 -26.95712 C -61.6 -26.9 -61.68 -26.85 -61.75382 -26.79121 C -61.83 -26.74 -61.91 -26.68 -61.98815 -26.62377 C -62.07 -26.57 -62.14 -26.51 -62.21923 -26.45475 C -62.3 -26.4 -62.37 -26.34 -62.44705 -26.28411 C -62.52 -26.23 -62.6 -26.17 -62.67161 -26.11179 C -62.75 -26.05 -62.82 -26 -62.89291 -25.93774 C -63.04 -25.82 -63.18 -25.7 -63.32568 -25.58426 C -63.61 -25.35 -63.89 -25.1 -64.15136 -24.85426 C -65.22 -23.86 -66.14 -22.78 -66.87301 -21.5622 C -67.9 -19.88 -68.53 -17.91 -68.52431 -15.87745 C -68.52 -15.81 -68.52 -15.75 -68.52268 -15.68882 C -68.52 -15.63 -68.52 -15.56 -68.5175 -15.50023 C -68.52 -15.44 -68.51 -15.37 -68.50878 -15.31179 C -68.51 -15.25 -68.5 -15.19 -68.49656 -15.12359 C -68.49 -15.06 -68.49 -15 -68.48086 -14.9357 C -68.48 -14.87 -68.47 -14.81 -68.46171 -14.74821 C -68.45 -14.69 -68.45 -14.62 -68.43914 -14.5612 C -68.43 -14.5 -68.42 -14.44 -68.41319 -14.37474 C -68.4 -14.31 -68.39 -14.25 -68.38388 -14.18892 C -68.37 -14.13 -68.36 -14.07 -68.35126 -14.0038 C -68.34 -13.94 -68.33 -13.88 -68.31536 -13.81944 C -68.3 -13.76 -68.29 -13.7 -68.27621 -13.63591 C -68.26 -13.57 -68.25 -13.51 -68.23386 -13.45328 C -68.22 -13.39 -68.2 -13.33 -68.18834 -13.27158 C -68.17 -13.21 -68.16 -13.15 -68.13971 -13.09089 C -68.12 -13.03 -68.11 -12.97 -68.08799 -12.91124 C -68.07 -12.85 -68.05 -12.79 -68.03323 -12.7327 C -68.01 -12.67 -68 -12.61 -67.97549 -12.55529 C -67.96 -12.5 -67.94 -12.44 -67.91481 -12.37906 C -67.89 -12.32 -67.87 -12.26 -67.85123 -12.20404 C -67.83 -12.15 -67.81 -12.09 -67.7848 -12.03028 C -67.76 -11.97 -67.74 -11.92 -67.71559 -11.85779 C -67.69 -11.8 -67.67 -11.74 -67.64363 -11.68661 C -67.62 -11.63 -67.59 -11.57 -67.56899 -11.51677 C -67.54 -11.46 -67.52 -11.4 -67.49171 -11.34827 C -67.47 -11.29 -67.44 -11.24 -67.41186 -11.18114 C -67.36 -11.07 -67.3 -10.96 -67.24467 -10.85104 C -67.13 -10.63 -67.01 -10.42 -66.88203 -10.20764 C -65.43 -7.82 -63.3 -5.93 -60.68219 -4.24341 C -52.99 4.24 0.89 13.3 48.12677 2.11647 C 48.33 2.06 48.52 2.01 48.71971 1.95151 C 48.92 1.9 49.11 1.84 49.30626 1.78425 C 49.5 1.73 49.69 1.67 49.88637 1.61471 C 50.08 1.56 50.27 1.5 50.45996 1.4429 C 50.65 1.39 50.84 1.33 51.027 1.26885 C 51.21 1.21 51.4 1.15 51.58741 1.09258 C 51.77 1.03 51.96 0.97 52.14116 0.91409 C 52.32 0.85 52.51 0.79 52.6882 0.7334 C 52.87 0.67 53.05 0.61 53.22847 0.55052 C 53.41 0.49 53.59 0.43 53.76194 0.36545 C 53.94 0.3 54.11 0.24 54.28855 0.17818 C 54.46 0.12 54.64 0.05 54.80828 -0.01128 C 54.98 -0.07 55.15 -0.14 55.32108 -0.20295 C 55.49 -0.27 55.66 -0.33 55.82692 -0.39682 C 55.99 -0.46 56.16 -0.53 56.32576 -0.59292 C 56.49 -0.66 56.65 -0.72 56.81758 -0.79126 C 56.98 -0.86 57.14 -0.92 57.30234 -0.99186 C 57.46 -1.06 57.62 -1.13 57.78001 -1.19474 C 57.94 -1.26 58.09 -1.33 58.25059 -1.39993 C 58.41 -1.47 58.56 -1.54 58.71403 -1.60746 C 58.87 -1.68 59.02 -1.75 59.17033 -1.81736 C 59.32 -1.89 59.47 -1.96 59.61946 -2.02967 C 59.77 -2.1 59.92 -2.17 60.06141 -2.24443 C 60.21 -2.32 60.35 -2.39 60.49617 -2.46167 C 60.64 -2.53 60.78 -2.61 60.92372 -2.68145 C 61.07 -2.76 61.21 -2.83 61.34407 -2.90381 C 61.48 -2.98 61.62 -3.05 61.75719 -3.12881 C 61.89 -3.2 62.03 -3.28 62.16309 -3.35649 C 62.7 -3.66 63.22 -3.97 63.71448 -4.29539 C 69.26 -7.88 71.63 -12.23 71.47569 -15.87745" />
    <path d="M 45.47464 -7.52543 C 45.11 -7.42 44.74 -7.33 44.36537 -7.22761 C 43.99 -7.13 43.61 -7.03 43.22743 -6.93702 C 42.84 -6.84 42.45 -6.75 42.06171 -6.65393 C 41.67 -6.56 41.27 -6.47 40.86911 -6.37858 C 40.47 -6.29 40.06 -6.2 39.65051 -6.11118 C 39.24 -6.02 38.83 -5.94 38.40684 -5.85197 C 37.99 -5.77 37.57 -5.68 37.139 -5.60116 C 36.71 -5.52 36.28 -5.44 35.84788 -5.35896 C 35.41 -5.28 34.98 -5.2 34.53443 -5.12555 C 34.09 -5.05 33.65 -4.97 33.19954 -4.90112 C 32.75 -4.83 32.3 -4.76 31.84414 -4.68586 C 31.39 -4.62 30.93 -4.55 30.46917 -4.47993 C 30.01 -4.41 29.54 -4.35 29.07554 -4.28349 C 28.61 -4.22 28.14 -4.16 27.66421 -4.09669 C 27.19 -4.04 26.71 -3.98 26.2361 -3.91968 C 25.76 -3.86 25.28 -3.81 24.79215 -3.75258 C 24.31 -3.7 23.82 -3.65 23.33332 -3.59553 C 22.84 -3.54 22.35 -3.5 21.86056 -3.44863 C 21.37 -3.4 20.87 -3.36 20.37482 -3.312 C 19.88 -3.27 19.38 -3.23 18.87706 -3.18573 C 18.38 -3.15 17.87 -3.11 17.36823 -3.06991 C 16.86 -3.03 16.36 -3 15.84932 -2.96462 C 15.34 -2.93 14.83 -2.9 14.32128 -2.86994 C 13.81 -2.84 13.3 -2.81 12.7851 -2.78591 C 12.27 -2.76 11.76 -2.74 11.24174 -2.71261 C 10.73 -2.69 10.21 -2.67 9.6922 -2.65007 C 8.66 -2.61 7.62 -2.58 6.57851 -2.55741 C 4.5 -2.51 2.41 -2.49 0.32055 -2.50223 C -13.61 -2.56 -27.43 -3.98 -38.11346 -6.42303 C -61.09 -12.41 -58.84 -17.25 -58.52431 -15.87745" />
    <path d="M -50.04768 -21.72135 C -50.17 -21.67 -50.28 -21.62 -50.39922 -21.57609 C -50.52 -21.53 -50.63 -21.48 -50.74422 -21.43042 C -50.86 -21.38 -50.97 -21.33 -51.08257 -21.28435 C -51.19 -21.24 -51.3 -21.19 -51.41418 -21.13792 C -51.52 -21.09 -51.63 -21.04 -51.73895 -20.99118 C -51.85 -20.94 -51.95 -20.89 -52.05677 -20.84415 C -52.16 -20.8 -52.27 -20.75 -52.36756 -20.69691 C -52.47 -20.65 -52.57 -20.6 -52.67123 -20.5495 C -52.77 -20.5 -52.87 -20.45 -52.96768 -20.40199 C -53.07 -20.35 -53.16 -20.3 -53.25684 -20.25446 C -53.35 -20.21 -53.45 -20.16 -53.53863 -20.10698 C -53.63 -20.06 -53.72 -20.01 -53.81296 -19.95965 C -53.9 -19.91 -53.99 -19.86 -54.07976 -19.81255 C -54.17 -19.76 -54.25 -19.71 -54.33896 -19.66579 C -54.42 -19.62 -54.51 -19.57 -54.59049 -19.51947 C -54.67 -19.47 -54.75 -19.42 -54.83428 -19.37371 C -54.91 -19.33 -54.99 -19.28 -55.07027 -19.22862 C -55.15 -19.18 -55.22 -19.13 -55.2984 -19.08435 C -55.37 -19.04 -55.45 -18.99 -55.51861 -18.94101 C -55.59 -18.89 -55.66 -18.85 -55.73085 -18.79875 C -55.8 -18.75 -55.87 -18.7 -55.93507 -18.65772 C -56 -18.61 -56.07 -18.56 -56.13121 -18.51808 C -56.2 -18.47 -56.26 -18.43 -56.31924 -18.37999 C -56.38 -18.33 -56.44 -18.29 -56.4991 -18.24361 C -56.56 -18.2 -56.61 -18.15 -56.67077 -18.10912 C -56.73 -18.06 -56.78 -18.02 -56.83419 -17.9767 C -56.89 -17.93 -56.94 -17.89 -56.98935 -17.84655 C -57.04 -17.8 -57.09 -17.76 -57.13621 -17.71885 C -57.33 -17.55 -57.49 -17.39 -57.64011 -17.23682 C -58.8 -15.9 -58.45 -15.9 -58.52431 -15.87745" />
    <path d="M -56.34932 -43.43836 L -56.34932 -29.87649" />
    <path d="M -56.34932 -18.35748 L -56.34932 -14.66247" />
    <path d="M -31.34932 -43.43836 L -31.34932 -14.66247" />
    <path d="M -45.49932 17.9502 L -45.49932 2.02653" />
</svg>